<?xml version="1.0" encoding="UTF-8" standalone="no"?>
<svg id="svg2" xmlns:rdf="http://www.w3.org/1999/02/22-rdf-syntax-ns#" xmlns="http://www.w3.org/2000/svg" viewBox="0 0 573.18 842.44" version="1.1" xmlns:cc="http://creativecommons.org/ns#" xmlns:dc="http://purl.org/dc/elements/1.1/">
 <title id="title3859">Universal Polar Stereographic (UPS) grids</title>
 <metadata id="metadata8">
  <rdf:RDF>
   <cc:Work rdf:about="">
    <dc:format>image/svg+xml</dc:format>
    <dc:type rdf:resource="http://purl.org/dc/dcmitype/StillImage"/>
    <dc:title>Universal Polar Stereographic (UPS) grids</dc:title>
    <dc:date>2010-03-07</dc:date>
    <dc:creator>
     <cc:Agent>
      <dc:title>Johan Gustafsson</dc:title>
     </cc:Agent>
    </dc:creator>
    <dc:rights>
     <cc:Agent>
      <dc:title>Johan Gustafsson</dc:title>
     </cc:Agent>
    </dc:rights>
    <dc:publisher>
     <cc:Agent>
      <dc:title>Johan Gustafsson</dc:title>
     </cc:Agent>
    </dc:publisher>
    <dc:language>en</dc:language>
    <dc:subject>
     <rdf:Bag>
      <rdf:li>UPS</rdf:li>
      <rdf:li>Universal Polar Stereographic Grids</rdf:li>
      <rdf:li>North pole</rdf:li>
      <rdf:li>South pole</rdf:li>
      <rdf:li>Grid</rdf:li>
      <rdf:li>False North</rdf:li>
      <rdf:li>False East</rdf:li>
     </rdf:Bag>
    </dc:subject>
    <dc:description>Basedon diagram in DMA TM8358.2, page 3-3</dc:description>
    <cc:license rdf:resource="http://creativecommons.org/licenses/publicdomain/"/>
   </cc:Work>
   <cc:License rdf:about="http://creativecommons.org/licenses/publicdomain/">
    <cc:permits rdf:resource="http://creativecommons.org/ns#Reproduction"/>
    <cc:permits rdf:resource="http://creativecommons.org/ns#Distribution"/>
    <cc:permits rdf:resource="http://creativecommons.org/ns#DerivativeWorks"/>
   </cc:License>
  </rdf:RDF>
 </metadata>
 <defs id="defs6"></defs>
 <g id="layer2" transform="translate(-93.741788,-129.64328)">
  <g id="layer4" stroke="#000" stroke-miterlimit="4" stroke-width="0.99921262" fill="none">
   <path id="path3617" style="enable-background:accumulate;color:#000000;stroke-dasharray:none;" d="m506.79,699.25a127.21,127.74,0,1,1,-254.41,0,127.21,127.74,0,1,1,254.41,0z" transform="translate(-4.2648506e-6,2.6785085e-6)"/>
   <path id="path3617-1" style="enable-background:accumulate;color:#000000;stroke-dasharray:none;" d="m415.38,699.25a35.794,35.794,0,1,1,-71.588,0,35.794,35.794,0,1,1,71.588,0z" transform="translate(-4.2648506e-6,2.6785085e-6)"/>
   <path id="path3617-4" style="enable-background:accumulate;color:#000000;stroke-dasharray:none;" d="m612.7,699.25a233.11,233.11,0,1,1,-466.22,0,233.11,233.11,0,1,1,466.22,0z" transform="translate(-4.2648506e-6,2.6785085e-6)"/>
  </g>
  <g id="layer6" stroke-linejoin="miter" stroke="#000" stroke-linecap="butt" stroke-width="1px" fill="none">
   <path id="path3650" d="m136.77,699.25,485.63,0"/>
   <path id="path3650-5" d="m379.59,942.08,0-485.68"/>
   <path id="path3650-7" d="m165.76,606.31,427.67,0"/>
   <path id="path3650-2" d="m275.19,490.79,208.47,0"/>
   <path id="path3650-1" d="m166.08,792.99,426.96,0"/>
   <path id="path3650-22" d="m276.94,908.6,205.24,0"/>
   <path id="path3650-5-6" d="m285.7,912.68,0-426.86"/>
   <path id="path3650-5-7" d="M169.8,801.03,169.24,598.64"/>
   <path id="path3650-5-9" d="m472.54,913.07,0-427.76"/>
   <path id="path3650-5-95" d="m588.54,802.67,0-206.89"/>
  </g>
  <g id="layer9" stroke-linejoin="miter" stroke="#000" stroke-linecap="butt" stroke-width="1px" fill="none">
   <path id="path3650-9" d="M207.88,870.96,551.29,527.55"/>
   <path id="path3650-8" d="M551.24,870.97,207.29,528.12"/>
  </g>
  <g id="layer8" font-size="8px" font-stretch="normal" fill="#000000" font-variant="normal" font-weight="normal" font-family="DejaVu Sans" font-style="normal">
   <text id="text2948-7" style="writing-mode:lr-tb;text-anchor:end;text-align:end;" xml:space="preserve" y="702.0556" x="132.32564" line-height="125%"><tspan id="tspan2950-6" x="132.32564" y="702.0556">90°W</tspan></text>
   <text id="text2948" style="writing-mode:lr-tb;text-anchor:start;text-align:start;" xml:space="preserve" transform="matrix(0.70710678,-0.70710678,0.70710678,0.70710678,0,0)" y="765.42438" x="21.293512" line-height="125%"><tspan id="tspan2950" x="21.293512" y="765.42438">45°E</tspan></text>
   <text id="text2948-1" style="writing-mode:lr-tb;text-anchor:end;text-align:end;" xml:space="preserve" transform="matrix(0.70710678,0.70710678,-0.70710678,0.70710678,0,0)" y="229.46568" x="515.86395" line-height="125%"><tspan id="tspan2950-7" x="515.86395" y="229.46568">45°W</tspan></text>
   <text id="text2948-0" style="writing-mode:lr-tb;text-anchor:middle;text-align:center;" xml:space="preserve" y="448.20169" x="381.80899" line-height="125%"><tspan id="tspan2950-9" x="381.80899" y="448.20169">0°</tspan></text>
   <text id="text2948-8" style="writing-mode:lr-tb;text-anchor:start;text-align:start;" xml:space="preserve" y="701.8067" x="626.74963" line-height="125%"><tspan id="tspan3358" x="626.74963" y="701.8067">90°E</tspan></text>
   <text id="text2948-5" style="writing-mode:lr-tb;text-anchor:start;text-align:start;" xml:space="preserve" transform="matrix(0.70710678,0.70710678,-0.70710678,0.70710678,0,0)" y="229.43022" x="1009.5925" line-height="125%"><tspan id="tspan2950-1" x="1009.5925" y="229.43022">135°E</tspan></text>
   <text id="text2948-11" style="writing-mode:lr-tb;text-anchor:end;text-align:end;" xml:space="preserve" transform="matrix(0.70710678,-0.70710678,0.70710678,0.70710678,0,0)" y="764.80164" x="-473.23813" line-height="125%"><tspan id="tspan2950-5" x="-473.23813" y="764.80164">135°W</tspan></text>
   <text id="text2948-4" style="writing-mode:lr-tb;text-anchor:middle;text-align:center;" xml:space="preserve" y="952.69299" x="381.04858" line-height="125%"><tspan id="tspan2950-23" x="381.04858" y="952.69299">180°</tspan></text>
   <text id="text2948-4-3" style="writing-mode:lr-tb;text-anchor:middle;text-align:center;" xml:space="preserve" transform="matrix(0.99951966,-0.03099118,0.03099118,0.99951966,0,0)" y="940.99786" x="361.39001" line-height="125%"><tspan id="tspan2950-23-1" x="361.39001" y="940.99786">80°S</tspan></text>
   <text id="text2948-4-33" style="writing-mode:lr-tb;text-anchor:middle;text-align:center;" xml:space="preserve" transform="matrix(0.99519005,-0.09796311,0.09796311,0.99519005,0,0)" y="858.15796" x="308.93375" line-height="125%"><tspan id="tspan2950-23-4" x="308.93375" y="858.15796">84°S</tspan></text>
   <text id="text2948-4-1" style="writing-mode:lr-tb;text-anchor:middle;text-align:center;" xml:space="preserve" transform="matrix(0.93927968,-0.34315255,0.34315255,0.93927968,0,0)" y="819.7569" x="117.0285" line-height="125%"><tspan id="tspan2950-23-3" x="117.0285" y="819.7569">88°S</tspan></text>
   <text id="text3409" style="writing-mode:lr-tb;text-anchor:start;text-align:start;" xml:space="preserve" y="919.74707" x="314.1449" line-height="125%"><tspan id="tspan3411" x="314.1449" y="919.74707">1 000 000 m N</tspan></text>
   <text id="text3413" style="writing-mode:lr-tb;text-anchor:start;text-align:start;" xml:space="preserve" y="787.75055" x="175.49353" line-height="125%"><tspan id="tspan3415" x="175.49353" y="787.75055">1 500 000 m N</tspan></text>
   <text id="text3417" style="writing-mode:lr-tb;text-anchor:start;text-align:start;" xml:space="preserve" y="693.99091" x="175.7865" line-height="125%"><tspan id="tspan3419" x="175.7865" y="693.99091">2 000 000 m N</tspan></text>
   <text id="text3421" style="writing-mode:lr-tb;text-anchor:start;text-align:start;" xml:space="preserve" y="600.98859" x="175.7865" line-height="125%"><tspan id="tspan3423" x="175.7865" y="600.98859">2 500 000 m N</tspan></text>
   <text id="text3425" style="writing-mode:lr-tb;text-anchor:start;text-align:start;" xml:space="preserve" y="485.31595" x="314.41443" line-height="125%"><tspan id="tspan3427" x="314.41443" y="485.31595">3 000 000 m N</tspan></text>
   <text id="text3429" style="writing-mode:lr-tb;text-anchor:start;text-align:start;" xml:space="preserve" transform="matrix(0,-1,1,0,0,0)" y="163.41019" x="-763.20612" line-height="125%"><tspan id="tspan3431" x="-763.20612" y="163.41019">1 000 000 m E</tspan></text>
   <text id="text3433" style="writing-mode:lr-tb;text-anchor:start;text-align:start;" xml:space="preserve" transform="matrix(0,-1,1,0,0,0)" y="278.40054" x="-902.67877" line-height="125%"><tspan id="tspan3435" x="-902.67877" y="278.40054">1 500 000 m E</tspan></text>
   <text id="text3437" style="writing-mode:lr-tb;text-anchor:start;text-align:start;" xml:space="preserve" transform="matrix(0,-1,1,0,0,0)" y="372.83478" x="-902.3858" line-height="125%"><tspan id="tspan3439" x="-902.3858" y="372.83478">2 000 000 m E</tspan></text>
   <text id="text3441" style="writing-mode:lr-tb;text-anchor:start;text-align:start;" xml:space="preserve" transform="matrix(0,-1,1,0,0,0)" y="465.74393" x="-902.3858" line-height="125%"><tspan id="tspan3443" x="-902.3858" y="465.74393">2 500 000 m E</tspan></text>
   <text id="text3445" style="writing-mode:lr-tb;text-anchor:start;text-align:start;" xml:space="preserve" transform="matrix(0,-1,1,0,0,0)" y="599.90454" x="-762.93658" line-height="125%"><tspan id="tspan3447" x="-762.93658" y="599.90454">3 000 000 m E</tspan></text>
   <text id="text3449" style="writing-mode:lr-tb;text-anchor:start;text-align:start;" xml:space="preserve" transform="translate(0,2.5390623e-6)" y="812.78009" x="699.7066" line-height="125%"><tspan id="tspan3451" x="699.7066" y="812.78009"/></text>
  </g>
  <text id="text4205" style="writing-mode:lr-tb;text-anchor:middle;text-align:center;" font-weight="bold" xml:space="preserve" font-size="40px" font-style="normal" stroke="#000000" font-stretch="normal" font-variant="normal" y="712.9884" x="379.74759" font-family="DejaVu Sans" line-height="125%" fill="#e6e6e6"><tspan id="tspan4207" style="writing-mode:lr-tb;text-anchor:middle;text-align:center;" font-weight="bold" font-size="40px" font-style="normal" line-height="125%" stroke="#000000" font-stretch="normal" font-variant="normal" y="712.9884" x="379.74759" font-family="DejaVu Sans" fill="#e6e6e6">S</tspan></text>
 </g>
 <g id="layer3" transform="translate(-93.741788,-129.64328)">
  <g id="layer12" stroke="#000" stroke-miterlimit="4" stroke-width="0.99921262" fill="none">
   <path id="path3617-6" style="enable-background:accumulate;color:#000000;stroke-dasharray:none;" d="m506.79,699.25c0,70.548-56.952,127.74-127.21,127.74-70.254,0-127.21-57.19-127.21-127.74,0-70.548,56.952-127.74,127.21-127.74,70.254,0,127.21,57.19,127.21,127.74z" transform="translate(-4.5968819e-6,-399.38712)"/>
   <path id="path3617-1-0" style="enable-background:accumulate;color:#000000;stroke-dasharray:none;" d="m415.38,699.25c0,19.769-16.026,35.794-35.794,35.794-19.769,0-35.794-16.026-35.794-35.794,0-19.769,16.026-35.794,35.794-35.794,19.769,0,35.794,16.026,35.794,35.794z" transform="translate(-4.5968819e-6,-399.38712)"/>
  </g>
  <g id="layer13" stroke-linejoin="miter" stroke="#000" stroke-linecap="butt" stroke-width="1px" fill="none">
   <path id="path3650-17" d="m241.65,299.87,275.67,0"/>
   <path id="path3650-5-77" d="m379.59,437.91,0-276.15"/>
   <path id="path3650-7-7" d="m292.31,206.92,174.53,0"/>
   <path id="path3650-1-3" d="m293.24,393.61,172.7,0"/>
   <path id="path3650-5-6-9" d="m285.7,386.09,0-172.43"/>
   <path id="path3650-5-9-8" d="m472.54,387.03,0-174.37"/>
  </g>
  <g id="layer11" stroke-linejoin="miter" stroke="#000" stroke-linecap="butt" stroke-width="1px" fill="none">
   <path id="path3650-9-8" d="M281.81,397.64,477.22,202.21"/>
   <path id="path3650-8-2" d="M477.39,397.28,281.84,202.36"/>
  </g>
  <g id="layer10" font-size="8px" font-stretch="normal" fill="#000000" font-variant="normal" font-weight="normal" font-family="DejaVu Sans" font-style="normal">
   <text id="text2948-7-6" style="writing-mode:lr-tb;text-anchor:end;text-align:end;" xml:space="preserve" y="302.66849" x="237.66765" line-height="125%"><tspan id="tspan2950-6-0" x="237.66765" y="302.66849">90°W</tspan></text>
   <text id="text2948-3" style="writing-mode:lr-tb;text-anchor:start;text-align:start;" xml:space="preserve" transform="matrix(0.70710678,-0.70710678,0.70710678,0.70710678,0,0)" y="483.13721" x="197.99875" line-height="125%"><tspan id="tspan2950-8" x="197.99875" y="483.13721">135°E</tspan></text>
   <text id="text2948-1-0" style="writing-mode:lr-tb;text-anchor:end;text-align:end;" xml:space="preserve" transform="matrix(0.70710678,0.70710678,-0.70710678,0.70710678,0,0)" y="-53.01366" x="338.54645" line-height="125%"><tspan id="tspan2950-7-1" x="338.54645" y="-53.01366">135°W</tspan></text>
   <text id="text2948-0-2" style="writing-mode:lr-tb;text-anchor:middle;text-align:center;" xml:space="preserve" y="157.38713" x="381.01688" line-height="125%"><tspan id="tspan2950-9-5" x="381.01688" y="157.38713">180°</tspan></text>
   <text id="text2948-8-0" style="writing-mode:lr-tb;text-anchor:start;text-align:start;" xml:space="preserve" y="302.41959" x="521.3028" line-height="125%"><tspan id="tspan3358-9" x="521.3028" y="302.41959">90°E</tspan></text>
   <text id="text2948-5-4" style="writing-mode:lr-tb;text-anchor:start;text-align:start;" xml:space="preserve" transform="matrix(0.70710678,0.70710678,-0.70710678,0.70710678,0,0)" y="-53.447235" x="622.14899" line-height="125%"><tspan id="tspan2950-1-7" x="622.14899" y="-53.447235">45°E</tspan></text>
   <text id="text2948-11-8" style="writing-mode:lr-tb;text-anchor:end;text-align:end;" xml:space="preserve" transform="matrix(0.70710678,-0.70710678,0.70710678,0.70710678,0,0)" y="483.38245" x="-85.478889" line-height="125%"><tspan id="tspan2950-5-3" x="-85.478889" y="483.38245">45°W</tspan></text>
   <text id="text2948-4-5" style="writing-mode:lr-tb;text-anchor:middle;text-align:center;" xml:space="preserve" y="448.07666" x="381.04858" line-height="125%"><tspan id="tspan2950-23-12" x="381.04858" y="448.07666">0°</tspan></text>
   <text id="text2948-4-33-6" style="writing-mode:lr-tb;text-anchor:middle;text-align:center;" xml:space="preserve" transform="matrix(0.99519005,-0.09796311,0.09796311,0.99519005,0,0)" y="460.69189" x="348.05896" line-height="125%"><tspan id="tspan2950-23-4-4" x="348.05896" y="460.69189">84°N</tspan></text>
   <text id="text2948-4-1-0" style="writing-mode:lr-tb;text-anchor:middle;text-align:center;" xml:space="preserve" transform="matrix(0.93927968,-0.34315255,0.34315255,0.93927968,0,0)" y="444.62067" x="254.07919" line-height="125%"><tspan id="tspan2950-23-3-6" x="254.07919" y="444.62067">88°N</tspan></text>
   <text id="text3413-9" style="writing-mode:lr-tb;text-anchor:start;text-align:start;" xml:space="preserve" y="386.9679" x="313.8483" line-height="125%"><tspan id="tspan3415-8" x="313.8483" y="386.9679">1 500 000 m N</tspan></text>
   <text id="text3421-4" style="writing-mode:lr-tb;text-anchor:start;text-align:start;" xml:space="preserve" y="218.85786" x="314.14127" line-height="125%"><tspan id="tspan3423-3" x="314.14127" y="218.85786">2 500 000 m N</tspan></text>
   <text id="text3433-8" style="writing-mode:lr-tb;text-anchor:start;text-align:start;" xml:space="preserve" transform="matrix(0,-1,1,0,0,0)" y="298.59512" x="-364.9386" line-height="125%"><tspan id="tspan3435-7" x="-364.9386" y="298.59512">1 500 000 m E</tspan></text>
   <text id="text3441-3" style="writing-mode:lr-tb;text-anchor:start;text-align:start;" xml:space="preserve" transform="matrix(0,-1,1,0,0,0)" y="465.46344" x="-364.64563" line-height="125%"><tspan id="tspan3443-8" x="-364.64563" y="465.46344">2 500 000 m E</tspan></text>
  </g>
  <text id="text4205-9" style="writing-mode:lr-tb;text-anchor:middle;text-align:center;" font-weight="bold" xml:space="preserve" font-size="40px" font-style="normal" stroke="#000000" font-stretch="normal" font-variant="normal" y="313.4704" x="379.69666" font-family="DejaVu Sans" line-height="125%" fill="#ff5555"><tspan id="tspan4207-9" style="writing-mode:lr-tb;text-anchor:middle;text-align:center;" font-weight="bold" font-size="40px" font-style="normal" line-height="125%" stroke="#000000" font-stretch="normal" font-variant="normal" y="313.4704" x="379.69666" font-family="DejaVu Sans" fill="#ff5555">N</tspan></text>
 </g>
</svg>