<?xml version="1.0" encoding="UTF-8" standalone="no"?>
<!-- Created with Inkscape (http://www.inkscape.org/) -->

<svg
   xmlns:dc="http://purl.org/dc/elements/1.1/"
   xmlns:cc="http://creativecommons.org/ns#"
   xmlns:rdf="http://www.w3.org/1999/02/22-rdf-syntax-ns#"
   xmlns:svg="http://www.w3.org/2000/svg"
   xmlns="http://www.w3.org/2000/svg"
   xmlns:sodipodi="http://sodipodi.sourceforge.net/DTD/sodipodi-0.dtd"
   xmlns:inkscape="http://www.inkscape.org/namespaces/inkscape"
   width="100.54414mm"
   height="115.17377mm"
   viewBox="0 0 100.54414 115.17377"
   version="1.1"
   id="svg8"
   inkscape:version="0.92.3 (2405546, 2018-03-11)"
   sodipodi:docname="bird B.svg">
  <defs
     id="defs2" />
  <sodipodi:namedview
     id="base"
     pagecolor="#ffffff"
     bordercolor="#666666"
     borderopacity="1.0"
     inkscape:pageopacity="0.0"
     inkscape:pageshadow="2"
     inkscape:zoom="2"
     inkscape:cx="198.63331"
     inkscape:cy="195.07776"
     inkscape:document-units="mm"
     inkscape:current-layer="layer1"
     showgrid="false"
     inkscape:window-width="1920"
     inkscape:window-height="1147"
     inkscape:window-x="-8"
     inkscape:window-y="-8"
     inkscape:window-maximized="1"
     fit-margin-top="0"
     fit-margin-left="0"
     fit-margin-right="0"
     fit-margin-bottom="0" />
  <metadata
     id="metadata5">
    <rdf:RDF>
      <cc:Work
         rdf:about="">
        <dc:format>image/svg+xml</dc:format>
        <dc:type
           rdf:resource="http://purl.org/dc/dcmitype/StillImage" />
        <dc:title></dc:title>
      </cc:Work>
    </rdf:RDF>
  </metadata>
  <g
     inkscape:label="Layer 1"
     inkscape:groupmode="layer"
     id="layer1"
     transform="translate(-44.548616,-54.70327)">
    <g
       id="layer1-8"
       inkscape:label="Layer 1"
       transform="translate(-19.314953,40.711812)">
      <path
         sodipodi:type="star"
         style="fill:#6bc471;fill-opacity:0.83417089;stroke:#008000;stroke-width:6.00004864;stroke-miterlimit:4;stroke-dasharray:none;stroke-dashoffset:0;stroke-opacity:1"
         id="path9314-2"
         sodipodi:sides="6"
         sodipodi:cx="106.74076"
         sodipodi:cy="71.69178"
         sodipodi:r1="56.66114"
         sodipodi:r2="49.076878"
         sodipodi:arg1="0"
         sodipodi:arg2="0.52359878"
         inkscape:flatsided="false"
         inkscape:rounded="0"
         inkscape:randomized="0"
         d="m 163.4019,71.69178 -14.15932,24.538439 -14.17125,24.531551 -28.33057,0.007 -28.330569,-0.007 L 64.238938,96.230219 50.07962,71.69178 64.238938,47.153341 78.410191,22.621793 l 28.330569,-0.0069 28.33057,0.0069 14.17125,24.531548 z"
         transform="matrix(0.14491489,-0.083,0.08366665,0.14376022,51.613883,46.617138)" />
      <path
         sodipodi:type="star"
         style="fill:none;fill-opacity:1;stroke:#008000;stroke-width:6.00004864;stroke-miterlimit:4;stroke-dasharray:none;stroke-dashoffset:0;stroke-opacity:1"
         id="path9314-2-1"
         sodipodi:sides="6"
         sodipodi:cx="106.74076"
         sodipodi:cy="71.69178"
         sodipodi:r1="56.66114"
         sodipodi:r2="49.076878"
         sodipodi:arg1="0"
         sodipodi:arg2="0.52359878"
         inkscape:flatsided="false"
         inkscape:rounded="0"
         inkscape:randomized="0"
         d="m 163.4019,71.69178 -14.15932,24.538439 -14.17125,24.531551 -28.33057,0.007 -28.330569,-0.007 L 64.238938,96.230219 50.07962,71.69178 64.238938,47.153341 78.410191,22.621793 l 28.330569,-0.0069 28.33057,0.0069 14.17125,24.531548 z"
         transform="matrix(0.14491489,-0.083,0.08366665,0.14376022,68.035969,46.617138)" />
      <path
         sodipodi:type="star"
         style="fill:none;fill-opacity:1;stroke:#008000;stroke-width:6.00004864;stroke-miterlimit:4;stroke-dasharray:none;stroke-dashoffset:0;stroke-opacity:1"
         id="path9314-2-4"
         sodipodi:sides="6"
         sodipodi:cx="106.74076"
         sodipodi:cy="71.69178"
         sodipodi:r1="56.66114"
         sodipodi:r2="49.076878"
         sodipodi:arg1="0"
         sodipodi:arg2="0.52359878"
         inkscape:flatsided="false"
         inkscape:rounded="0"
         inkscape:randomized="0"
         d="m 163.4019,71.69178 -14.15932,24.538439 -14.17125,24.531551 -28.33057,0.007 -28.330569,-0.007 L 64.238938,96.230219 50.07962,71.69178 64.238938,47.153341 78.410191,22.621793 l 28.330569,-0.0069 28.33057,0.0069 14.17125,24.531548 z"
         transform="matrix(0.14491489,-0.083,0.08366665,0.14376022,84.458054,46.617138)" />
      <path
         sodipodi:type="star"
         style="fill:none;fill-opacity:1;stroke:#008000;stroke-width:6.00004864;stroke-miterlimit:4;stroke-dasharray:none;stroke-dashoffset:0;stroke-opacity:1"
         id="path9314-2-0"
         sodipodi:sides="6"
         sodipodi:cx="106.74076"
         sodipodi:cy="71.69178"
         sodipodi:r1="56.66114"
         sodipodi:r2="49.076878"
         sodipodi:arg1="0"
         sodipodi:arg2="0.52359878"
         inkscape:flatsided="false"
         inkscape:rounded="0"
         inkscape:randomized="0"
         d="m 163.4019,71.69178 -14.15932,24.538439 -14.17125,24.531551 -28.33057,0.007 -28.330569,-0.007 L 64.238938,96.230219 50.07962,71.69178 64.238938,47.153341 78.410191,22.621793 l 28.330569,-0.0069 28.33057,0.0069 14.17125,24.531548 z"
         transform="matrix(0.14491489,-0.083,0.08366665,0.14376022,100.88014,46.617138)" />
      <path
         sodipodi:type="star"
         style="fill:none;fill-opacity:1;stroke:#008000;stroke-width:6.00004864;stroke-miterlimit:4;stroke-dasharray:none;stroke-dashoffset:0;stroke-opacity:1"
         id="path9314-2-8"
         sodipodi:sides="6"
         sodipodi:cx="106.74076"
         sodipodi:cy="71.69178"
         sodipodi:r1="56.66114"
         sodipodi:r2="49.076878"
         sodipodi:arg1="0"
         sodipodi:arg2="0.52359878"
         inkscape:flatsided="false"
         inkscape:rounded="0"
         inkscape:randomized="0"
         d="m 163.4019,71.69178 -14.15932,24.538439 -14.17125,24.531551 -28.33057,0.007 -28.330569,-0.007 L 64.238938,96.230219 50.07962,71.69178 64.238938,47.153341 78.410191,22.621793 l 28.330569,-0.0069 28.33057,0.0069 14.17125,24.531548 z"
         transform="matrix(0.14491489,-0.083,0.08366665,0.14376022,117.30223,46.617138)" />
      <path
         sodipodi:type="star"
         style="fill:#6bc471;fill-opacity:0.83417089;stroke:#008000;stroke-width:6.00004864;stroke-miterlimit:4;stroke-dasharray:none;stroke-dashoffset:0;stroke-opacity:1"
         id="path9314-2-7"
         sodipodi:sides="6"
         sodipodi:cx="106.74076"
         sodipodi:cy="71.69178"
         sodipodi:r1="56.66114"
         sodipodi:r2="49.076878"
         sodipodi:arg1="0"
         sodipodi:arg2="0.52359878"
         inkscape:flatsided="false"
         inkscape:rounded="0"
         inkscape:randomized="0"
         d="m 163.4019,71.69178 -14.15932,24.538439 -14.17125,24.531551 -28.33057,0.007 -28.330569,-0.007 L 64.238938,96.230219 50.07962,71.69178 64.238938,47.153341 78.410191,22.621793 l 28.330569,-0.0069 28.33057,0.0069 14.17125,24.531548 z"
         transform="matrix(0.14491489,-0.083,0.08366665,0.14376022,133.72432,46.617138)" />
      <path
         sodipodi:type="star"
         style="fill:#6bc471;fill-opacity:0.83417089;stroke:#008000;stroke-width:6.00004864;stroke-miterlimit:4;stroke-dasharray:none;stroke-dashoffset:0;stroke-opacity:1"
         id="path9314-2-5"
         sodipodi:sides="6"
         sodipodi:cx="106.74076"
         sodipodi:cy="71.69178"
         sodipodi:r1="56.66114"
         sodipodi:r2="49.076878"
         sodipodi:arg1="0"
         sodipodi:arg2="0.52359878"
         inkscape:flatsided="false"
         inkscape:rounded="0"
         inkscape:randomized="0"
         d="m 163.4019,71.69178 -14.15932,24.538439 -14.17125,24.531551 -28.33057,0.007 -28.330569,-0.007 L 64.238938,96.230219 50.07962,71.69178 64.238938,47.153341 78.410191,22.621793 l 28.330569,-0.0069 28.33057,0.0069 14.17125,24.531548 z"
         transform="matrix(0.14491489,-0.083,0.08366665,0.14376022,59.824926,60.725762)" />
      <path
         sodipodi:type="star"
         style="fill:#6bc471;fill-opacity:0.83417089;stroke:#008000;stroke-width:6.00004864;stroke-miterlimit:4;stroke-dasharray:none;stroke-dashoffset:0;stroke-opacity:1"
         id="path9314-2-1-3"
         sodipodi:sides="6"
         sodipodi:cx="106.74076"
         sodipodi:cy="71.69178"
         sodipodi:r1="56.66114"
         sodipodi:r2="49.076878"
         sodipodi:arg1="0"
         sodipodi:arg2="0.52359878"
         inkscape:flatsided="false"
         inkscape:rounded="0"
         inkscape:randomized="0"
         d="m 163.4019,71.69178 -14.15932,24.538439 -14.17125,24.531551 -28.33057,0.007 -28.330569,-0.007 L 64.238938,96.230219 50.07962,71.69178 64.238938,47.153341 78.410191,22.621793 l 28.330569,-0.0069 28.33057,0.0069 14.17125,24.531548 z"
         transform="matrix(0.14491489,-0.083,0.08366665,0.14376022,76.247017,60.725762)" />
      <path
         sodipodi:type="star"
         style="fill:none;fill-opacity:1;stroke:#008000;stroke-width:6.00004864;stroke-miterlimit:4;stroke-dasharray:none;stroke-dashoffset:0;stroke-opacity:1"
         id="path9314-2-4-3"
         sodipodi:sides="6"
         sodipodi:cx="106.74076"
         sodipodi:cy="71.69178"
         sodipodi:r1="56.66114"
         sodipodi:r2="49.076878"
         sodipodi:arg1="0"
         sodipodi:arg2="0.52359878"
         inkscape:flatsided="false"
         inkscape:rounded="0"
         inkscape:randomized="0"
         d="m 163.4019,71.69178 -14.15932,24.538439 -14.17125,24.531551 -28.33057,0.007 -28.330569,-0.007 L 64.238938,96.230219 50.07962,71.69178 64.238938,47.153341 78.410191,22.621793 l 28.330569,-0.0069 28.33057,0.0069 14.17125,24.531548 z"
         transform="matrix(0.14491489,-0.083,0.08366665,0.14376022,92.669097,60.725762)" />
      <path
         sodipodi:type="star"
         style="fill:none;fill-opacity:1;stroke:#008000;stroke-width:6.00004864;stroke-miterlimit:4;stroke-dasharray:none;stroke-dashoffset:0;stroke-opacity:1"
         id="path9314-2-0-9"
         sodipodi:sides="6"
         sodipodi:cx="106.74076"
         sodipodi:cy="71.69178"
         sodipodi:r1="56.66114"
         sodipodi:r2="49.076878"
         sodipodi:arg1="0"
         sodipodi:arg2="0.52359878"
         inkscape:flatsided="false"
         inkscape:rounded="0"
         inkscape:randomized="0"
         d="m 163.4019,71.69178 -14.15932,24.538439 -14.17125,24.531551 -28.33057,0.007 -28.330569,-0.007 L 64.238938,96.230219 50.07962,71.69178 64.238938,47.153341 78.410191,22.621793 l 28.330569,-0.0069 28.33057,0.0069 14.17125,24.531548 z"
         transform="matrix(0.14491489,-0.083,0.08366665,0.14376022,109.09119,60.725762)" />
      <path
         sodipodi:type="star"
         style="fill:#6bc471;fill-opacity:0.83417089;stroke:#008000;stroke-width:6.00004864;stroke-miterlimit:4;stroke-dasharray:none;stroke-dashoffset:0;stroke-opacity:1"
         id="path9314-2-8-9"
         sodipodi:sides="6"
         sodipodi:cx="106.74076"
         sodipodi:cy="71.69178"
         sodipodi:r1="56.66114"
         sodipodi:r2="49.076878"
         sodipodi:arg1="0"
         sodipodi:arg2="0.52359878"
         inkscape:flatsided="false"
         inkscape:rounded="0"
         inkscape:randomized="0"
         d="m 163.4019,71.69178 -14.15932,24.538439 -14.17125,24.531551 -28.33057,0.007 -28.330569,-0.007 L 64.238938,96.230219 50.07962,71.69178 64.238938,47.153341 78.410191,22.621793 l 28.330569,-0.0069 28.33057,0.0069 14.17125,24.531548 z"
         transform="matrix(0.14491489,-0.083,0.08366665,0.14376022,125.51328,60.725762)" />
      <path
         sodipodi:type="star"
         style="fill:none;fill-opacity:1;stroke:#008000;stroke-width:6.00004864;stroke-miterlimit:4;stroke-dasharray:none;stroke-dashoffset:0;stroke-opacity:1"
         id="path9314-2-9"
         sodipodi:sides="6"
         sodipodi:cx="106.74076"
         sodipodi:cy="71.69178"
         sodipodi:r1="56.66114"
         sodipodi:r2="49.076878"
         sodipodi:arg1="0"
         sodipodi:arg2="0.52359878"
         inkscape:flatsided="false"
         inkscape:rounded="0"
         inkscape:randomized="0"
         d="m 163.4019,71.69178 -14.15932,24.538439 -14.17125,24.531551 -28.33057,0.007 -28.330569,-0.007 L 64.238938,96.230219 50.07962,71.69178 64.238938,47.153341 78.410191,22.621793 l 28.330569,-0.0069 28.33057,0.0069 14.17125,24.531548 z"
         transform="matrix(0.14491489,-0.083,0.08366665,0.14376022,51.613877,74.834386)" />
      <path
         sodipodi:type="star"
         style="fill:none;fill-opacity:1;stroke:#008000;stroke-width:6.00004864;stroke-miterlimit:4;stroke-dasharray:none;stroke-dashoffset:0;stroke-opacity:1"
         id="path9314-2-1-35"
         sodipodi:sides="6"
         sodipodi:cx="106.74076"
         sodipodi:cy="71.69178"
         sodipodi:r1="56.66114"
         sodipodi:r2="49.076878"
         sodipodi:arg1="0"
         sodipodi:arg2="0.52359878"
         inkscape:flatsided="false"
         inkscape:rounded="0"
         inkscape:randomized="0"
         d="m 163.4019,71.69178 -14.15932,24.538439 -14.17125,24.531551 -28.33057,0.007 -28.330569,-0.007 L 64.238938,96.230219 50.07962,71.69178 64.238938,47.153341 78.410191,22.621793 l 28.330569,-0.0069 28.33057,0.0069 14.17125,24.531548 z"
         transform="matrix(0.14491489,-0.083,0.08366665,0.14376022,68.035964,74.834386)" />
      <path
         sodipodi:type="star"
         style="fill:#6bc471;fill-opacity:0.83417089;stroke:#008000;stroke-width:6.00004864;stroke-miterlimit:4;stroke-dasharray:none;stroke-dashoffset:0;stroke-opacity:1"
         id="path9314-2-4-6"
         sodipodi:sides="6"
         sodipodi:cx="106.74076"
         sodipodi:cy="71.69178"
         sodipodi:r1="56.66114"
         sodipodi:r2="49.076878"
         sodipodi:arg1="0"
         sodipodi:arg2="0.52359878"
         inkscape:flatsided="false"
         inkscape:rounded="0"
         inkscape:randomized="0"
         d="m 163.4019,71.69178 -14.15932,24.538439 -14.17125,24.531551 -28.33057,0.007 -28.330569,-0.007 L 64.238938,96.230219 50.07962,71.69178 64.238938,47.153341 78.410191,22.621793 l 28.330569,-0.0069 28.33057,0.0069 14.17125,24.531548 z"
         transform="matrix(0.14491489,-0.083,0.08366665,0.14376022,84.458048,74.834386)" />
      <path
         sodipodi:type="star"
         style="fill:none;fill-opacity:1;stroke:#008000;stroke-width:6.00004864;stroke-miterlimit:4;stroke-dasharray:none;stroke-dashoffset:0;stroke-opacity:1"
         id="path9314-2-0-91"
         sodipodi:sides="6"
         sodipodi:cx="106.74076"
         sodipodi:cy="71.69178"
         sodipodi:r1="56.66114"
         sodipodi:r2="49.076878"
         sodipodi:arg1="0"
         sodipodi:arg2="0.52359878"
         inkscape:flatsided="false"
         inkscape:rounded="0"
         inkscape:randomized="0"
         d="m 163.4019,71.69178 -14.15932,24.538439 -14.17125,24.531551 -28.33057,0.007 -28.330569,-0.007 L 64.238938,96.230219 50.07962,71.69178 64.238938,47.153341 78.410191,22.621793 l 28.330569,-0.0069 28.33057,0.0069 14.17125,24.531548 z"
         transform="matrix(0.14491489,-0.083,0.08366665,0.14376022,100.88014,74.834386)" />
      <path
         sodipodi:type="star"
         style="fill:none;fill-opacity:1;stroke:#008000;stroke-width:6.00004864;stroke-miterlimit:4;stroke-dasharray:none;stroke-dashoffset:0;stroke-opacity:1"
         id="path9314-2-8-6"
         sodipodi:sides="6"
         sodipodi:cx="106.74076"
         sodipodi:cy="71.69178"
         sodipodi:r1="56.66114"
         sodipodi:r2="49.076878"
         sodipodi:arg1="0"
         sodipodi:arg2="0.52359878"
         inkscape:flatsided="false"
         inkscape:rounded="0"
         inkscape:randomized="0"
         d="m 163.4019,71.69178 -14.15932,24.538439 -14.17125,24.531551 -28.33057,0.007 -28.330569,-0.007 L 64.238938,96.230219 50.07962,71.69178 64.238938,47.153341 78.410191,22.621793 l 28.330569,-0.0069 28.33057,0.0069 14.17125,24.531548 z"
         transform="matrix(0.14491489,-0.083,0.08366665,0.14376022,117.30223,74.834386)" />
      <path
         sodipodi:type="star"
         style="fill:#6bc471;fill-opacity:0.83417089;stroke:#008000;stroke-width:6.00004864;stroke-miterlimit:4;stroke-dasharray:none;stroke-dashoffset:0;stroke-opacity:1"
         id="path9314-2-7-0"
         sodipodi:sides="6"
         sodipodi:cx="106.74076"
         sodipodi:cy="71.69178"
         sodipodi:r1="56.66114"
         sodipodi:r2="49.076878"
         sodipodi:arg1="0"
         sodipodi:arg2="0.52359878"
         inkscape:flatsided="false"
         inkscape:rounded="0"
         inkscape:randomized="0"
         d="m 163.4019,71.69178 -14.15932,24.538439 -14.17125,24.531551 -28.33057,0.007 -28.330569,-0.007 L 64.238938,96.230219 50.07962,71.69178 64.238938,47.153341 78.410191,22.621793 l 28.330569,-0.0069 28.33057,0.0069 14.17125,24.531548 z"
         transform="matrix(0.14491489,-0.083,0.08366665,0.14376022,133.72432,74.834386)" />
      <path
         sodipodi:type="star"
         style="fill:none;fill-opacity:1;stroke:#008000;stroke-width:6.00004864;stroke-miterlimit:4;stroke-dasharray:none;stroke-dashoffset:0;stroke-opacity:1"
         id="path9314-2-46"
         sodipodi:sides="6"
         sodipodi:cx="106.74076"
         sodipodi:cy="71.69178"
         sodipodi:r1="56.66114"
         sodipodi:r2="49.076878"
         sodipodi:arg1="0"
         sodipodi:arg2="0.52359878"
         inkscape:flatsided="false"
         inkscape:rounded="0"
         inkscape:randomized="0"
         d="m 163.4019,71.69178 -14.15932,24.538439 -14.17125,24.531551 -28.33057,0.007 -28.330569,-0.007 L 64.238938,96.230219 50.07962,71.69178 64.238938,47.153341 78.410191,22.621793 l 28.330569,-0.0069 28.33057,0.0069 14.17125,24.531548 z"
         transform="matrix(0.14491489,-0.083,0.08366665,0.14376022,59.824928,88.94301)" />
      <path
         sodipodi:type="star"
         style="fill:#6bc471;fill-opacity:0.83417089;stroke:#008000;stroke-width:6.00004864;stroke-miterlimit:4;stroke-dasharray:none;stroke-dashoffset:0;stroke-opacity:1"
         id="path9314-2-1-8"
         sodipodi:sides="6"
         sodipodi:cx="106.74076"
         sodipodi:cy="71.69178"
         sodipodi:r1="56.66114"
         sodipodi:r2="49.076878"
         sodipodi:arg1="0"
         sodipodi:arg2="0.52359878"
         inkscape:flatsided="false"
         inkscape:rounded="0"
         inkscape:randomized="0"
         d="m 163.4019,71.69178 -14.15932,24.538439 -14.17125,24.531551 -28.33057,0.007 -28.330569,-0.007 L 64.238938,96.230219 50.07962,71.69178 64.238938,47.153341 78.410191,22.621793 l 28.330569,-0.0069 28.33057,0.0069 14.17125,24.531548 z"
         transform="matrix(0.14491489,-0.083,0.08366665,0.14376022,76.247014,88.94301)" />
      <path
         sodipodi:type="star"
         style="fill:#6bc471;fill-opacity:0.83417089;stroke:#008000;stroke-width:6.00004864;stroke-miterlimit:4;stroke-dasharray:none;stroke-dashoffset:0;stroke-opacity:1"
         id="path9314-2-4-1"
         sodipodi:sides="6"
         sodipodi:cx="106.74076"
         sodipodi:cy="71.69178"
         sodipodi:r1="56.66114"
         sodipodi:r2="49.076878"
         sodipodi:arg1="0"
         sodipodi:arg2="0.52359878"
         inkscape:flatsided="false"
         inkscape:rounded="0"
         inkscape:randomized="0"
         d="m 163.4019,71.69178 -14.15932,24.538439 -14.17125,24.531551 -28.33057,0.007 -28.330569,-0.007 L 64.238938,96.230219 50.07962,71.69178 64.238938,47.153341 78.410191,22.621793 l 28.330569,-0.0069 28.33057,0.0069 14.17125,24.531548 z"
         transform="matrix(0.14491489,-0.083,0.08366665,0.14376022,92.669099,88.94301)" />
      <path
         sodipodi:type="star"
         style="fill:#1e9a26;fill-opacity:1;stroke:#008000;stroke-width:6.00004864;stroke-miterlimit:4;stroke-dasharray:none;stroke-dashoffset:0;stroke-opacity:1"
         id="path9314-2-0-2"
         sodipodi:sides="6"
         sodipodi:cx="106.74076"
         sodipodi:cy="71.69178"
         sodipodi:r1="56.66114"
         sodipodi:r2="49.076878"
         sodipodi:arg1="0"
         sodipodi:arg2="0.52359878"
         inkscape:flatsided="false"
         inkscape:rounded="0"
         inkscape:randomized="0"
         d="m 163.4019,71.69178 -14.15932,24.538439 -14.17125,24.531551 -28.33057,0.007 -28.330569,-0.007 L 64.238938,96.230219 50.07962,71.69178 64.238938,47.153341 78.410191,22.621793 l 28.330569,-0.0069 28.33057,0.0069 14.17125,24.531548 z"
         transform="matrix(0.14491489,-0.083,0.08366665,0.14376022,109.09118,88.94301)" />
      <path
         sodipodi:type="star"
         style="fill:#1e9a26;fill-opacity:1;stroke:#008000;stroke-width:6.00004864;stroke-miterlimit:4;stroke-dasharray:none;stroke-dashoffset:0;stroke-opacity:1"
         id="path9314-2-8-67"
         sodipodi:sides="6"
         sodipodi:cx="106.74076"
         sodipodi:cy="71.69178"
         sodipodi:r1="56.66114"
         sodipodi:r2="49.076878"
         sodipodi:arg1="0"
         sodipodi:arg2="0.52359878"
         inkscape:flatsided="false"
         inkscape:rounded="0"
         inkscape:randomized="0"
         d="m 163.4019,71.69178 -14.15932,24.538439 -14.17125,24.531551 -28.33057,0.007 -28.330569,-0.007 L 64.238938,96.230219 50.07962,71.69178 64.238938,47.153341 78.410191,22.621793 l 28.330569,-0.0069 28.33057,0.0069 14.17125,24.531548 z"
         transform="matrix(0.14491489,-0.083,0.08366665,0.14376022,125.51327,88.94301)" />
      <path
         sodipodi:type="star"
         style="fill:#1e9a26;fill-opacity:1;stroke:#008000;stroke-width:6.00004864;stroke-miterlimit:4;stroke-dasharray:none;stroke-dashoffset:0;stroke-opacity:1"
         id="path9314-2-1-7"
         sodipodi:sides="6"
         sodipodi:cx="106.74076"
         sodipodi:cy="71.69178"
         sodipodi:r1="56.66114"
         sodipodi:r2="49.076878"
         sodipodi:arg1="0"
         sodipodi:arg2="0.52359878"
         inkscape:flatsided="false"
         inkscape:rounded="0"
         inkscape:randomized="0"
         d="m 163.4019,71.69178 -14.15932,24.538439 -14.17125,24.531551 -28.33057,0.007 -28.330569,-0.007 L 64.238938,96.230219 50.07962,71.69178 64.238938,47.153341 78.410191,22.621793 l 28.330569,-0.0069 28.33057,0.0069 14.17125,24.531548 z"
         transform="matrix(0.14491489,-0.083,0.08366665,0.14376022,68.035972,103.05163)" />
      <path
         sodipodi:type="star"
         style="fill:none;fill-opacity:1;stroke:#008000;stroke-width:6.00004864;stroke-miterlimit:4;stroke-dasharray:none;stroke-dashoffset:0;stroke-opacity:1"
         id="path9314-2-4-4"
         sodipodi:sides="6"
         sodipodi:cx="106.74076"
         sodipodi:cy="71.69178"
         sodipodi:r1="56.66114"
         sodipodi:r2="49.076878"
         sodipodi:arg1="0"
         sodipodi:arg2="0.52359878"
         inkscape:flatsided="false"
         inkscape:rounded="0"
         inkscape:randomized="0"
         d="m 163.4019,71.69178 -14.15932,24.538439 -14.17125,24.531551 -28.33057,0.007 -28.330569,-0.007 L 64.238938,96.230219 50.07962,71.69178 64.238938,47.153341 78.410191,22.621793 l 28.330569,-0.0069 28.33057,0.0069 14.17125,24.531548 z"
         transform="matrix(0.14491489,-0.083,0.08366665,0.14376022,84.458056,103.05163)" />
      <path
         sodipodi:type="star"
         style="fill:none;fill-opacity:1;stroke:#008000;stroke-width:6.00004864;stroke-miterlimit:4;stroke-dasharray:none;stroke-dashoffset:0;stroke-opacity:1"
         id="path9314-2-0-6"
         sodipodi:sides="6"
         sodipodi:cx="106.74076"
         sodipodi:cy="71.69178"
         sodipodi:r1="56.66114"
         sodipodi:r2="49.076878"
         sodipodi:arg1="0"
         sodipodi:arg2="0.52359878"
         inkscape:flatsided="false"
         inkscape:rounded="0"
         inkscape:randomized="0"
         d="m 163.4019,71.69178 -14.15932,24.538439 -14.17125,24.531551 -28.33057,0.007 -28.330569,-0.007 L 64.238938,96.230219 50.07962,71.69178 64.238938,47.153341 78.410191,22.621793 l 28.330569,-0.0069 28.33057,0.0069 14.17125,24.531548 z"
         transform="matrix(0.14491489,-0.083,0.08366665,0.14376022,100.88014,103.05163)" />
      <path
         sodipodi:type="star"
         style="fill:#1e9a26;fill-opacity:1;stroke:#008000;stroke-width:6.00004864;stroke-miterlimit:4;stroke-dasharray:none;stroke-dashoffset:0;stroke-opacity:1"
         id="path9314-2-8-3"
         sodipodi:sides="6"
         sodipodi:cx="106.74076"
         sodipodi:cy="71.69178"
         sodipodi:r1="56.66114"
         sodipodi:r2="49.076878"
         sodipodi:arg1="0"
         sodipodi:arg2="0.52359878"
         inkscape:flatsided="false"
         inkscape:rounded="0"
         inkscape:randomized="0"
         d="m 163.4019,71.69178 -14.15932,24.538439 -14.17125,24.531551 -28.33057,0.007 -28.330569,-0.007 L 64.238938,96.230219 50.07962,71.69178 64.238938,47.153341 78.410191,22.621793 l 28.330569,-0.0069 28.33057,0.0069 14.17125,24.531548 z"
         transform="matrix(0.14491489,-0.083,0.08366665,0.14376022,117.30223,103.05163)" />
      <path
         sodipodi:type="star"
         style="fill:none;fill-opacity:1;stroke:#008000;stroke-width:6.00004864;stroke-miterlimit:4;stroke-dasharray:none;stroke-dashoffset:0;stroke-opacity:1"
         id="path9314-2-1-7-5"
         sodipodi:sides="6"
         sodipodi:cx="106.74076"
         sodipodi:cy="71.69178"
         sodipodi:r1="56.66114"
         sodipodi:r2="49.076878"
         sodipodi:arg1="0"
         sodipodi:arg2="0.52359878"
         inkscape:flatsided="false"
         inkscape:rounded="0"
         inkscape:randomized="0"
         d="m 163.4019,71.69178 -14.15932,24.538439 -14.17125,24.531551 -28.33057,0.007 -28.330569,-0.007 L 64.238938,96.230219 50.07962,71.69178 64.238938,47.153341 78.410191,22.621793 l 28.330569,-0.0069 28.33057,0.0069 14.17125,24.531548 z"
         transform="matrix(0.14491489,-0.083,0.08366665,0.14376022,92.669105,117.16025)" />
      <path
         sodipodi:type="star"
         style="fill:#1e9a26;fill-opacity:1;stroke:#008000;stroke-width:6.00004864;stroke-miterlimit:4;stroke-dasharray:none;stroke-dashoffset:0;stroke-opacity:1"
         id="path9314-2-0-6-1"
         sodipodi:sides="6"
         sodipodi:cx="106.74076"
         sodipodi:cy="71.69178"
         sodipodi:r1="56.66114"
         sodipodi:r2="49.076878"
         sodipodi:arg1="0"
         sodipodi:arg2="0.52359878"
         inkscape:flatsided="false"
         inkscape:rounded="0"
         inkscape:randomized="0"
         d="m 163.4019,71.69178 -14.15932,24.538439 -14.17125,24.531551 -28.33057,0.007 -28.330569,-0.007 L 64.238938,96.230219 50.07962,71.69178 64.238938,47.153341 78.410191,22.621793 l 28.330569,-0.0069 28.33057,0.0069 14.17125,24.531548 z"
         transform="matrix(0.14491489,-0.083,0.08366665,0.14376022,92.669097,32.508514)" />
      <path
         sodipodi:type="star"
         style="fill:none;fill-opacity:1;stroke:#008000;stroke-width:6.00004864;stroke-miterlimit:4;stroke-dasharray:none;stroke-dashoffset:0;stroke-opacity:1"
         id="path9314-2-8-3-3"
         sodipodi:sides="6"
         sodipodi:cx="106.74076"
         sodipodi:cy="71.69178"
         sodipodi:r1="56.66114"
         sodipodi:r2="49.076878"
         sodipodi:arg1="0"
         sodipodi:arg2="0.52359878"
         inkscape:flatsided="false"
         inkscape:rounded="0"
         inkscape:randomized="0"
         d="m 163.4019,71.69178 -14.15932,24.538439 -14.17125,24.531551 -28.33057,0.007 -28.330569,-0.007 L 64.238938,96.230219 50.07962,71.69178 64.238938,47.153341 78.410191,22.621793 l 28.330569,-0.0069 28.33057,0.0069 14.17125,24.531548 z"
         transform="matrix(0.14491489,-0.083,0.08366665,0.14376022,109.09119,32.508514)" />
      <path
         style="fill:#1e9a26;fill-opacity:1;stroke:#008000;stroke-width:1;stroke-miterlimit:4;stroke-dasharray:none;stroke-dashoffset:0;stroke-opacity:1"
         d="m 130.55772,24.549709 -4.10494,2.352443 -4.10611,2.350431 -4.10609,-2.350447 -4.10495,-2.352428 -0.001,-4.702875 0.001,-4.702875 z"
         id="path9314-2-1-7-4"
         inkscape:connector-curvature="0"
         sodipodi:nodetypes="cccccccc" />
      <path
         sodipodi:type="star"
         style="fill:none;fill-opacity:1;stroke:#008000;stroke-width:6.00004864;stroke-miterlimit:4;stroke-dasharray:none;stroke-dashoffset:0;stroke-opacity:1"
         id="path9314-2-7-4-7"
         sodipodi:sides="6"
         sodipodi:cx="106.74076"
         sodipodi:cy="71.69178"
         sodipodi:r1="56.66114"
         sodipodi:r2="49.076878"
         sodipodi:arg1="0"
         sodipodi:arg2="0.52359878"
         inkscape:flatsided="false"
         inkscape:rounded="0"
         inkscape:randomized="0"
         d="m 163.4019,71.69178 -14.15932,24.538439 -14.17125,24.531551 -28.33057,0.007 -28.330569,-0.007 L 64.238938,96.230219 50.07962,71.69178 64.238938,47.153341 78.410191,22.621793 l 28.330569,-0.0069 28.33057,0.0069 14.17125,24.531548 z"
         transform="matrix(0.14491489,-0.083,0.08366665,0.14376022,76.247016,32.508514)" />
      <path
         style="fill:#1e9a26;fill-opacity:1;stroke:#008000;stroke-width:1;stroke-miterlimit:4;stroke-dasharray:none;stroke-dashoffset:0;stroke-opacity:1"
         d="m 97.713548,24.549708 4.104932,2.352443 4.10611,2.350431 4.1061,-2.350447 4.10494,-2.352428 10e-4,-4.702874 -10e-4,-4.702875 z"
         id="path9314-2-1-7-4-8"
         inkscape:connector-curvature="0"
         sodipodi:nodetypes="cccccccc" />
      <path
         style="fill:none;fill-opacity:1;stroke:#008000;stroke-width:1;stroke-miterlimit:4;stroke-dasharray:none;stroke-dashoffset:0;stroke-opacity:1"
         d="m 155.19085,38.658332 -4.10494,2.352443 -4.1061,2.350431 -4.1061,-2.350447 -4.10495,-2.352428 -10e-4,-4.702874 10e-4,-4.702875 z"
         id="path9314-2-1-7-4-3"
         inkscape:connector-curvature="0"
         sodipodi:nodetypes="cccccccc" />
      <path
         style="fill:#6bc471;fill-opacity:0.83417089;stroke:#008000;stroke-width:1;stroke-miterlimit:4;stroke-dasharray:none;stroke-dashoffset:0;stroke-opacity:1"
         d="m 73.080421,38.658332 4.104932,2.352443 4.10611,2.350431 4.1061,-2.350447 4.10494,-2.352428 10e-4,-4.702874 -10e-4,-4.702875 z"
         id="path9314-2-1-7-4-8-3"
         inkscape:connector-curvature="0"
         sodipodi:nodetypes="cccccccc" />
      <path
         style="fill:#6bc471;fill-opacity:0.83417089;stroke:#008000;stroke-width:1;stroke-miterlimit:4;stroke-dasharray:none;stroke-dashoffset:0;stroke-opacity:1"
         d="m 73.08042,57.46983 0.0012,4.702875 -0.0012,4.702875 -4.104935,2.352444 -4.106107,2.350431 V 52.766956 l 4.106097,2.350447 z"
         id="path9314-2-4-4-15-1"
         inkscape:connector-curvature="0"
         sodipodi:nodetypes="cccccccc" />
      <path
         style="fill:#1e9a26;fill-opacity:1;stroke:#008000;stroke-width:1;stroke-miterlimit:4;stroke-dasharray:none;stroke-dashoffset:0;stroke-opacity:1"
         d="m 73.080422,85.687079 0.0012,4.702875 -0.0012,4.702874 -4.104936,2.352444 -4.106107,2.350431 V 80.984204 l 4.106097,2.350447 z"
         id="path9314-2-4-4-15-6"
         inkscape:connector-curvature="0"
         sodipodi:nodetypes="cccccccc" />
      <path
         style="fill:#6bc471;fill-opacity:0.83417089;stroke:#008000;stroke-width:1;stroke-miterlimit:4;stroke-dasharray:none;stroke-dashoffset:0;stroke-opacity:1"
         d="m 155.19086,57.469831 -10e-4,4.702875 10e-4,4.702874 4.10493,2.352444 4.10611,2.350432 v -18.8115 l -4.1061,2.350447 z"
         id="path9314-2-4-4-15-4-8"
         inkscape:connector-curvature="0"
         sodipodi:nodetypes="cccccccc" />
      <path
         style="fill:#1e9a26;fill-opacity:1;stroke:#008000;stroke-width:1;stroke-miterlimit:4;stroke-dasharray:none;stroke-dashoffset:0;stroke-opacity:1"
         d="m 155.19086,85.687074 -10e-4,4.702875 10e-4,4.702874 4.10493,2.352444 4.10611,2.350432 v -18.8115 l -4.1061,2.350447 z"
         id="path9314-2-4-4-15-4-5"
         inkscape:connector-curvature="0"
         sodipodi:nodetypes="cccccccc" />
      <path
         style="fill:#1e9a26;fill-opacity:1;stroke:#008000;stroke-width:1;stroke-miterlimit:4;stroke-dasharray:none;stroke-dashoffset:0;stroke-opacity:1"
         d="m 163.4019,99.795698 -4.10494,-2.35244 -4.10611,-2.35043 -4.1061,2.35044 -4.10494,2.35243 -10e-4,4.702882 10e-4,4.70287 z"
         id="path9314-2-1-7-4-8-5-3"
         inkscape:connector-curvature="0"
         sodipodi:nodetypes="cccccccc" />
      <path
         style="fill:#1e9a26;fill-opacity:1;stroke:#008000;stroke-width:1;stroke-miterlimit:4;stroke-dasharray:none;stroke-dashoffset:0;stroke-opacity:1"
         d="m 138.76877,113.90432 -4.10494,-2.35244 -4.10611,-2.35043 -4.1061,2.35044 -4.10494,2.35243 -0.001,4.70288 0.001,4.70287 z"
         id="path9314-2-1-7-4-8-5-3-2"
         inkscape:connector-curvature="0"
         sodipodi:nodetypes="cccccccc" />
      <path
         style="fill:#1e9a26;fill-opacity:1;stroke:#008000;stroke-width:1;stroke-miterlimit:4;stroke-dasharray:none;stroke-dashoffset:0;stroke-opacity:1"
         d="m 64.869383,99.795698 4.104932,-2.35244 4.10611,-2.350431 4.106101,2.350447 4.10494,2.352424 0.001,4.702882 -0.001,4.70287 z"
         id="path9314-2-1-7-4-8-5-8"
         inkscape:connector-curvature="0"
         sodipodi:nodetypes="cccccccc" />
      <path
         style="fill:none;fill-opacity:1;stroke:#008000;stroke-width:1;stroke-miterlimit:4;stroke-dasharray:none;stroke-dashoffset:0;stroke-opacity:1"
         d="m 89.50251,113.90433 4.104932,-2.35245 4.10611,-2.35043 4.106098,2.35045 4.10494,2.35243 0.001,4.70287 -0.001,4.70288 z"
         id="path9314-2-1-7-4-8-5-88"
         inkscape:connector-curvature="0"
         sodipodi:nodetypes="cccccccc" />
      <path
         style="fill:#6bc471;fill-opacity:0.53266332;stroke:#008000;stroke-width:2;stroke-miterlimit:4;stroke-dasharray:none;stroke-dashoffset:0;stroke-opacity:1"
         d="m 114.13564,15.143863 -16.421733,9.405628 -4.106228,2.350244 -4.105169,2.352828 -16.421729,9.405628 -4.106209,2.350243 -4.105177,2.352829 -10e-4,4.702553 10e-4,4.703072 v 18.811256 l -10e-4,4.703071 10e-4,4.702556 v 18.811772 l 16.422248,9.405627 4.104666,2.35231 4.106201,2.35076 16.42226,9.40563 4.10517,2.35231 4.1057,2.35076 4.1062,-2.35076 4.10517,-2.35231 16.42176,-9.40563 4.1062,-2.35076 4.10517,-2.35231 16.42174,-9.405627 V 80.983771 l 0.002,-4.702556 -0.002,-4.703071 V 52.766888 l 0.002,-4.703072 -0.002,-4.702553 -4.10467,-2.352829 -4.1062,-2.350243 -16.42224,-9.405628 -4.10466,-2.352828 -4.10623,-2.350244 z"
         id="path9314-2-85"
         inkscape:connector-curvature="0" />
    </g>
    <g
       id="g1072">
      <text
         xml:space="preserve"
         style="font-style:normal;font-weight:normal;font-size:20.99357224px;line-height:1.25;font-family:sans-serif;letter-spacing:0px;word-spacing:0px;fill:#000000;fill-opacity:1;stroke:none;stroke-width:0.52483928"
         x="71.318626"
         y="136.68402"
         id="text13482-7"><tspan
           sodipodi:role="line"
           id="tspan13480-4"
           x="71.318626"
           y="136.68402"
           style="font-style:normal;font-variant:normal;font-weight:normal;font-stretch:normal;font-size:33.58971405px;font-family:'Berlin Sans FB Demi';-inkscape-font-specification:'Berlin Sans FB Demi';fill:#000000;stroke-width:0.52483928">IRDS</tspan></text>
      <g
         transform="matrix(3.0706708,-0.78279132,0.78279132,3.0706708,-111.26405,-53.73246)"
         id="text4793-5"
         style="font-style:normal;font-weight:normal;font-size:10.58333302px;line-height:125%;font-family:sans-serif;letter-spacing:0px;word-spacing:0px;fill:#000000;fill-opacity:1;stroke:none;stroke-width:0.26458332px;stroke-linecap:butt;stroke-linejoin:miter;stroke-opacity:1"
         aria-label="BIRDS">
        <path
           sodipodi:nodetypes="czzzcsccsccccccccscscczzc"
           inkscape:connector-curvature="0"
           id="path4813"
           style="font-style:normal;font-variant:normal;font-weight:normal;font-stretch:normal;font-family:'Berlin Sans FB Demi';-inkscape-font-specification:'Berlin Sans FB Demi';stroke-width:0.26458332px"
           d="m 38.306766,67.635197 c 0.34411,-0.224522 0.958917,-0.296507 0.949219,-1.066135 -0.0097,-0.769628 -0.912807,-0.742824 -1.465299,-0.983823 -0.552493,-0.240998 -1.095815,-0.45656 -1.291029,-0.587445 -0.195214,-0.130885 -0.901572,-0.552453 -1.072538,-0.702352 0.113688,-0.01378 0.513319,-0.02067 1.198893,-0.02067 1.098985,0 1.741496,0.0034 1.927531,0.01033 0.847493,0.03101 1.472778,0.168811 1.875854,0.413412 0.53399,0.327284 0.800985,0.880222 0.800985,1.658813 0,0.203261 -0.06201,0.418579 -0.186035,0.645956 -0.08957,0.161919 -0.206706,0.323839 -0.3514,0.485758 -0.127469,0.141249 -0.191203,0.206705 -0.191203,0.19637 0,0.02411 0.04479,0.06201 0.134359,0.113689 0.241157,0.137803 0.430637,0.356567 0.568441,0.65629 0.124023,0.268717 0.186035,0.55466 0.186035,0.857829 l 2.8e-5,4.4e-5 c 0,0.633897 -0.198093,1.159274 -0.594279,1.576131 -0.451307,0.478869 -1.243679,0.718303 -2.377116,0.718303 -0.08613,0 -0.210151,-0.0017 -0.37207,-0.0052 h -0.366903 c -1.27124,0 -2.027438,-0.02584 -2.268595,-0.07752 -0.09991,-0.02067 1.385996,-0.772006 1.385996,-0.772006 0.300245,-0.140178 0.855582,-0.382924 1.318585,-0.636599 0.463002,-0.253676 1.270634,-0.421139 1.251242,-1.236077 -0.01939,-0.814937 -0.759776,-1.018166 -1.060701,-1.245098 z" />
      </g>
      <g
         transform="matrix(1.8752952,-1.5260585,1.5260585,1.8752952,-103.80667,31.443548)"
         id="text4793-5-7"
         style="font-style:normal;font-weight:normal;font-size:10.58333302px;line-height:125%;font-family:sans-serif;letter-spacing:0px;word-spacing:0px;fill:#000000;fill-opacity:1;stroke:none;stroke-width:0.26458332px;stroke-linecap:butt;stroke-linejoin:miter;stroke-opacity:1"
         aria-label="BIRDS">
        <path
           sodipodi:nodetypes="czzzcsccsccccccccscscczzc"
           inkscape:connector-curvature="0"
           id="path4813-8"
           style="font-style:normal;font-variant:normal;font-weight:normal;font-stretch:normal;font-family:'Berlin Sans FB Demi';-inkscape-font-specification:'Berlin Sans FB Demi';stroke-width:0.26458332px"
           d="m 38.306766,67.635197 c 0.34411,-0.224522 0.958917,-0.296507 0.949219,-1.066135 -0.0097,-0.769628 -0.912807,-0.742824 -1.465299,-0.983823 -0.552493,-0.240998 -1.095815,-0.45656 -1.291029,-0.587445 -0.195214,-0.130885 -0.901572,-0.552453 -1.072538,-0.702352 0.113688,-0.01378 0.513319,-0.02067 1.198893,-0.02067 1.098985,0 1.741496,0.0034 1.927531,0.01033 0.847493,0.03101 1.472778,0.168811 1.875854,0.413412 0.53399,0.327284 0.800985,0.880222 0.800985,1.658813 0,0.203261 -0.06201,0.418579 -0.186035,0.645956 -0.08957,0.161919 -0.206706,0.323839 -0.3514,0.485758 -0.127469,0.141249 -0.191203,0.206705 -0.191203,0.19637 0,0.02411 0.04479,0.06201 0.134359,0.113689 0.241157,0.137803 0.430637,0.356567 0.568441,0.65629 0.124023,0.268717 0.186035,0.55466 0.186035,0.857829 l 2.8e-5,4.4e-5 c 0,0.633897 -0.198093,1.159274 -0.594279,1.576131 -0.451307,0.478869 -1.243679,0.718303 -2.377116,0.718303 -0.08613,0 -0.210151,-0.0017 -0.37207,-0.0052 h -0.366903 c -1.27124,0 -2.027438,-0.02584 -2.268595,-0.07752 -0.09991,-0.02067 1.385996,-0.772006 1.385996,-0.772006 0.300245,-0.140178 0.855582,-0.382924 1.318585,-0.636599 0.463002,-0.253676 1.270634,-0.421139 1.251242,-1.236077 -0.01939,-0.814937 -0.759776,-1.018166 -1.060701,-1.245098 z" />
      </g>
      <g
         transform="matrix(1.405988,-0.63956468,0.63956468,1.405988,-9.8209978,19.32212)"
         id="text4793-5-7-9"
         style="font-style:normal;font-weight:normal;font-size:10.58333302px;line-height:125%;font-family:sans-serif;letter-spacing:0px;word-spacing:0px;fill:#000000;fill-opacity:1;stroke:none;stroke-width:0.26458332px;stroke-linecap:butt;stroke-linejoin:miter;stroke-opacity:1"
         aria-label="BIRDS">
        <path
           sodipodi:nodetypes="czzzcsccsccccccccscscczzc"
           inkscape:connector-curvature="0"
           id="path4813-8-8"
           style="font-style:normal;font-variant:normal;font-weight:normal;font-stretch:normal;font-family:'Berlin Sans FB Demi';-inkscape-font-specification:'Berlin Sans FB Demi';stroke-width:0.26458332px"
           d="m 38.306766,67.635197 c 0.34411,-0.224522 0.958917,-0.296507 0.949219,-1.066135 -0.0097,-0.769628 -0.912807,-0.742824 -1.465299,-0.983823 -0.552493,-0.240998 -1.095815,-0.45656 -1.291029,-0.587445 -0.195214,-0.130885 -0.901572,-0.552453 -1.072538,-0.702352 0.113688,-0.01378 0.513319,-0.02067 1.198893,-0.02067 1.098985,0 1.741496,0.0034 1.927531,0.01033 0.847493,0.03101 1.472778,0.168811 1.875854,0.413412 0.53399,0.327284 0.800985,0.880222 0.800985,1.658813 0,0.203261 -0.06201,0.418579 -0.186035,0.645956 -0.08957,0.161919 -0.206706,0.323839 -0.3514,0.485758 -0.127469,0.141249 -0.191203,0.206705 -0.191203,0.19637 0,0.02411 0.04479,0.06201 0.134359,0.113689 0.241157,0.137803 0.430637,0.356567 0.568441,0.65629 0.124023,0.268717 0.186035,0.55466 0.186035,0.857829 l 2.8e-5,4.4e-5 c 0,0.633897 -0.198093,1.159274 -0.594279,1.576131 -0.451307,0.478869 -1.243679,0.718303 -2.377116,0.718303 -0.08613,0 -0.210151,-0.0017 -0.37207,-0.0052 h -0.366903 c -1.27124,0 -2.027438,-0.02584 -2.268595,-0.07752 -0.09991,-0.02067 1.385996,-0.772006 1.385996,-0.772006 0.300245,-0.140178 0.855582,-0.382924 1.318585,-0.636599 0.463002,-0.253676 1.270634,-0.421139 1.251242,-1.236077 -0.01939,-0.814937 -0.759776,-1.018166 -1.060701,-1.245098 z" />
      </g>
      <g
         transform="matrix(0.8865013,-0.09377734,0.09377734,0.8865013,60.136759,34.527591)"
         id="text4793-5-7-9-5"
         style="font-style:normal;font-weight:normal;font-size:10.58333302px;line-height:125%;font-family:sans-serif;letter-spacing:0px;word-spacing:0px;fill:#000000;fill-opacity:1;stroke:none;stroke-width:0.26458332px;stroke-linecap:butt;stroke-linejoin:miter;stroke-opacity:1"
         aria-label="BIRDS">
        <path
           sodipodi:nodetypes="czzzcsccsccccccccscscczzc"
           inkscape:connector-curvature="0"
           id="path4813-8-8-4"
           style="font-style:normal;font-variant:normal;font-weight:normal;font-stretch:normal;font-family:'Berlin Sans FB Demi';-inkscape-font-specification:'Berlin Sans FB Demi';stroke-width:0.26458332px"
           d="m 38.681436,64.093337 c 0.34411,-0.224522 0.958917,-0.296507 0.949219,-1.066135 -0.0097,-0.769628 -0.912807,-0.742824 -1.465299,-0.983823 -0.552493,-0.240998 -1.095815,-0.45656 -1.291029,-0.587445 -0.195214,-0.130885 -0.901572,-0.552453 -1.072538,-0.702352 0.113688,-0.01378 0.513319,-0.02067 1.198893,-0.02067 1.098985,0 1.741496,0.0034 1.927531,0.01033 0.847493,0.03101 1.472778,0.168811 1.875854,0.413412 0.53399,0.327284 0.800985,0.880222 0.800985,1.658813 0,0.203261 -0.06201,0.418579 -0.186035,0.645956 -0.08957,0.161919 -0.206706,0.323839 -0.3514,0.485758 -0.127469,0.141249 -0.191203,0.206705 -0.191203,0.19637 0,0.02411 0.04479,0.06201 0.134359,0.113689 0.241157,0.137803 0.430637,0.356567 0.568441,0.65629 0.124023,0.268717 0.186035,0.55466 0.186035,0.857829 l 2.8e-5,4.4e-5 c 0,0.633897 -0.198093,1.159274 -0.594279,1.576131 -0.451307,0.478869 -1.243679,0.718303 -2.377116,0.718303 -0.08613,0 -0.210151,-0.0017 -0.37207,-0.0052 h -0.366903 c -1.27124,0 -2.027438,-0.02584 -2.268595,-0.07752 -0.09991,-0.02067 1.385996,-0.772006 1.385996,-0.772006 0.300245,-0.140178 0.855582,-0.382924 1.318585,-0.636599 0.463002,-0.253676 1.270634,-0.421139 1.251242,-1.236077 -0.01939,-0.814937 -0.759776,-1.018166 -1.060701,-1.245098 z" />
      </g>
    </g>
  </g>
</svg>
