<?xml version="1.0" encoding="UTF-8" standalone="no"?>
<!-- Created with Inkscape (http://www.inkscape.org/) -->

<svg
   xmlns:dc="http://purl.org/dc/elements/1.1/"
   xmlns:cc="http://creativecommons.org/ns#"
   xmlns:rdf="http://www.w3.org/1999/02/22-rdf-syntax-ns#"
   xmlns:svg="http://www.w3.org/2000/svg"
   xmlns="http://www.w3.org/2000/svg"
   xmlns:sodipodi="http://sodipodi.sourceforge.net/DTD/sodipodi-0.dtd"
   xmlns:inkscape="http://www.inkscape.org/namespaces/inkscape"
   width="210mm"
   height="297mm"
   viewBox="0 0 210 297"
   version="1.1"
   id="svg8"
   inkscape:version="0.92.3 (2405546, 2018-03-11)"
   sodipodi:docname="logo.svg"
   inkscape:export-filename="E:\Alejandro\Projects\BIRDS_notR\logo.png"
   inkscape:export-xdpi="300"
   inkscape:export-ydpi="300">
  <sodipodi:namedview
     id="base"
     pagecolor="#ffffff"
     bordercolor="#666666"
     borderopacity="1.0"
     inkscape:pageopacity="0.0"
     inkscape:pageshadow="2"
     inkscape:zoom="0.5744437"
     inkscape:cx="537.85085"
     inkscape:cy="651.40002"
     inkscape:document-units="mm"
     inkscape:current-layer="layer2"
     showgrid="false"
     inkscape:window-width="1536"
     inkscape:window-height="811"
     inkscape:window-x="-8"
     inkscape:window-y="1072"
     inkscape:window-maximized="1"
     showguides="true"
     inkscape:guide-bbox="true">
    <sodipodi:guide
       position="175.71529,203.81131"
       orientation="1,0"
       id="guide9297"
       inkscape:locked="false" />
    <sodipodi:guide
       position="114.13564,281.85614"
       orientation="1,0"
       id="guide13642"
       inkscape:locked="false" />
  </sodipodi:namedview>
  <defs
     id="defs2" />
  <metadata
     id="metadata5">
    <rdf:RDF>
      <cc:Work
         rdf:about="">
        <dc:format>image/svg+xml</dc:format>
        <dc:type
           rdf:resource="http://purl.org/dc/dcmitype/StillImage" />
        <dc:title></dc:title>
      </cc:Work>
    </rdf:RDF>
  </metadata>
  <g
     id="layer1"
     inkscape:groupmode="layer"
     inkscape:label="Layer 1"
     sodipodi:insensitive="true">
    <path
       sodipodi:type="star"
       style="fill:#6bc471;fill-opacity:0.83417089;stroke:#008000;stroke-width:6.00004864;stroke-miterlimit:4;stroke-dasharray:none;stroke-dashoffset:0;stroke-opacity:1"
       id="path9314-2"
       sodipodi:sides="6"
       sodipodi:cx="106.74076"
       sodipodi:cy="71.69178"
       sodipodi:r1="56.66114"
       sodipodi:r2="49.076878"
       sodipodi:arg1="0"
       sodipodi:arg2="0.52359878"
       inkscape:flatsided="false"
       inkscape:rounded="0"
       inkscape:randomized="0"
       d="m 163.4019,71.69178 -14.15932,24.538439 -14.17125,24.531551 -28.33057,0.007 -28.330569,-0.007 L 64.238938,96.230219 50.07962,71.69178 64.238938,47.153341 78.410191,22.621793 l 28.330569,-0.0069 28.33057,0.0069 14.17125,24.531548 z"
       transform="matrix(0.14491489,-0.083,0.08366665,0.14376022,51.613883,46.617138)" />
    <path
       sodipodi:type="star"
       style="fill:none;fill-opacity:1;stroke:#008000;stroke-width:6.00004864;stroke-miterlimit:4;stroke-dasharray:none;stroke-dashoffset:0;stroke-opacity:1"
       id="path9314-2-1"
       sodipodi:sides="6"
       sodipodi:cx="106.74076"
       sodipodi:cy="71.69178"
       sodipodi:r1="56.66114"
       sodipodi:r2="49.076878"
       sodipodi:arg1="0"
       sodipodi:arg2="0.52359878"
       inkscape:flatsided="false"
       inkscape:rounded="0"
       inkscape:randomized="0"
       d="m 163.4019,71.69178 -14.15932,24.538439 -14.17125,24.531551 -28.33057,0.007 -28.330569,-0.007 L 64.238938,96.230219 50.07962,71.69178 64.238938,47.153341 78.410191,22.621793 l 28.330569,-0.0069 28.33057,0.0069 14.17125,24.531548 z"
       transform="matrix(0.14491489,-0.083,0.08366665,0.14376022,68.035969,46.617138)" />
    <path
       sodipodi:type="star"
       style="fill:none;fill-opacity:1;stroke:#008000;stroke-width:6.00004864;stroke-miterlimit:4;stroke-dasharray:none;stroke-dashoffset:0;stroke-opacity:1"
       id="path9314-2-4"
       sodipodi:sides="6"
       sodipodi:cx="106.74076"
       sodipodi:cy="71.69178"
       sodipodi:r1="56.66114"
       sodipodi:r2="49.076878"
       sodipodi:arg1="0"
       sodipodi:arg2="0.52359878"
       inkscape:flatsided="false"
       inkscape:rounded="0"
       inkscape:randomized="0"
       d="m 163.4019,71.69178 -14.15932,24.538439 -14.17125,24.531551 -28.33057,0.007 -28.330569,-0.007 L 64.238938,96.230219 50.07962,71.69178 64.238938,47.153341 78.410191,22.621793 l 28.330569,-0.0069 28.33057,0.0069 14.17125,24.531548 z"
       transform="matrix(0.14491489,-0.083,0.08366665,0.14376022,84.458054,46.617138)" />
    <path
       sodipodi:type="star"
       style="fill:none;fill-opacity:1;stroke:#008000;stroke-width:6.00004864;stroke-miterlimit:4;stroke-dasharray:none;stroke-dashoffset:0;stroke-opacity:1"
       id="path9314-2-0"
       sodipodi:sides="6"
       sodipodi:cx="106.74076"
       sodipodi:cy="71.69178"
       sodipodi:r1="56.66114"
       sodipodi:r2="49.076878"
       sodipodi:arg1="0"
       sodipodi:arg2="0.52359878"
       inkscape:flatsided="false"
       inkscape:rounded="0"
       inkscape:randomized="0"
       d="m 163.4019,71.69178 -14.15932,24.538439 -14.17125,24.531551 -28.33057,0.007 -28.330569,-0.007 L 64.238938,96.230219 50.07962,71.69178 64.238938,47.153341 78.410191,22.621793 l 28.330569,-0.0069 28.33057,0.0069 14.17125,24.531548 z"
       transform="matrix(0.14491489,-0.083,0.08366665,0.14376022,100.88014,46.617138)" />
    <path
       sodipodi:type="star"
       style="fill:none;fill-opacity:1;stroke:#008000;stroke-width:6.00004864;stroke-miterlimit:4;stroke-dasharray:none;stroke-dashoffset:0;stroke-opacity:1"
       id="path9314-2-8"
       sodipodi:sides="6"
       sodipodi:cx="106.74076"
       sodipodi:cy="71.69178"
       sodipodi:r1="56.66114"
       sodipodi:r2="49.076878"
       sodipodi:arg1="0"
       sodipodi:arg2="0.52359878"
       inkscape:flatsided="false"
       inkscape:rounded="0"
       inkscape:randomized="0"
       d="m 163.4019,71.69178 -14.15932,24.538439 -14.17125,24.531551 -28.33057,0.007 -28.330569,-0.007 L 64.238938,96.230219 50.07962,71.69178 64.238938,47.153341 78.410191,22.621793 l 28.330569,-0.0069 28.33057,0.0069 14.17125,24.531548 z"
       transform="matrix(0.14491489,-0.083,0.08366665,0.14376022,117.30223,46.617138)" />
    <path
       sodipodi:type="star"
       style="fill:#6bc471;fill-opacity:0.83417089;stroke:#008000;stroke-width:6.00004864;stroke-miterlimit:4;stroke-dasharray:none;stroke-dashoffset:0;stroke-opacity:1"
       id="path9314-2-7"
       sodipodi:sides="6"
       sodipodi:cx="106.74076"
       sodipodi:cy="71.69178"
       sodipodi:r1="56.66114"
       sodipodi:r2="49.076878"
       sodipodi:arg1="0"
       sodipodi:arg2="0.52359878"
       inkscape:flatsided="false"
       inkscape:rounded="0"
       inkscape:randomized="0"
       d="m 163.4019,71.69178 -14.15932,24.538439 -14.17125,24.531551 -28.33057,0.007 -28.330569,-0.007 L 64.238938,96.230219 50.07962,71.69178 64.238938,47.153341 78.410191,22.621793 l 28.330569,-0.0069 28.33057,0.0069 14.17125,24.531548 z"
       transform="matrix(0.14491489,-0.083,0.08366665,0.14376022,133.72432,46.617138)" />
    <path
       sodipodi:type="star"
       style="fill:#6bc471;fill-opacity:0.83417089;stroke:#008000;stroke-width:6.00004864;stroke-miterlimit:4;stroke-dasharray:none;stroke-dashoffset:0;stroke-opacity:1"
       id="path9314-2-5"
       sodipodi:sides="6"
       sodipodi:cx="106.74076"
       sodipodi:cy="71.69178"
       sodipodi:r1="56.66114"
       sodipodi:r2="49.076878"
       sodipodi:arg1="0"
       sodipodi:arg2="0.52359878"
       inkscape:flatsided="false"
       inkscape:rounded="0"
       inkscape:randomized="0"
       d="m 163.4019,71.69178 -14.15932,24.538439 -14.17125,24.531551 -28.33057,0.007 -28.330569,-0.007 L 64.238938,96.230219 50.07962,71.69178 64.238938,47.153341 78.410191,22.621793 l 28.330569,-0.0069 28.33057,0.0069 14.17125,24.531548 z"
       transform="matrix(0.14491489,-0.083,0.08366665,0.14376022,59.824926,60.725762)" />
    <path
       sodipodi:type="star"
       style="fill:#6bc471;fill-opacity:0.83417089;stroke:#008000;stroke-width:6.00004864;stroke-miterlimit:4;stroke-dasharray:none;stroke-dashoffset:0;stroke-opacity:1"
       id="path9314-2-1-3"
       sodipodi:sides="6"
       sodipodi:cx="106.74076"
       sodipodi:cy="71.69178"
       sodipodi:r1="56.66114"
       sodipodi:r2="49.076878"
       sodipodi:arg1="0"
       sodipodi:arg2="0.52359878"
       inkscape:flatsided="false"
       inkscape:rounded="0"
       inkscape:randomized="0"
       d="m 163.4019,71.69178 -14.15932,24.538439 -14.17125,24.531551 -28.33057,0.007 -28.330569,-0.007 L 64.238938,96.230219 50.07962,71.69178 64.238938,47.153341 78.410191,22.621793 l 28.330569,-0.0069 28.33057,0.0069 14.17125,24.531548 z"
       transform="matrix(0.14491489,-0.083,0.08366665,0.14376022,76.247017,60.725762)" />
    <path
       sodipodi:type="star"
       style="fill:none;fill-opacity:1;stroke:#008000;stroke-width:6.00004864;stroke-miterlimit:4;stroke-dasharray:none;stroke-dashoffset:0;stroke-opacity:1"
       id="path9314-2-4-3"
       sodipodi:sides="6"
       sodipodi:cx="106.74076"
       sodipodi:cy="71.69178"
       sodipodi:r1="56.66114"
       sodipodi:r2="49.076878"
       sodipodi:arg1="0"
       sodipodi:arg2="0.52359878"
       inkscape:flatsided="false"
       inkscape:rounded="0"
       inkscape:randomized="0"
       d="m 163.4019,71.69178 -14.15932,24.538439 -14.17125,24.531551 -28.33057,0.007 -28.330569,-0.007 L 64.238938,96.230219 50.07962,71.69178 64.238938,47.153341 78.410191,22.621793 l 28.330569,-0.0069 28.33057,0.0069 14.17125,24.531548 z"
       transform="matrix(0.14491489,-0.083,0.08366665,0.14376022,92.669097,60.725762)" />
    <path
       sodipodi:type="star"
       style="fill:none;fill-opacity:1;stroke:#008000;stroke-width:6.00004864;stroke-miterlimit:4;stroke-dasharray:none;stroke-dashoffset:0;stroke-opacity:1"
       id="path9314-2-0-9"
       sodipodi:sides="6"
       sodipodi:cx="106.74076"
       sodipodi:cy="71.69178"
       sodipodi:r1="56.66114"
       sodipodi:r2="49.076878"
       sodipodi:arg1="0"
       sodipodi:arg2="0.52359878"
       inkscape:flatsided="false"
       inkscape:rounded="0"
       inkscape:randomized="0"
       d="m 163.4019,71.69178 -14.15932,24.538439 -14.17125,24.531551 -28.33057,0.007 -28.330569,-0.007 L 64.238938,96.230219 50.07962,71.69178 64.238938,47.153341 78.410191,22.621793 l 28.330569,-0.0069 28.33057,0.0069 14.17125,24.531548 z"
       transform="matrix(0.14491489,-0.083,0.08366665,0.14376022,109.09119,60.725762)" />
    <path
       sodipodi:type="star"
       style="fill:#6bc471;fill-opacity:0.83417089;stroke:#008000;stroke-width:6.00004864;stroke-miterlimit:4;stroke-dasharray:none;stroke-dashoffset:0;stroke-opacity:1"
       id="path9314-2-8-9"
       sodipodi:sides="6"
       sodipodi:cx="106.74076"
       sodipodi:cy="71.69178"
       sodipodi:r1="56.66114"
       sodipodi:r2="49.076878"
       sodipodi:arg1="0"
       sodipodi:arg2="0.52359878"
       inkscape:flatsided="false"
       inkscape:rounded="0"
       inkscape:randomized="0"
       d="m 163.4019,71.69178 -14.15932,24.538439 -14.17125,24.531551 -28.33057,0.007 -28.330569,-0.007 L 64.238938,96.230219 50.07962,71.69178 64.238938,47.153341 78.410191,22.621793 l 28.330569,-0.0069 28.33057,0.0069 14.17125,24.531548 z"
       transform="matrix(0.14491489,-0.083,0.08366665,0.14376022,125.51328,60.725762)" />
    <path
       sodipodi:type="star"
       style="fill:none;fill-opacity:1;stroke:#008000;stroke-width:6.00004864;stroke-miterlimit:4;stroke-dasharray:none;stroke-dashoffset:0;stroke-opacity:1"
       id="path9314-2-9"
       sodipodi:sides="6"
       sodipodi:cx="106.74076"
       sodipodi:cy="71.69178"
       sodipodi:r1="56.66114"
       sodipodi:r2="49.076878"
       sodipodi:arg1="0"
       sodipodi:arg2="0.52359878"
       inkscape:flatsided="false"
       inkscape:rounded="0"
       inkscape:randomized="0"
       d="m 163.4019,71.69178 -14.15932,24.538439 -14.17125,24.531551 -28.33057,0.007 -28.330569,-0.007 L 64.238938,96.230219 50.07962,71.69178 64.238938,47.153341 78.410191,22.621793 l 28.330569,-0.0069 28.33057,0.0069 14.17125,24.531548 z"
       transform="matrix(0.14491489,-0.083,0.08366665,0.14376022,51.613877,74.834386)" />
    <path
       sodipodi:type="star"
       style="fill:none;fill-opacity:1;stroke:#008000;stroke-width:6.00004864;stroke-miterlimit:4;stroke-dasharray:none;stroke-dashoffset:0;stroke-opacity:1"
       id="path9314-2-1-35"
       sodipodi:sides="6"
       sodipodi:cx="106.74076"
       sodipodi:cy="71.69178"
       sodipodi:r1="56.66114"
       sodipodi:r2="49.076878"
       sodipodi:arg1="0"
       sodipodi:arg2="0.52359878"
       inkscape:flatsided="false"
       inkscape:rounded="0"
       inkscape:randomized="0"
       d="m 163.4019,71.69178 -14.15932,24.538439 -14.17125,24.531551 -28.33057,0.007 -28.330569,-0.007 L 64.238938,96.230219 50.07962,71.69178 64.238938,47.153341 78.410191,22.621793 l 28.330569,-0.0069 28.33057,0.0069 14.17125,24.531548 z"
       transform="matrix(0.14491489,-0.083,0.08366665,0.14376022,68.035964,74.834386)" />
    <path
       sodipodi:type="star"
       style="fill:#6bc471;fill-opacity:0.83417089;stroke:#008000;stroke-width:6.00004864;stroke-miterlimit:4;stroke-dasharray:none;stroke-dashoffset:0;stroke-opacity:1"
       id="path9314-2-4-6"
       sodipodi:sides="6"
       sodipodi:cx="106.74076"
       sodipodi:cy="71.69178"
       sodipodi:r1="56.66114"
       sodipodi:r2="49.076878"
       sodipodi:arg1="0"
       sodipodi:arg2="0.52359878"
       inkscape:flatsided="false"
       inkscape:rounded="0"
       inkscape:randomized="0"
       d="m 163.4019,71.69178 -14.15932,24.538439 -14.17125,24.531551 -28.33057,0.007 -28.330569,-0.007 L 64.238938,96.230219 50.07962,71.69178 64.238938,47.153341 78.410191,22.621793 l 28.330569,-0.0069 28.33057,0.0069 14.17125,24.531548 z"
       transform="matrix(0.14491489,-0.083,0.08366665,0.14376022,84.458048,74.834386)" />
    <path
       sodipodi:type="star"
       style="fill:none;fill-opacity:1;stroke:#008000;stroke-width:6.00004864;stroke-miterlimit:4;stroke-dasharray:none;stroke-dashoffset:0;stroke-opacity:1"
       id="path9314-2-0-91"
       sodipodi:sides="6"
       sodipodi:cx="106.74076"
       sodipodi:cy="71.69178"
       sodipodi:r1="56.66114"
       sodipodi:r2="49.076878"
       sodipodi:arg1="0"
       sodipodi:arg2="0.52359878"
       inkscape:flatsided="false"
       inkscape:rounded="0"
       inkscape:randomized="0"
       d="m 163.4019,71.69178 -14.15932,24.538439 -14.17125,24.531551 -28.33057,0.007 -28.330569,-0.007 L 64.238938,96.230219 50.07962,71.69178 64.238938,47.153341 78.410191,22.621793 l 28.330569,-0.0069 28.33057,0.0069 14.17125,24.531548 z"
       transform="matrix(0.14491489,-0.083,0.08366665,0.14376022,100.88014,74.834386)" />
    <path
       sodipodi:type="star"
       style="fill:none;fill-opacity:1;stroke:#008000;stroke-width:6.00004864;stroke-miterlimit:4;stroke-dasharray:none;stroke-dashoffset:0;stroke-opacity:1"
       id="path9314-2-8-6"
       sodipodi:sides="6"
       sodipodi:cx="106.74076"
       sodipodi:cy="71.69178"
       sodipodi:r1="56.66114"
       sodipodi:r2="49.076878"
       sodipodi:arg1="0"
       sodipodi:arg2="0.52359878"
       inkscape:flatsided="false"
       inkscape:rounded="0"
       inkscape:randomized="0"
       d="m 163.4019,71.69178 -14.15932,24.538439 -14.17125,24.531551 -28.33057,0.007 -28.330569,-0.007 L 64.238938,96.230219 50.07962,71.69178 64.238938,47.153341 78.410191,22.621793 l 28.330569,-0.0069 28.33057,0.0069 14.17125,24.531548 z"
       transform="matrix(0.14491489,-0.083,0.08366665,0.14376022,117.30223,74.834386)" />
    <path
       sodipodi:type="star"
       style="fill:#6bc471;fill-opacity:0.83417089;stroke:#008000;stroke-width:6.00004864;stroke-miterlimit:4;stroke-dasharray:none;stroke-dashoffset:0;stroke-opacity:1"
       id="path9314-2-7-0"
       sodipodi:sides="6"
       sodipodi:cx="106.74076"
       sodipodi:cy="71.69178"
       sodipodi:r1="56.66114"
       sodipodi:r2="49.076878"
       sodipodi:arg1="0"
       sodipodi:arg2="0.52359878"
       inkscape:flatsided="false"
       inkscape:rounded="0"
       inkscape:randomized="0"
       d="m 163.4019,71.69178 -14.15932,24.538439 -14.17125,24.531551 -28.33057,0.007 -28.330569,-0.007 L 64.238938,96.230219 50.07962,71.69178 64.238938,47.153341 78.410191,22.621793 l 28.330569,-0.0069 28.33057,0.0069 14.17125,24.531548 z"
       transform="matrix(0.14491489,-0.083,0.08366665,0.14376022,133.72432,74.834386)" />
    <path
       sodipodi:type="star"
       style="fill:none;fill-opacity:1;stroke:#008000;stroke-width:6.00004864;stroke-miterlimit:4;stroke-dasharray:none;stroke-dashoffset:0;stroke-opacity:1"
       id="path9314-2-46"
       sodipodi:sides="6"
       sodipodi:cx="106.74076"
       sodipodi:cy="71.69178"
       sodipodi:r1="56.66114"
       sodipodi:r2="49.076878"
       sodipodi:arg1="0"
       sodipodi:arg2="0.52359878"
       inkscape:flatsided="false"
       inkscape:rounded="0"
       inkscape:randomized="0"
       d="m 163.4019,71.69178 -14.15932,24.538439 -14.17125,24.531551 -28.33057,0.007 -28.330569,-0.007 L 64.238938,96.230219 50.07962,71.69178 64.238938,47.153341 78.410191,22.621793 l 28.330569,-0.0069 28.33057,0.0069 14.17125,24.531548 z"
       transform="matrix(0.14491489,-0.083,0.08366665,0.14376022,59.824928,88.94301)" />
    <path
       sodipodi:type="star"
       style="fill:#6bc471;fill-opacity:0.83417089;stroke:#008000;stroke-width:6.00004864;stroke-miterlimit:4;stroke-dasharray:none;stroke-dashoffset:0;stroke-opacity:1"
       id="path9314-2-1-8"
       sodipodi:sides="6"
       sodipodi:cx="106.74076"
       sodipodi:cy="71.69178"
       sodipodi:r1="56.66114"
       sodipodi:r2="49.076878"
       sodipodi:arg1="0"
       sodipodi:arg2="0.52359878"
       inkscape:flatsided="false"
       inkscape:rounded="0"
       inkscape:randomized="0"
       d="m 163.4019,71.69178 -14.15932,24.538439 -14.17125,24.531551 -28.33057,0.007 -28.330569,-0.007 L 64.238938,96.230219 50.07962,71.69178 64.238938,47.153341 78.410191,22.621793 l 28.330569,-0.0069 28.33057,0.0069 14.17125,24.531548 z"
       transform="matrix(0.14491489,-0.083,0.08366665,0.14376022,76.247014,88.94301)" />
    <path
       sodipodi:type="star"
       style="fill:#6bc471;fill-opacity:0.83417089;stroke:#008000;stroke-width:6.00004864;stroke-miterlimit:4;stroke-dasharray:none;stroke-dashoffset:0;stroke-opacity:1"
       id="path9314-2-4-1"
       sodipodi:sides="6"
       sodipodi:cx="106.74076"
       sodipodi:cy="71.69178"
       sodipodi:r1="56.66114"
       sodipodi:r2="49.076878"
       sodipodi:arg1="0"
       sodipodi:arg2="0.52359878"
       inkscape:flatsided="false"
       inkscape:rounded="0"
       inkscape:randomized="0"
       d="m 163.4019,71.69178 -14.15932,24.538439 -14.17125,24.531551 -28.33057,0.007 -28.330569,-0.007 L 64.238938,96.230219 50.07962,71.69178 64.238938,47.153341 78.410191,22.621793 l 28.330569,-0.0069 28.33057,0.0069 14.17125,24.531548 z"
       transform="matrix(0.14491489,-0.083,0.08366665,0.14376022,92.669099,88.94301)" />
    <path
       sodipodi:type="star"
       style="fill:#1e9a26;fill-opacity:1;stroke:#008000;stroke-width:6.00004864;stroke-miterlimit:4;stroke-dasharray:none;stroke-dashoffset:0;stroke-opacity:1"
       id="path9314-2-0-2"
       sodipodi:sides="6"
       sodipodi:cx="106.74076"
       sodipodi:cy="71.69178"
       sodipodi:r1="56.66114"
       sodipodi:r2="49.076878"
       sodipodi:arg1="0"
       sodipodi:arg2="0.52359878"
       inkscape:flatsided="false"
       inkscape:rounded="0"
       inkscape:randomized="0"
       d="m 163.4019,71.69178 -14.15932,24.538439 -14.17125,24.531551 -28.33057,0.007 -28.330569,-0.007 L 64.238938,96.230219 50.07962,71.69178 64.238938,47.153341 78.410191,22.621793 l 28.330569,-0.0069 28.33057,0.0069 14.17125,24.531548 z"
       transform="matrix(0.14491489,-0.083,0.08366665,0.14376022,109.09118,88.94301)" />
    <path
       sodipodi:type="star"
       style="fill:#1e9a26;fill-opacity:1;stroke:#008000;stroke-width:6.00004864;stroke-miterlimit:4;stroke-dasharray:none;stroke-dashoffset:0;stroke-opacity:1"
       id="path9314-2-8-67"
       sodipodi:sides="6"
       sodipodi:cx="106.74076"
       sodipodi:cy="71.69178"
       sodipodi:r1="56.66114"
       sodipodi:r2="49.076878"
       sodipodi:arg1="0"
       sodipodi:arg2="0.52359878"
       inkscape:flatsided="false"
       inkscape:rounded="0"
       inkscape:randomized="0"
       d="m 163.4019,71.69178 -14.15932,24.538439 -14.17125,24.531551 -28.33057,0.007 -28.330569,-0.007 L 64.238938,96.230219 50.07962,71.69178 64.238938,47.153341 78.410191,22.621793 l 28.330569,-0.0069 28.33057,0.0069 14.17125,24.531548 z"
       transform="matrix(0.14491489,-0.083,0.08366665,0.14376022,125.51327,88.94301)" />
    <path
       sodipodi:type="star"
       style="fill:#1e9a26;fill-opacity:1;stroke:#008000;stroke-width:6.00004864;stroke-miterlimit:4;stroke-dasharray:none;stroke-dashoffset:0;stroke-opacity:1"
       id="path9314-2-1-7"
       sodipodi:sides="6"
       sodipodi:cx="106.74076"
       sodipodi:cy="71.69178"
       sodipodi:r1="56.66114"
       sodipodi:r2="49.076878"
       sodipodi:arg1="0"
       sodipodi:arg2="0.52359878"
       inkscape:flatsided="false"
       inkscape:rounded="0"
       inkscape:randomized="0"
       d="m 163.4019,71.69178 -14.15932,24.538439 -14.17125,24.531551 -28.33057,0.007 -28.330569,-0.007 L 64.238938,96.230219 50.07962,71.69178 64.238938,47.153341 78.410191,22.621793 l 28.330569,-0.0069 28.33057,0.0069 14.17125,24.531548 z"
       transform="matrix(0.14491489,-0.083,0.08366665,0.14376022,68.035972,103.05163)" />
    <path
       sodipodi:type="star"
       style="fill:none;fill-opacity:1;stroke:#008000;stroke-width:6.00004864;stroke-miterlimit:4;stroke-dasharray:none;stroke-dashoffset:0;stroke-opacity:1"
       id="path9314-2-4-4"
       sodipodi:sides="6"
       sodipodi:cx="106.74076"
       sodipodi:cy="71.69178"
       sodipodi:r1="56.66114"
       sodipodi:r2="49.076878"
       sodipodi:arg1="0"
       sodipodi:arg2="0.52359878"
       inkscape:flatsided="false"
       inkscape:rounded="0"
       inkscape:randomized="0"
       d="m 163.4019,71.69178 -14.15932,24.538439 -14.17125,24.531551 -28.33057,0.007 -28.330569,-0.007 L 64.238938,96.230219 50.07962,71.69178 64.238938,47.153341 78.410191,22.621793 l 28.330569,-0.0069 28.33057,0.0069 14.17125,24.531548 z"
       transform="matrix(0.14491489,-0.083,0.08366665,0.14376022,84.458056,103.05163)" />
    <path
       sodipodi:type="star"
       style="fill:none;fill-opacity:1;stroke:#008000;stroke-width:6.00004864;stroke-miterlimit:4;stroke-dasharray:none;stroke-dashoffset:0;stroke-opacity:1"
       id="path9314-2-0-6"
       sodipodi:sides="6"
       sodipodi:cx="106.74076"
       sodipodi:cy="71.69178"
       sodipodi:r1="56.66114"
       sodipodi:r2="49.076878"
       sodipodi:arg1="0"
       sodipodi:arg2="0.52359878"
       inkscape:flatsided="false"
       inkscape:rounded="0"
       inkscape:randomized="0"
       d="m 163.4019,71.69178 -14.15932,24.538439 -14.17125,24.531551 -28.33057,0.007 -28.330569,-0.007 L 64.238938,96.230219 50.07962,71.69178 64.238938,47.153341 78.410191,22.621793 l 28.330569,-0.0069 28.33057,0.0069 14.17125,24.531548 z"
       transform="matrix(0.14491489,-0.083,0.08366665,0.14376022,100.88014,103.05163)" />
    <path
       sodipodi:type="star"
       style="fill:#1e9a26;fill-opacity:1;stroke:#008000;stroke-width:6.00004864;stroke-miterlimit:4;stroke-dasharray:none;stroke-dashoffset:0;stroke-opacity:1"
       id="path9314-2-8-3"
       sodipodi:sides="6"
       sodipodi:cx="106.74076"
       sodipodi:cy="71.69178"
       sodipodi:r1="56.66114"
       sodipodi:r2="49.076878"
       sodipodi:arg1="0"
       sodipodi:arg2="0.52359878"
       inkscape:flatsided="false"
       inkscape:rounded="0"
       inkscape:randomized="0"
       d="m 163.4019,71.69178 -14.15932,24.538439 -14.17125,24.531551 -28.33057,0.007 -28.330569,-0.007 L 64.238938,96.230219 50.07962,71.69178 64.238938,47.153341 78.410191,22.621793 l 28.330569,-0.0069 28.33057,0.0069 14.17125,24.531548 z"
       transform="matrix(0.14491489,-0.083,0.08366665,0.14376022,117.30223,103.05163)" />
    <path
       sodipodi:type="star"
       style="fill:none;fill-opacity:1;stroke:#008000;stroke-width:6.00004864;stroke-miterlimit:4;stroke-dasharray:none;stroke-dashoffset:0;stroke-opacity:1"
       id="path9314-2-1-7-5"
       sodipodi:sides="6"
       sodipodi:cx="106.74076"
       sodipodi:cy="71.69178"
       sodipodi:r1="56.66114"
       sodipodi:r2="49.076878"
       sodipodi:arg1="0"
       sodipodi:arg2="0.52359878"
       inkscape:flatsided="false"
       inkscape:rounded="0"
       inkscape:randomized="0"
       d="m 163.4019,71.69178 -14.15932,24.538439 -14.17125,24.531551 -28.33057,0.007 -28.330569,-0.007 L 64.238938,96.230219 50.07962,71.69178 64.238938,47.153341 78.410191,22.621793 l 28.330569,-0.0069 28.33057,0.0069 14.17125,24.531548 z"
       transform="matrix(0.14491489,-0.083,0.08366665,0.14376022,92.669105,117.16025)" />
    <path
       sodipodi:type="star"
       style="fill:#1e9a26;fill-opacity:1;stroke:#008000;stroke-width:6.00004864;stroke-miterlimit:4;stroke-dasharray:none;stroke-dashoffset:0;stroke-opacity:1"
       id="path9314-2-0-6-1"
       sodipodi:sides="6"
       sodipodi:cx="106.74076"
       sodipodi:cy="71.69178"
       sodipodi:r1="56.66114"
       sodipodi:r2="49.076878"
       sodipodi:arg1="0"
       sodipodi:arg2="0.52359878"
       inkscape:flatsided="false"
       inkscape:rounded="0"
       inkscape:randomized="0"
       d="m 163.4019,71.69178 -14.15932,24.538439 -14.17125,24.531551 -28.33057,0.007 -28.330569,-0.007 L 64.238938,96.230219 50.07962,71.69178 64.238938,47.153341 78.410191,22.621793 l 28.330569,-0.0069 28.33057,0.0069 14.17125,24.531548 z"
       transform="matrix(0.14491489,-0.083,0.08366665,0.14376022,92.669097,32.508514)" />
    <path
       sodipodi:type="star"
       style="fill:none;fill-opacity:1;stroke:#008000;stroke-width:6.00004864;stroke-miterlimit:4;stroke-dasharray:none;stroke-dashoffset:0;stroke-opacity:1"
       id="path9314-2-8-3-3"
       sodipodi:sides="6"
       sodipodi:cx="106.74076"
       sodipodi:cy="71.69178"
       sodipodi:r1="56.66114"
       sodipodi:r2="49.076878"
       sodipodi:arg1="0"
       sodipodi:arg2="0.52359878"
       inkscape:flatsided="false"
       inkscape:rounded="0"
       inkscape:randomized="0"
       d="m 163.4019,71.69178 -14.15932,24.538439 -14.17125,24.531551 -28.33057,0.007 -28.330569,-0.007 L 64.238938,96.230219 50.07962,71.69178 64.238938,47.153341 78.410191,22.621793 l 28.330569,-0.0069 28.33057,0.0069 14.17125,24.531548 z"
       transform="matrix(0.14491489,-0.083,0.08366665,0.14376022,109.09119,32.508514)" />
    <path
       style="fill:#1e9a26;fill-opacity:1;stroke:#008000;stroke-width:1;stroke-miterlimit:4;stroke-dasharray:none;stroke-dashoffset:0;stroke-opacity:1"
       d="m 130.55772,24.549709 -4.10494,2.352443 -4.10611,2.350431 -4.10609,-2.350447 -4.10495,-2.352428 -0.001,-4.702875 0.001,-4.702875 z"
       id="path9314-2-1-7-4"
       inkscape:connector-curvature="0"
       sodipodi:nodetypes="cccccccc" />
    <path
       sodipodi:type="star"
       style="fill:none;fill-opacity:1;stroke:#008000;stroke-width:6.00004864;stroke-miterlimit:4;stroke-dasharray:none;stroke-dashoffset:0;stroke-opacity:1"
       id="path9314-2-7-4-7"
       sodipodi:sides="6"
       sodipodi:cx="106.74076"
       sodipodi:cy="71.69178"
       sodipodi:r1="56.66114"
       sodipodi:r2="49.076878"
       sodipodi:arg1="0"
       sodipodi:arg2="0.52359878"
       inkscape:flatsided="false"
       inkscape:rounded="0"
       inkscape:randomized="0"
       d="m 163.4019,71.69178 -14.15932,24.538439 -14.17125,24.531551 -28.33057,0.007 -28.330569,-0.007 L 64.238938,96.230219 50.07962,71.69178 64.238938,47.153341 78.410191,22.621793 l 28.330569,-0.0069 28.33057,0.0069 14.17125,24.531548 z"
       transform="matrix(0.14491489,-0.083,0.08366665,0.14376022,76.247016,32.508514)" />
    <path
       style="fill:#1e9a26;fill-opacity:1;stroke:#008000;stroke-width:1;stroke-miterlimit:4;stroke-dasharray:none;stroke-dashoffset:0;stroke-opacity:1"
       d="m 97.713548,24.549708 4.104932,2.352443 4.10611,2.350431 4.1061,-2.350447 4.10494,-2.352428 10e-4,-4.702874 -10e-4,-4.702875 z"
       id="path9314-2-1-7-4-8"
       inkscape:connector-curvature="0"
       sodipodi:nodetypes="cccccccc" />
    <path
       style="fill:none;fill-opacity:1;stroke:#008000;stroke-width:1;stroke-miterlimit:4;stroke-dasharray:none;stroke-dashoffset:0;stroke-opacity:1"
       d="m 155.19085,38.658332 -4.10494,2.352443 -4.1061,2.350431 -4.1061,-2.350447 -4.10495,-2.352428 -10e-4,-4.702874 10e-4,-4.702875 z"
       id="path9314-2-1-7-4-3"
       inkscape:connector-curvature="0"
       sodipodi:nodetypes="cccccccc" />
    <path
       style="fill:#6bc471;fill-opacity:0.83417089;stroke:#008000;stroke-width:1;stroke-miterlimit:4;stroke-dasharray:none;stroke-dashoffset:0;stroke-opacity:1"
       d="m 73.080421,38.658332 4.104932,2.352443 4.10611,2.350431 4.1061,-2.350447 4.10494,-2.352428 10e-4,-4.702874 -10e-4,-4.702875 z"
       id="path9314-2-1-7-4-8-3"
       inkscape:connector-curvature="0"
       sodipodi:nodetypes="cccccccc" />
    <path
       style="fill:#6bc471;fill-opacity:0.83417089;stroke:#008000;stroke-width:1;stroke-miterlimit:4;stroke-dasharray:none;stroke-dashoffset:0;stroke-opacity:1"
       d="m 73.08042,57.46983 0.0012,4.702875 -0.0012,4.702875 -4.104935,2.352444 -4.106107,2.350431 V 52.766956 l 4.106097,2.350447 z"
       id="path9314-2-4-4-15-1"
       inkscape:connector-curvature="0"
       sodipodi:nodetypes="cccccccc" />
    <path
       style="fill:#1e9a26;fill-opacity:1;stroke:#008000;stroke-width:1;stroke-miterlimit:4;stroke-dasharray:none;stroke-dashoffset:0;stroke-opacity:1"
       d="m 73.080422,85.687079 0.0012,4.702875 -0.0012,4.702874 -4.104936,2.352444 -4.106107,2.350431 V 80.984204 l 4.106097,2.350447 z"
       id="path9314-2-4-4-15-6"
       inkscape:connector-curvature="0"
       sodipodi:nodetypes="cccccccc" />
    <path
       style="fill:#6bc471;fill-opacity:0.83417089;stroke:#008000;stroke-width:1;stroke-miterlimit:4;stroke-dasharray:none;stroke-dashoffset:0;stroke-opacity:1"
       d="m 155.19086,57.469831 -10e-4,4.702875 10e-4,4.702874 4.10493,2.352444 4.10611,2.350432 v -18.8115 l -4.1061,2.350447 z"
       id="path9314-2-4-4-15-4-8"
       inkscape:connector-curvature="0"
       sodipodi:nodetypes="cccccccc" />
    <path
       style="fill:#1e9a26;fill-opacity:1;stroke:#008000;stroke-width:1;stroke-miterlimit:4;stroke-dasharray:none;stroke-dashoffset:0;stroke-opacity:1"
       d="m 155.19086,85.687074 -10e-4,4.702875 10e-4,4.702874 4.10493,2.352444 4.10611,2.350432 v -18.8115 l -4.1061,2.350447 z"
       id="path9314-2-4-4-15-4-5"
       inkscape:connector-curvature="0"
       sodipodi:nodetypes="cccccccc" />
    <path
       style="fill:#1e9a26;fill-opacity:1;stroke:#008000;stroke-width:1;stroke-miterlimit:4;stroke-dasharray:none;stroke-dashoffset:0;stroke-opacity:1"
       d="m 163.4019,99.795698 -4.10494,-2.35244 -4.10611,-2.35043 -4.1061,2.35044 -4.10494,2.35243 -10e-4,4.702882 10e-4,4.70287 z"
       id="path9314-2-1-7-4-8-5-3"
       inkscape:connector-curvature="0"
       sodipodi:nodetypes="cccccccc" />
    <path
       style="fill:#1e9a26;fill-opacity:1;stroke:#008000;stroke-width:1;stroke-miterlimit:4;stroke-dasharray:none;stroke-dashoffset:0;stroke-opacity:1"
       d="m 138.76877,113.90432 -4.10494,-2.35244 -4.10611,-2.35043 -4.1061,2.35044 -4.10494,2.35243 -0.001,4.70288 0.001,4.70287 z"
       id="path9314-2-1-7-4-8-5-3-2"
       inkscape:connector-curvature="0"
       sodipodi:nodetypes="cccccccc" />
    <path
       style="fill:#1e9a26;fill-opacity:1;stroke:#008000;stroke-width:1;stroke-miterlimit:4;stroke-dasharray:none;stroke-dashoffset:0;stroke-opacity:1"
       d="m 64.869383,99.795698 4.104932,-2.35244 4.10611,-2.350431 4.106101,2.350447 4.10494,2.352424 0.001,4.702882 -0.001,4.70287 z"
       id="path9314-2-1-7-4-8-5-8"
       inkscape:connector-curvature="0"
       sodipodi:nodetypes="cccccccc" />
    <path
       style="fill:none;fill-opacity:1;stroke:#008000;stroke-width:1;stroke-miterlimit:4;stroke-dasharray:none;stroke-dashoffset:0;stroke-opacity:1"
       d="m 89.50251,113.90433 4.104932,-2.35245 4.10611,-2.35043 4.106098,2.35045 4.10494,2.35243 0.001,4.70287 -0.001,4.70288 z"
       id="path9314-2-1-7-4-8-5-88"
       inkscape:connector-curvature="0"
       sodipodi:nodetypes="cccccccc" />
    <path
       style="fill:#6bc471;fill-opacity:0.53266332;stroke:#008000;stroke-width:1.39999998;stroke-miterlimit:4;stroke-dasharray:none;stroke-dashoffset:0;stroke-opacity:1"
       d="m 114.13564,15.143863 -16.421733,9.405628 -4.106228,2.350244 -4.105169,2.352828 -16.421729,9.405628 -4.106209,2.350243 -4.105177,2.352829 -10e-4,4.702553 10e-4,4.703072 v 18.811256 l -10e-4,4.703071 10e-4,4.702556 v 18.811772 l 16.422248,9.405627 4.104666,2.35231 4.106201,2.35076 16.42226,9.40563 4.10517,2.35231 4.1057,2.35076 4.1062,-2.35076 4.10517,-2.35231 16.42176,-9.40563 4.1062,-2.35076 4.10517,-2.35231 16.42174,-9.405627 V 80.983771 l 0.002,-4.702556 -0.002,-4.703071 V 52.766888 l 0.002,-4.703072 -0.002,-4.702553 -4.10467,-2.352829 -4.1062,-2.350243 -16.42224,-9.405628 -4.10466,-2.352828 -4.10623,-2.350244 z"
       id="path9314-2-85"
       inkscape:connector-curvature="0" />
  </g>
  <g
     inkscape:groupmode="layer"
     id="layer2"
     inkscape:label="text">
    <text
       xml:space="preserve"
       style="font-style:normal;font-weight:normal;font-size:16.01750946px;line-height:1.25;font-family:sans-serif;letter-spacing:0px;word-spacing:0px;fill:#000000;fill-opacity:1;stroke:none;stroke-width:0.40043771"
       x="79.43734"
       y="61.050926"
       id="text13482"><tspan
         sodipodi:role="line"
         id="tspan13480"
         x="79.43734"
         y="61.050926"
         style="font-style:normal;font-variant:normal;font-weight:normal;font-stretch:normal;font-size:25.62801361px;font-family:'Berlin Sans FB Demi';-inkscape-font-specification:'Berlin Sans FB Demi';fill:#000000;stroke-width:0.40043771">BIRDS</tspan></text>
    <text
       xml:space="preserve"
       style="font-style:normal;font-weight:normal;font-size:10.58333302px;line-height:1.25;font-family:sans-serif;text-align:center;letter-spacing:0px;word-spacing:0px;text-anchor:middle;fill:#000000;fill-opacity:1;stroke:none;stroke-width:0.26458332"
       x="114.03931"
       y="78.991714"
       id="text13486"><tspan
         sodipodi:role="line"
         id="tspan13484"
         x="114.03931"
         y="78.991714"
         style="font-style:normal;font-variant:normal;font-weight:normal;font-stretch:normal;font-family:'Berlin Sans FB';-inkscape-font-specification:'Berlin Sans FB';text-align:center;text-anchor:middle;stroke-width:0.26458332">Tools for</tspan><tspan
         sodipodi:role="line"
         x="114.03931"
         y="92.515762"
         style="font-style:normal;font-variant:normal;font-weight:normal;font-stretch:normal;font-family:'Berlin Sans FB';-inkscape-font-specification:'Berlin Sans FB';text-align:center;text-anchor:middle;stroke-width:0.26458332"
         id="tspan13640">Biodiversity</tspan><tspan
         sodipodi:role="line"
         x="114.03931"
         y="106.03981"
         style="font-style:normal;font-variant:normal;font-weight:normal;font-stretch:normal;font-family:'Berlin Sans FB';-inkscape-font-specification:'Berlin Sans FB';text-align:center;text-anchor:middle;stroke-width:0.26458332"
         id="tspan13488">Informatics</tspan><tspan
         sodipodi:role="line"
         x="114.03931"
         y="119.26898"
         style="font-style:normal;font-variant:normal;font-weight:normal;font-stretch:normal;font-family:'Berlin Sans FB';-inkscape-font-specification:'Berlin Sans FB';text-align:center;text-anchor:middle;stroke-width:0.26458332"
         id="tspan13494" /></text>
  </g>
</svg>
