<?xml version="1.0" encoding="UTF-8" standalone="no"?>
<!-- Created with Inkscape (http://www.inkscape.org/) -->

<svg
   xmlns:dc="http://purl.org/dc/elements/1.1/"
   xmlns:cc="http://creativecommons.org/ns#"
   xmlns:rdf="http://www.w3.org/1999/02/22-rdf-syntax-ns#"
   xmlns:svg="http://www.w3.org/2000/svg"
   xmlns="http://www.w3.org/2000/svg"
   xmlns:sodipodi="http://sodipodi.sourceforge.net/DTD/sodipodi-0.dtd"
   xmlns:inkscape="http://www.inkscape.org/namespaces/inkscape"
   width="100.54414mm"
   height="115.17377mm"
   viewBox="0 0 100.54414 115.17377"
   version="1.1"
   id="svg8"
   inkscape:version="0.92.3 (2405546, 2018-03-11)"
   sodipodi:docname="logo2.svg"
   inkscape:export-filename="Z:\GitHub\BIRDS\man\figures\logo.png"
   inkscape:export-xdpi="149.96469"
   inkscape:export-ydpi="149.96469">
  <defs
     id="defs2" />
  <sodipodi:namedview
     id="base"
     pagecolor="#ffffff"
     bordercolor="#666666"
     borderopacity="1.0"
     inkscape:pageopacity="0.0"
     inkscape:pageshadow="2"
     inkscape:zoom="2.8284272"
     inkscape:cx="12.708282"
     inkscape:cy="315.31635"
     inkscape:document-units="mm"
     inkscape:current-layer="layer1"
     showgrid="false"
     inkscape:window-width="1920"
     inkscape:window-height="1017"
     inkscape:window-x="-8"
     inkscape:window-y="-8"
     inkscape:window-maximized="1"
     fit-margin-top="0"
     fit-margin-left="0"
     fit-margin-right="0"
     fit-margin-bottom="0" />
  <metadata
     id="metadata5">
    <rdf:RDF>
      <cc:Work
         rdf:about="">
        <dc:format>image/svg+xml</dc:format>
        <dc:type
           rdf:resource="http://purl.org/dc/dcmitype/StillImage" />
        <dc:title />
      </cc:Work>
    </rdf:RDF>
  </metadata>
  <g
     inkscape:label="Layer 1"
     inkscape:groupmode="layer"
     id="layer1"
     transform="translate(-44.548616,-54.70327)">
    <path
       inkscape:connector-curvature="0"
       id="path9314-2-85-9"
       d="m 94.820693,55.855618 -16.42173,9.405628 -4.10623,2.350244 -4.10517,2.352828 -16.42173,9.405628 -4.10621,2.350243 -4.10518,2.352829 -10e-4,4.702553 10e-4,4.703072 V 112.2899 l -10e-4,4.70307 10e-4,4.70256 v 18.81177 l 16.42226,9.40563 4.10466,2.35231 4.1062,2.35076 16.42226,9.40563 4.10517,2.35231 4.1057,2.35076 4.1062,-2.35076 4.105177,-2.35231 16.42176,-9.40563 4.1062,-2.35076 4.10517,-2.35231 16.42174,-9.40563 v -18.81177 l 0.002,-4.70256 -0.002,-4.70307 V 93.478643 l 0.002,-4.703072 -0.002,-4.702553 -4.10467,-2.352829 -4.1062,-2.350243 -16.42224,-9.405628 -4.10466,-2.352828 -4.10623,-2.350244 z"
       style="fill:#ffffff;fill-opacity:1;stroke:none;stroke-width:2;stroke-miterlimit:4;stroke-dasharray:none;stroke-dashoffset:0;stroke-opacity:1"
       inkscape:export-xdpi="72"
       inkscape:export-ydpi="72" />
    <g
       id="layer1-8"
       inkscape:label="Layer 1"
       transform="translate(-19.314957,40.711812)">
      <path
         sodipodi:type="star"
         style="fill:#6bc471;fill-opacity:0.83417089;stroke:#008000;stroke-width:6.00004864;stroke-miterlimit:4;stroke-dasharray:none;stroke-dashoffset:0;stroke-opacity:1"
         id="path9314-2"
         sodipodi:sides="6"
         sodipodi:cx="106.74076"
         sodipodi:cy="71.69178"
         sodipodi:r1="56.66114"
         sodipodi:r2="49.076878"
         sodipodi:arg1="0"
         sodipodi:arg2="0.52359878"
         inkscape:flatsided="false"
         inkscape:rounded="0"
         inkscape:randomized="0"
         d="m 163.4019,71.69178 -14.15932,24.538439 -14.17125,24.531551 -28.33057,0.007 -28.330569,-0.007 L 64.238938,96.230219 50.07962,71.69178 64.238938,47.153341 78.410191,22.621793 l 28.330569,-0.0069 28.33057,0.0069 14.17125,24.531548 z"
         transform="matrix(0.14491489,-0.083,0.08366665,0.14376022,51.613883,46.617138)" />
      <path
         sodipodi:type="star"
         style="fill:none;fill-opacity:1;stroke:#008000;stroke-width:6.00004864;stroke-miterlimit:4;stroke-dasharray:none;stroke-dashoffset:0;stroke-opacity:1"
         id="path9314-2-1"
         sodipodi:sides="6"
         sodipodi:cx="106.74076"
         sodipodi:cy="71.69178"
         sodipodi:r1="56.66114"
         sodipodi:r2="49.076878"
         sodipodi:arg1="0"
         sodipodi:arg2="0.52359878"
         inkscape:flatsided="false"
         inkscape:rounded="0"
         inkscape:randomized="0"
         d="m 163.4019,71.69178 -14.15932,24.538439 -14.17125,24.531551 -28.33057,0.007 -28.330569,-0.007 L 64.238938,96.230219 50.07962,71.69178 64.238938,47.153341 78.410191,22.621793 l 28.330569,-0.0069 28.33057,0.0069 14.17125,24.531548 z"
         transform="matrix(0.14491489,-0.083,0.08366665,0.14376022,68.035969,46.617138)" />
      <path
         sodipodi:type="star"
         style="fill:none;fill-opacity:1;stroke:#008000;stroke-width:6.00004864;stroke-miterlimit:4;stroke-dasharray:none;stroke-dashoffset:0;stroke-opacity:1"
         id="path9314-2-4"
         sodipodi:sides="6"
         sodipodi:cx="106.74076"
         sodipodi:cy="71.69178"
         sodipodi:r1="56.66114"
         sodipodi:r2="49.076878"
         sodipodi:arg1="0"
         sodipodi:arg2="0.52359878"
         inkscape:flatsided="false"
         inkscape:rounded="0"
         inkscape:randomized="0"
         d="m 163.4019,71.69178 -14.15932,24.538439 -14.17125,24.531551 -28.33057,0.007 -28.330569,-0.007 L 64.238938,96.230219 50.07962,71.69178 64.238938,47.153341 78.410191,22.621793 l 28.330569,-0.0069 28.33057,0.0069 14.17125,24.531548 z"
         transform="matrix(0.14491489,-0.083,0.08366665,0.14376022,84.458054,46.617138)" />
      <path
         sodipodi:type="star"
         style="fill:none;fill-opacity:1;stroke:#008000;stroke-width:6.00004864;stroke-miterlimit:4;stroke-dasharray:none;stroke-dashoffset:0;stroke-opacity:1"
         id="path9314-2-0"
         sodipodi:sides="6"
         sodipodi:cx="106.74076"
         sodipodi:cy="71.69178"
         sodipodi:r1="56.66114"
         sodipodi:r2="49.076878"
         sodipodi:arg1="0"
         sodipodi:arg2="0.52359878"
         inkscape:flatsided="false"
         inkscape:rounded="0"
         inkscape:randomized="0"
         d="m 163.4019,71.69178 -14.15932,24.538439 -14.17125,24.531551 -28.33057,0.007 -28.330569,-0.007 L 64.238938,96.230219 50.07962,71.69178 64.238938,47.153341 78.410191,22.621793 l 28.330569,-0.0069 28.33057,0.0069 14.17125,24.531548 z"
         transform="matrix(0.14491489,-0.083,0.08366665,0.14376022,100.88014,46.617138)" />
      <path
         sodipodi:type="star"
         style="fill:none;fill-opacity:1;stroke:#008000;stroke-width:6.00004864;stroke-miterlimit:4;stroke-dasharray:none;stroke-dashoffset:0;stroke-opacity:1"
         id="path9314-2-8"
         sodipodi:sides="6"
         sodipodi:cx="106.74076"
         sodipodi:cy="71.69178"
         sodipodi:r1="56.66114"
         sodipodi:r2="49.076878"
         sodipodi:arg1="0"
         sodipodi:arg2="0.52359878"
         inkscape:flatsided="false"
         inkscape:rounded="0"
         inkscape:randomized="0"
         d="m 163.4019,71.69178 -14.15932,24.538439 -14.17125,24.531551 -28.33057,0.007 -28.330569,-0.007 L 64.238938,96.230219 50.07962,71.69178 64.238938,47.153341 78.410191,22.621793 l 28.330569,-0.0069 28.33057,0.0069 14.17125,24.531548 z"
         transform="matrix(0.14491489,-0.083,0.08366665,0.14376022,117.30223,46.617138)" />
      <path
         sodipodi:type="star"
         style="fill:#6bc471;fill-opacity:0.83417089;stroke:#008000;stroke-width:6.00004864;stroke-miterlimit:4;stroke-dasharray:none;stroke-dashoffset:0;stroke-opacity:1"
         id="path9314-2-7"
         sodipodi:sides="6"
         sodipodi:cx="106.74076"
         sodipodi:cy="71.69178"
         sodipodi:r1="56.66114"
         sodipodi:r2="49.076878"
         sodipodi:arg1="0"
         sodipodi:arg2="0.52359878"
         inkscape:flatsided="false"
         inkscape:rounded="0"
         inkscape:randomized="0"
         d="m 163.4019,71.69178 -14.15932,24.538439 -14.17125,24.531551 -28.33057,0.007 -28.330569,-0.007 L 64.238938,96.230219 50.07962,71.69178 64.238938,47.153341 78.410191,22.621793 l 28.330569,-0.0069 28.33057,0.0069 14.17125,24.531548 z"
         transform="matrix(0.14491489,-0.083,0.08366665,0.14376022,133.72432,46.617138)" />
      <path
         sodipodi:type="star"
         style="fill:#6bc471;fill-opacity:0.83417089;stroke:#008000;stroke-width:6.00004864;stroke-miterlimit:4;stroke-dasharray:none;stroke-dashoffset:0;stroke-opacity:1"
         id="path9314-2-5"
         sodipodi:sides="6"
         sodipodi:cx="106.74076"
         sodipodi:cy="71.69178"
         sodipodi:r1="56.66114"
         sodipodi:r2="49.076878"
         sodipodi:arg1="0"
         sodipodi:arg2="0.52359878"
         inkscape:flatsided="false"
         inkscape:rounded="0"
         inkscape:randomized="0"
         d="m 163.4019,71.69178 -14.15932,24.538439 -14.17125,24.531551 -28.33057,0.007 -28.330569,-0.007 L 64.238938,96.230219 50.07962,71.69178 64.238938,47.153341 78.410191,22.621793 l 28.330569,-0.0069 28.33057,0.0069 14.17125,24.531548 z"
         transform="matrix(0.14491489,-0.083,0.08366665,0.14376022,59.824926,60.725762)" />
      <path
         sodipodi:type="star"
         style="fill:#6bc471;fill-opacity:0.83417089;stroke:#008000;stroke-width:6.00004864;stroke-miterlimit:4;stroke-dasharray:none;stroke-dashoffset:0;stroke-opacity:1"
         id="path9314-2-1-3"
         sodipodi:sides="6"
         sodipodi:cx="106.74076"
         sodipodi:cy="71.69178"
         sodipodi:r1="56.66114"
         sodipodi:r2="49.076878"
         sodipodi:arg1="0"
         sodipodi:arg2="0.52359878"
         inkscape:flatsided="false"
         inkscape:rounded="0"
         inkscape:randomized="0"
         d="m 163.4019,71.69178 -14.15932,24.538439 -14.17125,24.531551 -28.33057,0.007 -28.330569,-0.007 L 64.238938,96.230219 50.07962,71.69178 64.238938,47.153341 78.410191,22.621793 l 28.330569,-0.0069 28.33057,0.0069 14.17125,24.531548 z"
         transform="matrix(0.14491489,-0.083,0.08366665,0.14376022,76.247017,60.725762)" />
      <path
         sodipodi:type="star"
         style="fill:none;fill-opacity:1;stroke:#008000;stroke-width:6.00004864;stroke-miterlimit:4;stroke-dasharray:none;stroke-dashoffset:0;stroke-opacity:1"
         id="path9314-2-4-3"
         sodipodi:sides="6"
         sodipodi:cx="106.74076"
         sodipodi:cy="71.69178"
         sodipodi:r1="56.66114"
         sodipodi:r2="49.076878"
         sodipodi:arg1="0"
         sodipodi:arg2="0.52359878"
         inkscape:flatsided="false"
         inkscape:rounded="0"
         inkscape:randomized="0"
         d="m 163.4019,71.69178 -14.15932,24.538439 -14.17125,24.531551 -28.33057,0.007 -28.330569,-0.007 L 64.238938,96.230219 50.07962,71.69178 64.238938,47.153341 78.410191,22.621793 l 28.330569,-0.0069 28.33057,0.0069 14.17125,24.531548 z"
         transform="matrix(0.14491489,-0.083,0.08366665,0.14376022,92.669097,60.725762)" />
      <path
         sodipodi:type="star"
         style="fill:none;fill-opacity:1;stroke:#008000;stroke-width:6.00004864;stroke-miterlimit:4;stroke-dasharray:none;stroke-dashoffset:0;stroke-opacity:1"
         id="path9314-2-0-9"
         sodipodi:sides="6"
         sodipodi:cx="106.74076"
         sodipodi:cy="71.69178"
         sodipodi:r1="56.66114"
         sodipodi:r2="49.076878"
         sodipodi:arg1="0"
         sodipodi:arg2="0.52359878"
         inkscape:flatsided="false"
         inkscape:rounded="0"
         inkscape:randomized="0"
         d="m 163.4019,71.69178 -14.15932,24.538439 -14.17125,24.531551 -28.33057,0.007 -28.330569,-0.007 L 64.238938,96.230219 50.07962,71.69178 64.238938,47.153341 78.410191,22.621793 l 28.330569,-0.0069 28.33057,0.0069 14.17125,24.531548 z"
         transform="matrix(0.14491489,-0.083,0.08366665,0.14376022,109.09119,60.725762)" />
      <path
         sodipodi:type="star"
         style="fill:#6bc471;fill-opacity:0.83417089;stroke:#008000;stroke-width:6.00004864;stroke-miterlimit:4;stroke-dasharray:none;stroke-dashoffset:0;stroke-opacity:1"
         id="path9314-2-8-9"
         sodipodi:sides="6"
         sodipodi:cx="106.74076"
         sodipodi:cy="71.69178"
         sodipodi:r1="56.66114"
         sodipodi:r2="49.076878"
         sodipodi:arg1="0"
         sodipodi:arg2="0.52359878"
         inkscape:flatsided="false"
         inkscape:rounded="0"
         inkscape:randomized="0"
         d="m 163.4019,71.69178 -14.15932,24.538439 -14.17125,24.531551 -28.33057,0.007 -28.330569,-0.007 L 64.238938,96.230219 50.07962,71.69178 64.238938,47.153341 78.410191,22.621793 l 28.330569,-0.0069 28.33057,0.0069 14.17125,24.531548 z"
         transform="matrix(0.14491489,-0.083,0.08366665,0.14376022,125.51328,60.725762)" />
      <path
         sodipodi:type="star"
         style="fill:none;fill-opacity:1;stroke:#008000;stroke-width:6.00004864;stroke-miterlimit:4;stroke-dasharray:none;stroke-dashoffset:0;stroke-opacity:1"
         id="path9314-2-9"
         sodipodi:sides="6"
         sodipodi:cx="106.74076"
         sodipodi:cy="71.69178"
         sodipodi:r1="56.66114"
         sodipodi:r2="49.076878"
         sodipodi:arg1="0"
         sodipodi:arg2="0.52359878"
         inkscape:flatsided="false"
         inkscape:rounded="0"
         inkscape:randomized="0"
         d="m 163.4019,71.69178 -14.15932,24.538439 -14.17125,24.531551 -28.33057,0.007 -28.330569,-0.007 L 64.238938,96.230219 50.07962,71.69178 64.238938,47.153341 78.410191,22.621793 l 28.330569,-0.0069 28.33057,0.0069 14.17125,24.531548 z"
         transform="matrix(0.14491489,-0.083,0.08366665,0.14376022,51.613877,74.834386)" />
      <path
         sodipodi:type="star"
         style="fill:none;fill-opacity:1;stroke:#008000;stroke-width:6.00004864;stroke-miterlimit:4;stroke-dasharray:none;stroke-dashoffset:0;stroke-opacity:1"
         id="path9314-2-1-35"
         sodipodi:sides="6"
         sodipodi:cx="106.74076"
         sodipodi:cy="71.69178"
         sodipodi:r1="56.66114"
         sodipodi:r2="49.076878"
         sodipodi:arg1="0"
         sodipodi:arg2="0.52359878"
         inkscape:flatsided="false"
         inkscape:rounded="0"
         inkscape:randomized="0"
         d="m 163.4019,71.69178 -14.15932,24.538439 -14.17125,24.531551 -28.33057,0.007 -28.330569,-0.007 L 64.238938,96.230219 50.07962,71.69178 64.238938,47.153341 78.410191,22.621793 l 28.330569,-0.0069 28.33057,0.0069 14.17125,24.531548 z"
         transform="matrix(0.14491489,-0.083,0.08366665,0.14376022,68.035964,74.834386)" />
      <path
         sodipodi:type="star"
         style="fill:#6bc471;fill-opacity:0.83417089;stroke:#008000;stroke-width:6.00004864;stroke-miterlimit:4;stroke-dasharray:none;stroke-dashoffset:0;stroke-opacity:1"
         id="path9314-2-4-6"
         sodipodi:sides="6"
         sodipodi:cx="106.74076"
         sodipodi:cy="71.69178"
         sodipodi:r1="56.66114"
         sodipodi:r2="49.076878"
         sodipodi:arg1="0"
         sodipodi:arg2="0.52359878"
         inkscape:flatsided="false"
         inkscape:rounded="0"
         inkscape:randomized="0"
         d="m 163.4019,71.69178 -14.15932,24.538439 -14.17125,24.531551 -28.33057,0.007 -28.330569,-0.007 L 64.238938,96.230219 50.07962,71.69178 64.238938,47.153341 78.410191,22.621793 l 28.330569,-0.0069 28.33057,0.0069 14.17125,24.531548 z"
         transform="matrix(0.14491489,-0.083,0.08366665,0.14376022,84.458048,74.834386)" />
      <path
         sodipodi:type="star"
         style="fill:none;fill-opacity:1;stroke:#008000;stroke-width:6.00004864;stroke-miterlimit:4;stroke-dasharray:none;stroke-dashoffset:0;stroke-opacity:1"
         id="path9314-2-0-91"
         sodipodi:sides="6"
         sodipodi:cx="106.74076"
         sodipodi:cy="71.69178"
         sodipodi:r1="56.66114"
         sodipodi:r2="49.076878"
         sodipodi:arg1="0"
         sodipodi:arg2="0.52359878"
         inkscape:flatsided="false"
         inkscape:rounded="0"
         inkscape:randomized="0"
         d="m 163.4019,71.69178 -14.15932,24.538439 -14.17125,24.531551 -28.33057,0.007 -28.330569,-0.007 L 64.238938,96.230219 50.07962,71.69178 64.238938,47.153341 78.410191,22.621793 l 28.330569,-0.0069 28.33057,0.0069 14.17125,24.531548 z"
         transform="matrix(0.14491489,-0.083,0.08366665,0.14376022,100.88014,74.834386)" />
      <path
         sodipodi:type="star"
         style="fill:none;fill-opacity:1;stroke:#008000;stroke-width:6.00004864;stroke-miterlimit:4;stroke-dasharray:none;stroke-dashoffset:0;stroke-opacity:1"
         id="path9314-2-8-6"
         sodipodi:sides="6"
         sodipodi:cx="106.74076"
         sodipodi:cy="71.69178"
         sodipodi:r1="56.66114"
         sodipodi:r2="49.076878"
         sodipodi:arg1="0"
         sodipodi:arg2="0.52359878"
         inkscape:flatsided="false"
         inkscape:rounded="0"
         inkscape:randomized="0"
         d="m 163.4019,71.69178 -14.15932,24.538439 -14.17125,24.531551 -28.33057,0.007 -28.330569,-0.007 L 64.238938,96.230219 50.07962,71.69178 64.238938,47.153341 78.410191,22.621793 l 28.330569,-0.0069 28.33057,0.0069 14.17125,24.531548 z"
         transform="matrix(0.14491489,-0.083,0.08366665,0.14376022,117.30223,74.834386)" />
      <path
         sodipodi:type="star"
         style="fill:#6bc471;fill-opacity:0.83417089;stroke:#008000;stroke-width:6.00004864;stroke-miterlimit:4;stroke-dasharray:none;stroke-dashoffset:0;stroke-opacity:1"
         id="path9314-2-7-0"
         sodipodi:sides="6"
         sodipodi:cx="106.74076"
         sodipodi:cy="71.69178"
         sodipodi:r1="56.66114"
         sodipodi:r2="49.076878"
         sodipodi:arg1="0"
         sodipodi:arg2="0.52359878"
         inkscape:flatsided="false"
         inkscape:rounded="0"
         inkscape:randomized="0"
         d="m 163.4019,71.69178 -14.15932,24.538439 -14.17125,24.531551 -28.33057,0.007 -28.330569,-0.007 L 64.238938,96.230219 50.07962,71.69178 64.238938,47.153341 78.410191,22.621793 l 28.330569,-0.0069 28.33057,0.0069 14.17125,24.531548 z"
         transform="matrix(0.14491489,-0.083,0.08366665,0.14376022,133.72432,74.834386)" />
      <path
         sodipodi:type="star"
         style="fill:none;fill-opacity:1;stroke:#008000;stroke-width:6.00004864;stroke-miterlimit:4;stroke-dasharray:none;stroke-dashoffset:0;stroke-opacity:1"
         id="path9314-2-46"
         sodipodi:sides="6"
         sodipodi:cx="106.74076"
         sodipodi:cy="71.69178"
         sodipodi:r1="56.66114"
         sodipodi:r2="49.076878"
         sodipodi:arg1="0"
         sodipodi:arg2="0.52359878"
         inkscape:flatsided="false"
         inkscape:rounded="0"
         inkscape:randomized="0"
         d="m 163.4019,71.69178 -14.15932,24.538439 -14.17125,24.531551 -28.33057,0.007 -28.330569,-0.007 L 64.238938,96.230219 50.07962,71.69178 64.238938,47.153341 78.410191,22.621793 l 28.330569,-0.0069 28.33057,0.0069 14.17125,24.531548 z"
         transform="matrix(0.14491489,-0.083,0.08366665,0.14376022,59.824928,88.94301)" />
      <path
         sodipodi:type="star"
         style="fill:#6bc471;fill-opacity:0.83417089;stroke:#008000;stroke-width:6.00004864;stroke-miterlimit:4;stroke-dasharray:none;stroke-dashoffset:0;stroke-opacity:1"
         id="path9314-2-1-8"
         sodipodi:sides="6"
         sodipodi:cx="106.74076"
         sodipodi:cy="71.69178"
         sodipodi:r1="56.66114"
         sodipodi:r2="49.076878"
         sodipodi:arg1="0"
         sodipodi:arg2="0.52359878"
         inkscape:flatsided="false"
         inkscape:rounded="0"
         inkscape:randomized="0"
         d="m 163.4019,71.69178 -14.15932,24.538439 -14.17125,24.531551 -28.33057,0.007 -28.330569,-0.007 L 64.238938,96.230219 50.07962,71.69178 64.238938,47.153341 78.410191,22.621793 l 28.330569,-0.0069 28.33057,0.0069 14.17125,24.531548 z"
         transform="matrix(0.14491489,-0.083,0.08366665,0.14376022,76.247014,88.94301)" />
      <path
         sodipodi:type="star"
         style="fill:#6bc471;fill-opacity:0.83417089;stroke:#008000;stroke-width:6.00004864;stroke-miterlimit:4;stroke-dasharray:none;stroke-dashoffset:0;stroke-opacity:1"
         id="path9314-2-4-1"
         sodipodi:sides="6"
         sodipodi:cx="106.74076"
         sodipodi:cy="71.69178"
         sodipodi:r1="56.66114"
         sodipodi:r2="49.076878"
         sodipodi:arg1="0"
         sodipodi:arg2="0.52359878"
         inkscape:flatsided="false"
         inkscape:rounded="0"
         inkscape:randomized="0"
         d="m 163.4019,71.69178 -14.15932,24.538439 -14.17125,24.531551 -28.33057,0.007 -28.330569,-0.007 L 64.238938,96.230219 50.07962,71.69178 64.238938,47.153341 78.410191,22.621793 l 28.330569,-0.0069 28.33057,0.0069 14.17125,24.531548 z"
         transform="matrix(0.14491489,-0.083,0.08366665,0.14376022,92.669099,88.94301)" />
      <path
         sodipodi:type="star"
         style="fill:#1e9a26;fill-opacity:1;stroke:#008000;stroke-width:6.00004864;stroke-miterlimit:4;stroke-dasharray:none;stroke-dashoffset:0;stroke-opacity:1"
         id="path9314-2-0-2"
         sodipodi:sides="6"
         sodipodi:cx="106.74076"
         sodipodi:cy="71.69178"
         sodipodi:r1="56.66114"
         sodipodi:r2="49.076878"
         sodipodi:arg1="0"
         sodipodi:arg2="0.52359878"
         inkscape:flatsided="false"
         inkscape:rounded="0"
         inkscape:randomized="0"
         d="m 163.4019,71.69178 -14.15932,24.538439 -14.17125,24.531551 -28.33057,0.007 -28.330569,-0.007 L 64.238938,96.230219 50.07962,71.69178 64.238938,47.153341 78.410191,22.621793 l 28.330569,-0.0069 28.33057,0.0069 14.17125,24.531548 z"
         transform="matrix(0.14491489,-0.083,0.08366665,0.14376022,109.09118,88.94301)" />
      <path
         sodipodi:type="star"
         style="fill:#1e9a26;fill-opacity:1;stroke:#008000;stroke-width:6.00004864;stroke-miterlimit:4;stroke-dasharray:none;stroke-dashoffset:0;stroke-opacity:1"
         id="path9314-2-8-67"
         sodipodi:sides="6"
         sodipodi:cx="106.74076"
         sodipodi:cy="71.69178"
         sodipodi:r1="56.66114"
         sodipodi:r2="49.076878"
         sodipodi:arg1="0"
         sodipodi:arg2="0.52359878"
         inkscape:flatsided="false"
         inkscape:rounded="0"
         inkscape:randomized="0"
         d="m 163.4019,71.69178 -14.15932,24.538439 -14.17125,24.531551 -28.33057,0.007 -28.330569,-0.007 L 64.238938,96.230219 50.07962,71.69178 64.238938,47.153341 78.410191,22.621793 l 28.330569,-0.0069 28.33057,0.0069 14.17125,24.531548 z"
         transform="matrix(0.14491489,-0.083,0.08366665,0.14376022,125.51327,88.94301)" />
      <path
         sodipodi:type="star"
         style="fill:#1e9a26;fill-opacity:1;stroke:#008000;stroke-width:6.00004864;stroke-miterlimit:4;stroke-dasharray:none;stroke-dashoffset:0;stroke-opacity:1"
         id="path9314-2-1-7"
         sodipodi:sides="6"
         sodipodi:cx="106.74076"
         sodipodi:cy="71.69178"
         sodipodi:r1="56.66114"
         sodipodi:r2="49.076878"
         sodipodi:arg1="0"
         sodipodi:arg2="0.52359878"
         inkscape:flatsided="false"
         inkscape:rounded="0"
         inkscape:randomized="0"
         d="m 163.4019,71.69178 -14.15932,24.538439 -14.17125,24.531551 -28.33057,0.007 -28.330569,-0.007 L 64.238938,96.230219 50.07962,71.69178 64.238938,47.153341 78.410191,22.621793 l 28.330569,-0.0069 28.33057,0.0069 14.17125,24.531548 z"
         transform="matrix(0.14491489,-0.083,0.08366665,0.14376022,68.035972,103.05163)" />
      <path
         sodipodi:type="star"
         style="fill:none;fill-opacity:1;stroke:#008000;stroke-width:6.00004864;stroke-miterlimit:4;stroke-dasharray:none;stroke-dashoffset:0;stroke-opacity:1"
         id="path9314-2-4-4"
         sodipodi:sides="6"
         sodipodi:cx="106.74076"
         sodipodi:cy="71.69178"
         sodipodi:r1="56.66114"
         sodipodi:r2="49.076878"
         sodipodi:arg1="0"
         sodipodi:arg2="0.52359878"
         inkscape:flatsided="false"
         inkscape:rounded="0"
         inkscape:randomized="0"
         d="m 163.4019,71.69178 -14.15932,24.538439 -14.17125,24.531551 -28.33057,0.007 -28.330569,-0.007 L 64.238938,96.230219 50.07962,71.69178 64.238938,47.153341 78.410191,22.621793 l 28.330569,-0.0069 28.33057,0.0069 14.17125,24.531548 z"
         transform="matrix(0.14491489,-0.083,0.08366665,0.14376022,84.458056,103.05163)" />
      <path
         sodipodi:type="star"
         style="fill:none;fill-opacity:1;stroke:#008000;stroke-width:6.00004864;stroke-miterlimit:4;stroke-dasharray:none;stroke-dashoffset:0;stroke-opacity:1"
         id="path9314-2-0-6"
         sodipodi:sides="6"
         sodipodi:cx="106.74076"
         sodipodi:cy="71.69178"
         sodipodi:r1="56.66114"
         sodipodi:r2="49.076878"
         sodipodi:arg1="0"
         sodipodi:arg2="0.52359878"
         inkscape:flatsided="false"
         inkscape:rounded="0"
         inkscape:randomized="0"
         d="m 163.4019,71.69178 -14.15932,24.538439 -14.17125,24.531551 -28.33057,0.007 -28.330569,-0.007 L 64.238938,96.230219 50.07962,71.69178 64.238938,47.153341 78.410191,22.621793 l 28.330569,-0.0069 28.33057,0.0069 14.17125,24.531548 z"
         transform="matrix(0.14491489,-0.083,0.08366665,0.14376022,100.88014,103.05163)" />
      <path
         sodipodi:type="star"
         style="fill:#1e9a26;fill-opacity:1;stroke:#008000;stroke-width:6.00004864;stroke-miterlimit:4;stroke-dasharray:none;stroke-dashoffset:0;stroke-opacity:1"
         id="path9314-2-8-3"
         sodipodi:sides="6"
         sodipodi:cx="106.74076"
         sodipodi:cy="71.69178"
         sodipodi:r1="56.66114"
         sodipodi:r2="49.076878"
         sodipodi:arg1="0"
         sodipodi:arg2="0.52359878"
         inkscape:flatsided="false"
         inkscape:rounded="0"
         inkscape:randomized="0"
         d="m 163.4019,71.69178 -14.15932,24.538439 -14.17125,24.531551 -28.33057,0.007 -28.330569,-0.007 L 64.238938,96.230219 50.07962,71.69178 64.238938,47.153341 78.410191,22.621793 l 28.330569,-0.0069 28.33057,0.0069 14.17125,24.531548 z"
         transform="matrix(0.14491489,-0.083,0.08366665,0.14376022,117.30223,103.05163)" />
      <path
         sodipodi:type="star"
         style="fill:none;fill-opacity:1;stroke:#008000;stroke-width:6.00004864;stroke-miterlimit:4;stroke-dasharray:none;stroke-dashoffset:0;stroke-opacity:1"
         id="path9314-2-1-7-5"
         sodipodi:sides="6"
         sodipodi:cx="106.74076"
         sodipodi:cy="71.69178"
         sodipodi:r1="56.66114"
         sodipodi:r2="49.076878"
         sodipodi:arg1="0"
         sodipodi:arg2="0.52359878"
         inkscape:flatsided="false"
         inkscape:rounded="0"
         inkscape:randomized="0"
         d="m 163.4019,71.69178 -14.15932,24.538439 -14.17125,24.531551 -28.33057,0.007 -28.330569,-0.007 L 64.238938,96.230219 50.07962,71.69178 64.238938,47.153341 78.410191,22.621793 l 28.330569,-0.0069 28.33057,0.0069 14.17125,24.531548 z"
         transform="matrix(0.14491489,-0.083,0.08366665,0.14376022,92.669105,117.16025)" />
      <path
         sodipodi:type="star"
         style="fill:#1e9a26;fill-opacity:1;stroke:#008000;stroke-width:6.00004864;stroke-miterlimit:4;stroke-dasharray:none;stroke-dashoffset:0;stroke-opacity:1"
         id="path9314-2-0-6-1"
         sodipodi:sides="6"
         sodipodi:cx="106.74076"
         sodipodi:cy="71.69178"
         sodipodi:r1="56.66114"
         sodipodi:r2="49.076878"
         sodipodi:arg1="0"
         sodipodi:arg2="0.52359878"
         inkscape:flatsided="false"
         inkscape:rounded="0"
         inkscape:randomized="0"
         d="m 163.4019,71.69178 -14.15932,24.538439 -14.17125,24.531551 -28.33057,0.007 -28.330569,-0.007 L 64.238938,96.230219 50.07962,71.69178 64.238938,47.153341 78.410191,22.621793 l 28.330569,-0.0069 28.33057,0.0069 14.17125,24.531548 z"
         transform="matrix(0.14491489,-0.083,0.08366665,0.14376022,92.669097,32.508514)" />
      <path
         sodipodi:type="star"
         style="fill:none;fill-opacity:1;stroke:#008000;stroke-width:6.00004864;stroke-miterlimit:4;stroke-dasharray:none;stroke-dashoffset:0;stroke-opacity:1"
         id="path9314-2-8-3-3"
         sodipodi:sides="6"
         sodipodi:cx="106.74076"
         sodipodi:cy="71.69178"
         sodipodi:r1="56.66114"
         sodipodi:r2="49.076878"
         sodipodi:arg1="0"
         sodipodi:arg2="0.52359878"
         inkscape:flatsided="false"
         inkscape:rounded="0"
         inkscape:randomized="0"
         d="m 163.4019,71.69178 -14.15932,24.538439 -14.17125,24.531551 -28.33057,0.007 -28.330569,-0.007 L 64.238938,96.230219 50.07962,71.69178 64.238938,47.153341 78.410191,22.621793 l 28.330569,-0.0069 28.33057,0.0069 14.17125,24.531548 z"
         transform="matrix(0.14491489,-0.083,0.08366665,0.14376022,109.09119,32.508514)" />
      <path
         style="fill:#1e9a26;fill-opacity:1;stroke:#008000;stroke-width:1;stroke-miterlimit:4;stroke-dasharray:none;stroke-dashoffset:0;stroke-opacity:1"
         d="m 130.55772,24.549709 -4.10494,2.352443 -4.10611,2.350431 -4.10609,-2.350447 -4.10495,-2.352428 -0.001,-4.702875 0.001,-4.702875 z"
         id="path9314-2-1-7-4"
         inkscape:connector-curvature="0"
         sodipodi:nodetypes="cccccccc" />
      <path
         sodipodi:type="star"
         style="fill:none;fill-opacity:1;stroke:#008000;stroke-width:6.00004864;stroke-miterlimit:4;stroke-dasharray:none;stroke-dashoffset:0;stroke-opacity:1"
         id="path9314-2-7-4-7"
         sodipodi:sides="6"
         sodipodi:cx="106.74076"
         sodipodi:cy="71.69178"
         sodipodi:r1="56.66114"
         sodipodi:r2="49.076878"
         sodipodi:arg1="0"
         sodipodi:arg2="0.52359878"
         inkscape:flatsided="false"
         inkscape:rounded="0"
         inkscape:randomized="0"
         d="m 163.4019,71.69178 -14.15932,24.538439 -14.17125,24.531551 -28.33057,0.007 -28.330569,-0.007 L 64.238938,96.230219 50.07962,71.69178 64.238938,47.153341 78.410191,22.621793 l 28.330569,-0.0069 28.33057,0.0069 14.17125,24.531548 z"
         transform="matrix(0.14491489,-0.083,0.08366665,0.14376022,76.247016,32.508514)" />
      <path
         style="fill:#1e9a26;fill-opacity:1;stroke:#008000;stroke-width:1;stroke-miterlimit:4;stroke-dasharray:none;stroke-dashoffset:0;stroke-opacity:1"
         d="m 97.713548,24.549708 4.104932,2.352443 4.10611,2.350431 4.1061,-2.350447 4.10494,-2.352428 10e-4,-4.702874 -10e-4,-4.702875 z"
         id="path9314-2-1-7-4-8"
         inkscape:connector-curvature="0"
         sodipodi:nodetypes="cccccccc" />
      <path
         style="fill:none;fill-opacity:1;stroke:#008000;stroke-width:1;stroke-miterlimit:4;stroke-dasharray:none;stroke-dashoffset:0;stroke-opacity:1"
         d="m 155.19085,38.658332 -4.10494,2.352443 -4.1061,2.350431 -4.1061,-2.350447 -4.10495,-2.352428 -10e-4,-4.702874 10e-4,-4.702875 z"
         id="path9314-2-1-7-4-3"
         inkscape:connector-curvature="0"
         sodipodi:nodetypes="cccccccc" />
      <path
         style="fill:#6bc471;fill-opacity:0.83417089;stroke:#008000;stroke-width:1;stroke-miterlimit:4;stroke-dasharray:none;stroke-dashoffset:0;stroke-opacity:1"
         d="m 73.080421,38.658332 4.104932,2.352443 4.10611,2.350431 4.1061,-2.350447 4.10494,-2.352428 10e-4,-4.702874 -10e-4,-4.702875 z"
         id="path9314-2-1-7-4-8-3"
         inkscape:connector-curvature="0"
         sodipodi:nodetypes="cccccccc" />
      <path
         style="fill:#6bc471;fill-opacity:0.83417089;stroke:#008000;stroke-width:1;stroke-miterlimit:4;stroke-dasharray:none;stroke-dashoffset:0;stroke-opacity:1"
         d="m 73.08042,57.46983 0.0012,4.702875 -0.0012,4.702875 -4.104935,2.352444 -4.106107,2.350431 V 52.766956 l 4.106097,2.350447 z"
         id="path9314-2-4-4-15-1"
         inkscape:connector-curvature="0"
         sodipodi:nodetypes="cccccccc" />
      <path
         style="fill:#1e9a26;fill-opacity:1;stroke:#008000;stroke-width:1;stroke-miterlimit:4;stroke-dasharray:none;stroke-dashoffset:0;stroke-opacity:1"
         d="m 73.080422,85.687079 0.0012,4.702875 -0.0012,4.702874 -4.104936,2.352444 -4.106107,2.350431 V 80.984204 l 4.106097,2.350447 z"
         id="path9314-2-4-4-15-6"
         inkscape:connector-curvature="0"
         sodipodi:nodetypes="cccccccc" />
      <path
         style="fill:#6bc471;fill-opacity:0.83417089;stroke:#008000;stroke-width:1;stroke-miterlimit:4;stroke-dasharray:none;stroke-dashoffset:0;stroke-opacity:1"
         d="m 155.19086,57.469831 -10e-4,4.702875 10e-4,4.702874 4.10493,2.352444 4.10611,2.350432 v -18.8115 l -4.1061,2.350447 z"
         id="path9314-2-4-4-15-4-8"
         inkscape:connector-curvature="0"
         sodipodi:nodetypes="cccccccc" />
      <path
         style="fill:#1e9a26;fill-opacity:1;stroke:#008000;stroke-width:1;stroke-miterlimit:4;stroke-dasharray:none;stroke-dashoffset:0;stroke-opacity:1"
         d="m 155.19086,85.687074 -10e-4,4.702875 10e-4,4.702874 4.10493,2.352444 4.10611,2.350432 v -18.8115 l -4.1061,2.350447 z"
         id="path9314-2-4-4-15-4-5"
         inkscape:connector-curvature="0"
         sodipodi:nodetypes="cccccccc" />
      <path
         style="fill:#1e9a26;fill-opacity:1;stroke:#008000;stroke-width:1;stroke-miterlimit:4;stroke-dasharray:none;stroke-dashoffset:0;stroke-opacity:1"
         d="m 163.4019,99.795698 -4.10494,-2.35244 -4.10611,-2.35043 -4.1061,2.35044 -4.10494,2.35243 -10e-4,4.702882 10e-4,4.70287 z"
         id="path9314-2-1-7-4-8-5-3"
         inkscape:connector-curvature="0"
         sodipodi:nodetypes="cccccccc" />
      <path
         style="fill:#1e9a26;fill-opacity:1;stroke:#008000;stroke-width:1;stroke-miterlimit:4;stroke-dasharray:none;stroke-dashoffset:0;stroke-opacity:1"
         d="m 138.76877,113.90432 -4.10494,-2.35244 -4.10611,-2.35043 -4.1061,2.35044 -4.10494,2.35243 -0.001,4.70288 0.001,4.70287 z"
         id="path9314-2-1-7-4-8-5-3-2"
         inkscape:connector-curvature="0"
         sodipodi:nodetypes="cccccccc" />
      <path
         style="fill:#1e9a26;fill-opacity:1;stroke:#008000;stroke-width:1;stroke-miterlimit:4;stroke-dasharray:none;stroke-dashoffset:0;stroke-opacity:1"
         d="m 64.869383,99.795698 4.104932,-2.35244 4.10611,-2.350431 4.106101,2.350447 4.10494,2.352424 0.001,4.702882 -0.001,4.70287 z"
         id="path9314-2-1-7-4-8-5-8"
         inkscape:connector-curvature="0"
         sodipodi:nodetypes="cccccccc" />
      <path
         style="fill:none;fill-opacity:1;stroke:#008000;stroke-width:1;stroke-miterlimit:4;stroke-dasharray:none;stroke-dashoffset:0;stroke-opacity:1"
         d="m 89.50251,113.90433 4.104932,-2.35245 4.10611,-2.35043 4.106098,2.35045 4.10494,2.35243 0.001,4.70287 -0.001,4.70288 z"
         id="path9314-2-1-7-4-8-5-88"
         inkscape:connector-curvature="0"
         sodipodi:nodetypes="cccccccc" />
      <path
         style="fill:#6bc471;fill-opacity:0.53266332;stroke:#008000;stroke-width:2;stroke-miterlimit:4;stroke-dasharray:none;stroke-dashoffset:0;stroke-opacity:1"
         d="m 114.13564,15.143863 -16.421733,9.405628 -4.106228,2.350244 -4.105169,2.352828 -16.421729,9.405628 -4.106209,2.350243 -4.105177,2.352829 -10e-4,4.702553 10e-4,4.703072 v 18.811256 l -10e-4,4.703071 10e-4,4.702556 v 18.811772 l 16.422248,9.405627 4.104666,2.35231 4.106201,2.35076 16.42226,9.40563 4.10517,2.35231 4.1057,2.35076 4.1062,-2.35076 4.10517,-2.35231 16.42176,-9.40563 4.1062,-2.35076 4.10517,-2.35231 16.42174,-9.405627 V 80.983771 l 0.002,-4.702556 -0.002,-4.703071 V 52.766888 l 0.002,-4.703072 -0.002,-4.702553 -4.10467,-2.352829 -4.1062,-2.350243 -16.42224,-9.405628 -4.10466,-2.352828 -4.10623,-2.350244 z"
         id="path9314-2-85"
         inkscape:connector-curvature="0" />
    </g>
    <text
       id="text13482-7"
       y="136.68402"
       x="71.318626"
       style="font-style:normal;font-weight:normal;font-size:20.99357224px;line-height:1.25;font-family:sans-serif;letter-spacing:0px;word-spacing:0px;fill:#000000;fill-opacity:1;stroke:none;stroke-width:0.52483928"
       xml:space="preserve"><tspan
         style="font-style:normal;font-variant:normal;font-weight:normal;font-stretch:normal;font-size:33.58971405px;font-family:'Berlin Sans FB Demi';-inkscape-font-specification:'Berlin Sans FB Demi';fill:#000000;stroke-width:0.52483928"
         y="136.68402"
         x="71.318626"
         id="tspan13480-4"
         sodipodi:role="line">IRDS</tspan></text>
    <path
       d="m 59.39898,125.43779 c 0.817459,-1.01342 2.600068,-1.83198 1.817766,-4.14216 -0.782284,-2.3102 -2.454874,-2.19104 -5.051394,-2.26544 -2.596508,-0.0744 -4.780316,0.0791 -8.713625,-0.84078 0.329174,-0.15277 1.526926,-0.56458 3.593264,-1.23541 3.312365,-1.07535 5.252235,-1.69379 5.81973,-1.85494 2.584704,-0.7358 4.604169,-0.93231 6.058387,-0.58948 1.929708,0.46393 3.518889,2.16053 4.037331,4.21594 0.518451,2.0554 -0.121492,3.34212 -0.89661,4.71584 3.694384,1.62163 3.918043,3.13779 4.344634,4.30854 0.426903,1.17065 0.464552,3.416 -0.321667,5.06009 -0.891685,1.88492 -3.045625,3.38191 -6.461828,4.49097 -0.79593,0.24541 -1.400717,0.43742 -2.232378,0.70741 -3.831543,1.2439 -6.136029,1.90596 -6.913449,1.98616 2.658553,-3.52863 5.388662,-4.30201 7.47263,-6.51063 2.083958,-2.2086 2.718371,-2.89399 1.862506,-5.33125 -0.855874,-2.43726 -3.28625,-2.32534 -4.415299,-2.71487 z"
       style="font-style:normal;font-variant:normal;font-weight:normal;font-stretch:normal;font-size:10.58333302px;line-height:125%;font-family:'Berlin Sans FB Demi';-inkscape-font-specification:'Berlin Sans FB Demi';letter-spacing:0px;word-spacing:0px;fill:#000000;fill-opacity:1;stroke:none;stroke-width:0.83843201px;stroke-linecap:butt;stroke-linejoin:miter;stroke-opacity:1"
       id="path4813-2-5"
       inkscape:connector-curvature="0"
       sodipodi:nodetypes="czzcscczczcccczzc" />
    <path
       d="m 22.051028,91.283054 c -0.191151,-0.97803 0.207196,-2.42555 -1.531566,-3.104958 -1.738752,-0.67944 -2.492679,0.359178 -3.815028,1.843778 -1.322348,1.48459 -2.307896,2.83965 -4.783969,4.69103 0.07261,-0.26809 0.421223,-1.17264 1.04585,-2.71363 1.001291,-2.47024 1.594322,-3.911338 1.779396,-4.323188 0.841852,-1.87669 1.721294,-3.15663 2.638337,-3.839782 1.222171,-0.902088 2.998818,-0.997585 4.458363,-0.289059 1.459548,0.708521 1.898237,1.717141 2.321331,2.847811 2.769522,-1.36582 3.767954,-0.75015 4.663966,-0.4235 0.896239,0.32603 2.23014,1.41018 2.806162,2.680498 0.66519,1.45072 0.481445,3.44992 -0.551228,5.99759 -0.24821,0.58718 -0.43357,1.03607 -0.684976,1.65629 -1.158226,2.85742 -1.90528,4.533616 -2.241163,5.028586 -0.75803,-3.295396 0.133418,-5.275786 -0.134224,-7.584446 -0.267638,-2.30867 -0.35675,-3.0179 -2.20619,-3.7168 -1.849428,-0.69893 -2.980808,0.78013 -3.765066,1.24977 z"
       style="font-style:normal;font-variant:normal;font-weight:normal;font-stretch:normal;font-size:10.58333302px;line-height:125%;font-family:'Berlin Sans FB Demi';-inkscape-font-specification:'Berlin Sans FB Demi';letter-spacing:0px;word-spacing:0px;fill:#000000;fill-opacity:1;stroke:none;stroke-width:0.64171451px;stroke-linecap:butt;stroke-linejoin:miter;stroke-opacity:1"
       id="path4813-2-2"
       inkscape:connector-curvature="0"
       sodipodi:nodetypes="czzcscczczcccczzc" />
    <path
       d="m 85.669998,96.178531 c -0.650017,-0.492804 -0.870833,-0.806427 -2.577547,-1.201197 -1.706715,-0.394772 -4.888368,-2.915171 -7.654341,-4.569165 -2.765964,-1.653997 -3.394722,-1.809826 -4.623398,-2.366761 2.45455,-0.627577 4.997738,0.796301 6.629741,1.48275 1.632014,0.686447 2.929592,1.527838 4.339229,1.958196 1.40964,0.430357 1.635711,0.100704 2.510555,0.560207 0.373226,-0.985724 1.520707,-1.718137 2.26982,-2.658355 0.749111,-0.940218 1.231034,-2.130092 1.983211,-3.363992 0.752178,-1.233902 1.846602,-4.486105 3.644,-5.273491 -1.09553,1.88095 -1.313532,3.888585 -1.937985,5.559754 -0.624452,1.67117 -2.385389,6.792675 -3.418927,7.755043 -1.033538,0.962368 -0.941678,1.402639 -1.16433,2.116994 z"
       style="font-style:normal;font-variant:normal;font-weight:normal;font-stretch:normal;font-size:10.58333302px;line-height:125%;font-family:'Berlin Sans FB Demi';-inkscape-font-specification:'Berlin Sans FB Demi';letter-spacing:0px;word-spacing:0px;fill:#000000;fill-opacity:1;stroke:none;stroke-width:0.52527142px;stroke-linecap:butt;stroke-linejoin:miter;stroke-opacity:1"
       id="path4813-2-2-5-1"
       inkscape:connector-curvature="0"
       sodipodi:nodetypes="czzczzczzczzcc" />
    <path
       d="m 114.33225,78.88814 c -0.13815,-0.32257 -0.15397,-0.48682 -0.70804,-0.99762 -0.55408,-0.510795 -1.20723,-2.13018 -1.88935,-3.337182 -0.68212,-1.207002 -0.88403,-1.399064 -1.22487,-1.868761 1.05123,0.287723 1.69903,1.36128 2.1631,1.965225 0.46408,0.603949 0.77014,1.194657 1.20557,1.655536 0.43544,0.460884 0.59011,0.385743 0.81941,0.743718 0.3493,-0.289109 0.93418,-0.318738 1.41434,-0.510833 0.48015,-0.192101 0.91355,-0.534399 1.45735,-0.835644 0.5438,-0.301246 1.64507,-1.284239 2.48462,-1.196112 -0.80987,0.470087 -1.31862,1.174281 -1.90772,1.666191 -0.5891,0.491909 -2.33737,2.031932 -2.92858,2.171782 -0.5912,0.13985 -0.65056,0.324 -0.88582,0.54369 z"
       style="font-style:normal;font-variant:normal;font-weight:normal;font-stretch:normal;font-size:10.58333302px;line-height:125%;font-family:'Berlin Sans FB Demi';-inkscape-font-specification:'Berlin Sans FB Demi';letter-spacing:0px;word-spacing:0px;fill:#000000;fill-opacity:1;stroke:none;stroke-width:0.22596763px;stroke-linecap:butt;stroke-linejoin:miter;stroke-opacity:1"
       id="path4813-2-2-5-1-9"
       inkscape:connector-curvature="0"
       sodipodi:nodetypes="czzczzczzczzcc" />
    <path
       d="m 29.020527,75.515462 c -0.191151,-0.97803 0.504842,-3.58307 -1.134691,-4.49402 -1.639533,-0.91095 -2.624971,-0.571566 -4.74107,1.839076 -2.116099,2.410642 -1.977166,3.175081 -4.254802,6.084794 0.07261,-0.26809 0.421223,-1.17264 1.04585,-2.71363 1.001291,-2.47024 1.594322,-3.911338 1.779396,-4.323188 0.841852,-1.87669 1.721294,-3.15663 2.638337,-3.839782 1.222171,-0.902088 2.998818,-0.997585 4.458363,-0.289059 1.459548,0.708521 1.898237,1.717141 2.321331,2.847811 2.769522,-1.36582 3.767954,-0.75015 4.663966,-0.4235 0.896239,0.32603 2.23014,1.41018 2.806162,2.680498 0.66519,1.45072 0.481445,3.44992 -0.551228,5.99759 -0.24821,0.58718 -0.43357,1.03607 -0.684976,1.65629 -1.158226,2.85742 -1.90528,4.533616 -2.241163,5.028586 0.498741,-3.626125 0.713899,-4.95685 1.122547,-7.452154 0.345148,-2.107559 -0.02602,-4.340817 -1.875461,-5.039717 -1.849428,-0.69893 -4.568308,1.970755 -5.352566,2.440395 z"
       style="font-style:normal;font-variant:normal;font-weight:normal;font-stretch:normal;font-size:10.58333302px;line-height:125%;font-family:'Berlin Sans FB Demi';-inkscape-font-specification:'Berlin Sans FB Demi';letter-spacing:0px;word-spacing:0px;fill:#000000;fill-opacity:1;stroke:none;stroke-width:0.64171451px;stroke-linecap:butt;stroke-linejoin:miter;stroke-opacity:1"
       id="path4813-2-2-1"
       inkscape:connector-curvature="0"
       sodipodi:nodetypes="czzcscczczccccszcc" />
    <path
       d="m 68.480825,101.1336 c -0.191151,-0.97803 0.504842,-3.583073 -1.134691,-4.494023 -1.639533,-0.91095 -2.624971,-0.103844 -4.74107,2.306798 -2.116099,2.410645 -1.977166,2.707355 -4.254802,5.617075 0.07261,-0.26809 0.421223,-1.17264 1.04585,-2.71363 1.001291,-2.470243 1.594322,-3.911341 1.779396,-4.323191 0.841852,-1.87669 1.721294,-3.15663 2.638337,-3.839782 1.222171,-0.902088 2.998818,-0.997585 4.458363,-0.289059 1.459548,0.708521 1.898237,1.717141 2.321331,2.847811 2.769522,-1.36582 3.767954,-0.75015 4.663966,-0.4235 0.896239,0.32603 2.23014,1.41018 2.806162,2.680498 0.66519,1.45072 0.481445,3.449923 -0.551228,5.997593 -0.24821,0.58718 -0.43357,1.03607 -0.684976,1.65629 -1.158226,2.85742 -1.90528,4.53361 -2.241163,5.02858 0.498741,-3.62612 0.713899,-4.95685 1.122547,-7.45215 0.345148,-2.10756 -0.02602,-4.340818 -1.875461,-5.039718 -1.849428,-0.69893 -4.568308,1.970758 -5.352566,2.440398 z"
       style="font-style:normal;font-variant:normal;font-weight:normal;font-stretch:normal;font-size:10.58333302px;line-height:125%;font-family:'Berlin Sans FB Demi';-inkscape-font-specification:'Berlin Sans FB Demi';letter-spacing:0px;word-spacing:0px;fill:#000000;fill-opacity:1;stroke:none;stroke-width:0.64171451px;stroke-linecap:butt;stroke-linejoin:miter;stroke-opacity:1"
       id="path4813-2-2-1-4"
       inkscape:connector-curvature="0"
       sodipodi:nodetypes="czzcscczczccccszcc" />
    <path
       d="m 98.402434,78.657948 c -0.46178,-0.461894 -1.03642,-2.133101 -2.26125,-2.028599 -1.22484,0.104504 -1.4654,0.903934 -1.7341,2.989004 -0.26871,2.085073 -0.0846,2.19559 -0.25855,4.611148 -0.0586,-0.172347 -0.19998,-0.791769 -0.42413,-1.858258 -0.35931,-1.709605 -0.56409,-2.710215 -0.61413,-3.001883 -0.22884,-1.328512 -0.21892,-2.346276 0.0298,-3.05328 0.33454,-0.937692 1.2657,-1.639641 2.31859,-1.788366 1.05291,-0.148729 1.66048,0.239233 2.30423,0.69927 1.00628,-1.755989 1.77447,-1.786496 2.381206,-1.936699 0.60665,-0.15062 1.72865,-0.04912 2.50665,0.430905 0.89249,0.545496 1.52402,1.699846 1.89459,3.463036 0.0799,0.410109 0.1433,0.722023 0.23351,1.151268 0.41563,1.977561 0.62267,3.162367 0.62112,3.55441 -1.05549,-2.154282 -1.42536,-2.956621 -2.1161,-4.463026 -0.58341,-1.272325 -1.60232,-2.350929 -2.86372,-2.054312 -1.261396,0.296589 -1.763106,2.743064 -2.017746,3.28538 z"
       style="font-style:normal;font-variant:normal;font-weight:normal;font-stretch:normal;font-size:10.58333302px;line-height:125%;font-family:'Berlin Sans FB Demi';-inkscape-font-specification:'Berlin Sans FB Demi';letter-spacing:0px;word-spacing:0px;fill:#000000;fill-opacity:1;stroke:none;stroke-width:0.42058295px;stroke-linecap:butt;stroke-linejoin:miter;stroke-opacity:1"
       id="path4813-2-2-1-7"
       inkscape:connector-curvature="0"
       sodipodi:nodetypes="czzcscczczccccszcc" />
    <path
       d="m 105.94718,89.648831 c -0.0928,-0.523377 0.30271,-1.906157 -0.56316,-2.407286 -0.86586,-0.501132 -1.39895,-0.0799 -2.54999,1.185942 -1.15104,1.265841 -1.07972,1.42538 -2.32158,2.955871 0.0413,-0.142294 0.2356,-0.62144 0.58311,-1.437426 0.55706,-1.308041 0.88679,-2.071048 0.98935,-2.288959 0.46649,-0.992983 0.94745,-1.667371 1.4429,-2.023136 0.66021,-0.469673 1.60859,-0.504005 2.38036,-0.112516 0.77177,0.391498 0.9963,0.933496 1.21138,1.540443 1.48975,-0.702534 2.01648,-0.364862 2.49128,-0.182293 0.47492,0.182251 1.17617,0.77289 1.4715,1.455741 0.34119,0.77989 0.22453,1.844359 -0.35,3.193397 -0.13783,0.310847 -0.24091,0.548491 -0.38077,0.87691 -0.64438,1.513058 -1.05845,2.400007 -1.2422,2.66084 0.29985,-1.929175 0.42703,-2.636846 0.66828,-3.963788 0.20376,-1.12075 0.0267,-2.315227 -0.95312,-2.705229 -0.97978,-0.390021 -2.45472,1.008341 -2.87735,1.251474 z"
       style="font-style:normal;font-variant:normal;font-weight:normal;font-stretch:normal;font-size:10.58333302px;line-height:125%;font-family:'Berlin Sans FB Demi';-inkscape-font-specification:'Berlin Sans FB Demi';letter-spacing:0px;word-spacing:0px;fill:#000000;fill-opacity:1;stroke:none;stroke-width:0.34228247px;stroke-linecap:butt;stroke-linejoin:miter;stroke-opacity:1"
       id="path4813-2-2-1-7-0"
       inkscape:connector-curvature="0"
       sodipodi:nodetypes="czzcscczczccccszcc" />
  </g>
</svg>
