<?xml version="1.0" encoding="UTF-8" standalone="no"?>
<!-- Created with Inkscape (http://www.inkscape.org/) -->

<svg
   xmlns:dc="http://purl.org/dc/elements/1.1/"
   xmlns:cc="http://creativecommons.org/ns#"
   xmlns:rdf="http://www.w3.org/1999/02/22-rdf-syntax-ns#"
   xmlns:svg="http://www.w3.org/2000/svg"
   xmlns="http://www.w3.org/2000/svg"
   xmlns:sodipodi="http://sodipodi.sourceforge.net/DTD/sodipodi-0.dtd"
   xmlns:inkscape="http://www.inkscape.org/namespaces/inkscape"
   width="100.54414mm"
   height="115.17377mm"
   viewBox="0 0 100.54414 115.17377"
   version="1.1"
   id="svg8"
   inkscape:version="0.92.3 (2405546, 2018-03-11)"
   sodipodi:docname="logo.svg"
   inkscape:export-filename="Z:\GitHub\BIRDS\man\figures\logo.png"
   inkscape:export-xdpi="149.96469"
   inkscape:export-ydpi="149.96469">
  <defs
     id="defs2" />
  <sodipodi:namedview
     id="base"
     pagecolor="#ffffff"
     bordercolor="#666666"
     borderopacity="1.0"
     inkscape:pageopacity="0.0"
     inkscape:pageshadow="2"
     inkscape:zoom="1"
     inkscape:cx="-8.56828"
     inkscape:cy="163.29989"
     inkscape:document-units="mm"
     inkscape:current-layer="layer1"
     showgrid="false"
     inkscape:window-width="1920"
     inkscape:window-height="1147"
     inkscape:window-x="1912"
     inkscape:window-y="-8"
     inkscape:window-maximized="1"
     fit-margin-top="0"
     fit-margin-left="0"
     fit-margin-right="0"
     fit-margin-bottom="0" />
  <metadata
     id="metadata5">
    <rdf:RDF>
      <cc:Work
         rdf:about="">
        <dc:format>image/svg+xml</dc:format>
        <dc:type
           rdf:resource="http://purl.org/dc/dcmitype/StillImage" />
        <dc:title />
      </cc:Work>
    </rdf:RDF>
  </metadata>
  <g
     inkscape:label="Layer 1"
     inkscape:groupmode="layer"
     id="layer1"
     transform="translate(-44.548616,-54.70327)">
    <path
       inkscape:connector-curvature="0"
       id="path9314-2-85-9"
       d="m 94.820693,55.855618 -16.42173,9.405628 -4.10623,2.350244 -4.10517,2.352828 -16.42173,9.405628 -4.10621,2.350243 -4.10518,2.352829 -10e-4,4.702553 10e-4,4.703072 V 112.2899 l -10e-4,4.70307 10e-4,4.70256 v 18.81177 l 16.42226,9.40563 4.10466,2.35231 4.1062,2.35076 16.42226,9.40563 4.10517,2.35231 4.1057,2.35076 4.1062,-2.35076 4.105177,-2.35231 16.42176,-9.40563 4.1062,-2.35076 4.10517,-2.35231 16.42174,-9.40563 v -18.81177 l 0.002,-4.70256 -0.002,-4.70307 V 93.478643 l 0.002,-4.703072 -0.002,-4.702553 -4.10467,-2.352829 -4.1062,-2.350243 -16.42224,-9.405628 -4.10466,-2.352828 -4.10623,-2.350244 z"
       style="fill:#ffffff;fill-opacity:1;stroke:none;stroke-width:2;stroke-miterlimit:4;stroke-dasharray:none;stroke-dashoffset:0;stroke-opacity:1"
       inkscape:export-xdpi="72"
       inkscape:export-ydpi="72" />
    <g
       id="layer1-8"
       inkscape:label="Layer 1"
       transform="translate(-19.314957,40.711812)">
      <path
         sodipodi:type="star"
         style="fill:#6bc471;fill-opacity:0.83417089;stroke:#008000;stroke-width:6.00004864;stroke-miterlimit:4;stroke-dasharray:none;stroke-dashoffset:0;stroke-opacity:1"
         id="path9314-2"
         sodipodi:sides="6"
         sodipodi:cx="106.74076"
         sodipodi:cy="71.69178"
         sodipodi:r1="56.66114"
         sodipodi:r2="49.076878"
         sodipodi:arg1="0"
         sodipodi:arg2="0.52359878"
         inkscape:flatsided="false"
         inkscape:rounded="0"
         inkscape:randomized="0"
         d="m 163.4019,71.69178 -14.15932,24.538439 -14.17125,24.531551 -28.33057,0.007 -28.330569,-0.007 L 64.238938,96.230219 50.07962,71.69178 64.238938,47.153341 78.410191,22.621793 l 28.330569,-0.0069 28.33057,0.0069 14.17125,24.531548 z"
         transform="matrix(0.14491489,-0.083,0.08366665,0.14376022,51.613883,46.617138)" />
      <path
         sodipodi:type="star"
         style="fill:none;fill-opacity:1;stroke:#008000;stroke-width:6.00004864;stroke-miterlimit:4;stroke-dasharray:none;stroke-dashoffset:0;stroke-opacity:1"
         id="path9314-2-1"
         sodipodi:sides="6"
         sodipodi:cx="106.74076"
         sodipodi:cy="71.69178"
         sodipodi:r1="56.66114"
         sodipodi:r2="49.076878"
         sodipodi:arg1="0"
         sodipodi:arg2="0.52359878"
         inkscape:flatsided="false"
         inkscape:rounded="0"
         inkscape:randomized="0"
         d="m 163.4019,71.69178 -14.15932,24.538439 -14.17125,24.531551 -28.33057,0.007 -28.330569,-0.007 L 64.238938,96.230219 50.07962,71.69178 64.238938,47.153341 78.410191,22.621793 l 28.330569,-0.0069 28.33057,0.0069 14.17125,24.531548 z"
         transform="matrix(0.14491489,-0.083,0.08366665,0.14376022,68.035969,46.617138)" />
      <path
         sodipodi:type="star"
         style="fill:none;fill-opacity:1;stroke:#008000;stroke-width:6.00004864;stroke-miterlimit:4;stroke-dasharray:none;stroke-dashoffset:0;stroke-opacity:1"
         id="path9314-2-4"
         sodipodi:sides="6"
         sodipodi:cx="106.74076"
         sodipodi:cy="71.69178"
         sodipodi:r1="56.66114"
         sodipodi:r2="49.076878"
         sodipodi:arg1="0"
         sodipodi:arg2="0.52359878"
         inkscape:flatsided="false"
         inkscape:rounded="0"
         inkscape:randomized="0"
         d="m 163.4019,71.69178 -14.15932,24.538439 -14.17125,24.531551 -28.33057,0.007 -28.330569,-0.007 L 64.238938,96.230219 50.07962,71.69178 64.238938,47.153341 78.410191,22.621793 l 28.330569,-0.0069 28.33057,0.0069 14.17125,24.531548 z"
         transform="matrix(0.14491489,-0.083,0.08366665,0.14376022,84.458054,46.617138)" />
      <path
         sodipodi:type="star"
         style="fill:none;fill-opacity:1;stroke:#008000;stroke-width:6.00004864;stroke-miterlimit:4;stroke-dasharray:none;stroke-dashoffset:0;stroke-opacity:1"
         id="path9314-2-0"
         sodipodi:sides="6"
         sodipodi:cx="106.74076"
         sodipodi:cy="71.69178"
         sodipodi:r1="56.66114"
         sodipodi:r2="49.076878"
         sodipodi:arg1="0"
         sodipodi:arg2="0.52359878"
         inkscape:flatsided="false"
         inkscape:rounded="0"
         inkscape:randomized="0"
         d="m 163.4019,71.69178 -14.15932,24.538439 -14.17125,24.531551 -28.33057,0.007 -28.330569,-0.007 L 64.238938,96.230219 50.07962,71.69178 64.238938,47.153341 78.410191,22.621793 l 28.330569,-0.0069 28.33057,0.0069 14.17125,24.531548 z"
         transform="matrix(0.14491489,-0.083,0.08366665,0.14376022,100.88014,46.617138)" />
      <path
         sodipodi:type="star"
         style="fill:none;fill-opacity:1;stroke:#008000;stroke-width:6.00004864;stroke-miterlimit:4;stroke-dasharray:none;stroke-dashoffset:0;stroke-opacity:1"
         id="path9314-2-8"
         sodipodi:sides="6"
         sodipodi:cx="106.74076"
         sodipodi:cy="71.69178"
         sodipodi:r1="56.66114"
         sodipodi:r2="49.076878"
         sodipodi:arg1="0"
         sodipodi:arg2="0.52359878"
         inkscape:flatsided="false"
         inkscape:rounded="0"
         inkscape:randomized="0"
         d="m 163.4019,71.69178 -14.15932,24.538439 -14.17125,24.531551 -28.33057,0.007 -28.330569,-0.007 L 64.238938,96.230219 50.07962,71.69178 64.238938,47.153341 78.410191,22.621793 l 28.330569,-0.0069 28.33057,0.0069 14.17125,24.531548 z"
         transform="matrix(0.14491489,-0.083,0.08366665,0.14376022,117.30223,46.617138)" />
      <path
         sodipodi:type="star"
         style="fill:#6bc471;fill-opacity:0.83417089;stroke:#008000;stroke-width:6.00004864;stroke-miterlimit:4;stroke-dasharray:none;stroke-dashoffset:0;stroke-opacity:1"
         id="path9314-2-7"
         sodipodi:sides="6"
         sodipodi:cx="106.74076"
         sodipodi:cy="71.69178"
         sodipodi:r1="56.66114"
         sodipodi:r2="49.076878"
         sodipodi:arg1="0"
         sodipodi:arg2="0.52359878"
         inkscape:flatsided="false"
         inkscape:rounded="0"
         inkscape:randomized="0"
         d="m 163.4019,71.69178 -14.15932,24.538439 -14.17125,24.531551 -28.33057,0.007 -28.330569,-0.007 L 64.238938,96.230219 50.07962,71.69178 64.238938,47.153341 78.410191,22.621793 l 28.330569,-0.0069 28.33057,0.0069 14.17125,24.531548 z"
         transform="matrix(0.14491489,-0.083,0.08366665,0.14376022,133.72432,46.617138)" />
      <path
         sodipodi:type="star"
         style="fill:#6bc471;fill-opacity:0.83417089;stroke:#008000;stroke-width:6.00004864;stroke-miterlimit:4;stroke-dasharray:none;stroke-dashoffset:0;stroke-opacity:1"
         id="path9314-2-5"
         sodipodi:sides="6"
         sodipodi:cx="106.74076"
         sodipodi:cy="71.69178"
         sodipodi:r1="56.66114"
         sodipodi:r2="49.076878"
         sodipodi:arg1="0"
         sodipodi:arg2="0.52359878"
         inkscape:flatsided="false"
         inkscape:rounded="0"
         inkscape:randomized="0"
         d="m 163.4019,71.69178 -14.15932,24.538439 -14.17125,24.531551 -28.33057,0.007 -28.330569,-0.007 L 64.238938,96.230219 50.07962,71.69178 64.238938,47.153341 78.410191,22.621793 l 28.330569,-0.0069 28.33057,0.0069 14.17125,24.531548 z"
         transform="matrix(0.14491489,-0.083,0.08366665,0.14376022,59.824926,60.725762)" />
      <path
         sodipodi:type="star"
         style="fill:#6bc471;fill-opacity:0.83417089;stroke:#008000;stroke-width:6.00004864;stroke-miterlimit:4;stroke-dasharray:none;stroke-dashoffset:0;stroke-opacity:1"
         id="path9314-2-1-3"
         sodipodi:sides="6"
         sodipodi:cx="106.74076"
         sodipodi:cy="71.69178"
         sodipodi:r1="56.66114"
         sodipodi:r2="49.076878"
         sodipodi:arg1="0"
         sodipodi:arg2="0.52359878"
         inkscape:flatsided="false"
         inkscape:rounded="0"
         inkscape:randomized="0"
         d="m 163.4019,71.69178 -14.15932,24.538439 -14.17125,24.531551 -28.33057,0.007 -28.330569,-0.007 L 64.238938,96.230219 50.07962,71.69178 64.238938,47.153341 78.410191,22.621793 l 28.330569,-0.0069 28.33057,0.0069 14.17125,24.531548 z"
         transform="matrix(0.14491489,-0.083,0.08366665,0.14376022,76.247017,60.725762)" />
      <path
         sodipodi:type="star"
         style="fill:none;fill-opacity:1;stroke:#008000;stroke-width:6.00004864;stroke-miterlimit:4;stroke-dasharray:none;stroke-dashoffset:0;stroke-opacity:1"
         id="path9314-2-4-3"
         sodipodi:sides="6"
         sodipodi:cx="106.74076"
         sodipodi:cy="71.69178"
         sodipodi:r1="56.66114"
         sodipodi:r2="49.076878"
         sodipodi:arg1="0"
         sodipodi:arg2="0.52359878"
         inkscape:flatsided="false"
         inkscape:rounded="0"
         inkscape:randomized="0"
         d="m 163.4019,71.69178 -14.15932,24.538439 -14.17125,24.531551 -28.33057,0.007 -28.330569,-0.007 L 64.238938,96.230219 50.07962,71.69178 64.238938,47.153341 78.410191,22.621793 l 28.330569,-0.0069 28.33057,0.0069 14.17125,24.531548 z"
         transform="matrix(0.14491489,-0.083,0.08366665,0.14376022,92.669097,60.725762)" />
      <path
         sodipodi:type="star"
         style="fill:none;fill-opacity:1;stroke:#008000;stroke-width:6.00004864;stroke-miterlimit:4;stroke-dasharray:none;stroke-dashoffset:0;stroke-opacity:1"
         id="path9314-2-0-9"
         sodipodi:sides="6"
         sodipodi:cx="106.74076"
         sodipodi:cy="71.69178"
         sodipodi:r1="56.66114"
         sodipodi:r2="49.076878"
         sodipodi:arg1="0"
         sodipodi:arg2="0.52359878"
         inkscape:flatsided="false"
         inkscape:rounded="0"
         inkscape:randomized="0"
         d="m 163.4019,71.69178 -14.15932,24.538439 -14.17125,24.531551 -28.33057,0.007 -28.330569,-0.007 L 64.238938,96.230219 50.07962,71.69178 64.238938,47.153341 78.410191,22.621793 l 28.330569,-0.0069 28.33057,0.0069 14.17125,24.531548 z"
         transform="matrix(0.14491489,-0.083,0.08366665,0.14376022,109.09119,60.725762)" />
      <path
         sodipodi:type="star"
         style="fill:#6bc471;fill-opacity:0.83417089;stroke:#008000;stroke-width:6.00004864;stroke-miterlimit:4;stroke-dasharray:none;stroke-dashoffset:0;stroke-opacity:1"
         id="path9314-2-8-9"
         sodipodi:sides="6"
         sodipodi:cx="106.74076"
         sodipodi:cy="71.69178"
         sodipodi:r1="56.66114"
         sodipodi:r2="49.076878"
         sodipodi:arg1="0"
         sodipodi:arg2="0.52359878"
         inkscape:flatsided="false"
         inkscape:rounded="0"
         inkscape:randomized="0"
         d="m 163.4019,71.69178 -14.15932,24.538439 -14.17125,24.531551 -28.33057,0.007 -28.330569,-0.007 L 64.238938,96.230219 50.07962,71.69178 64.238938,47.153341 78.410191,22.621793 l 28.330569,-0.0069 28.33057,0.0069 14.17125,24.531548 z"
         transform="matrix(0.14491489,-0.083,0.08366665,0.14376022,125.51328,60.725762)" />
      <path
         sodipodi:type="star"
         style="fill:none;fill-opacity:1;stroke:#008000;stroke-width:6.00004864;stroke-miterlimit:4;stroke-dasharray:none;stroke-dashoffset:0;stroke-opacity:1"
         id="path9314-2-9"
         sodipodi:sides="6"
         sodipodi:cx="106.74076"
         sodipodi:cy="71.69178"
         sodipodi:r1="56.66114"
         sodipodi:r2="49.076878"
         sodipodi:arg1="0"
         sodipodi:arg2="0.52359878"
         inkscape:flatsided="false"
         inkscape:rounded="0"
         inkscape:randomized="0"
         d="m 163.4019,71.69178 -14.15932,24.538439 -14.17125,24.531551 -28.33057,0.007 -28.330569,-0.007 L 64.238938,96.230219 50.07962,71.69178 64.238938,47.153341 78.410191,22.621793 l 28.330569,-0.0069 28.33057,0.0069 14.17125,24.531548 z"
         transform="matrix(0.14491489,-0.083,0.08366665,0.14376022,51.613877,74.834386)" />
      <path
         sodipodi:type="star"
         style="fill:none;fill-opacity:1;stroke:#008000;stroke-width:6.00004864;stroke-miterlimit:4;stroke-dasharray:none;stroke-dashoffset:0;stroke-opacity:1"
         id="path9314-2-1-35"
         sodipodi:sides="6"
         sodipodi:cx="106.74076"
         sodipodi:cy="71.69178"
         sodipodi:r1="56.66114"
         sodipodi:r2="49.076878"
         sodipodi:arg1="0"
         sodipodi:arg2="0.52359878"
         inkscape:flatsided="false"
         inkscape:rounded="0"
         inkscape:randomized="0"
         d="m 163.4019,71.69178 -14.15932,24.538439 -14.17125,24.531551 -28.33057,0.007 -28.330569,-0.007 L 64.238938,96.230219 50.07962,71.69178 64.238938,47.153341 78.410191,22.621793 l 28.330569,-0.0069 28.33057,0.0069 14.17125,24.531548 z"
         transform="matrix(0.14491489,-0.083,0.08366665,0.14376022,68.035964,74.834386)" />
      <path
         sodipodi:type="star"
         style="fill:#6bc471;fill-opacity:0.83417089;stroke:#008000;stroke-width:6.00004864;stroke-miterlimit:4;stroke-dasharray:none;stroke-dashoffset:0;stroke-opacity:1"
         id="path9314-2-4-6"
         sodipodi:sides="6"
         sodipodi:cx="106.74076"
         sodipodi:cy="71.69178"
         sodipodi:r1="56.66114"
         sodipodi:r2="49.076878"
         sodipodi:arg1="0"
         sodipodi:arg2="0.52359878"
         inkscape:flatsided="false"
         inkscape:rounded="0"
         inkscape:randomized="0"
         d="m 163.4019,71.69178 -14.15932,24.538439 -14.17125,24.531551 -28.33057,0.007 -28.330569,-0.007 L 64.238938,96.230219 50.07962,71.69178 64.238938,47.153341 78.410191,22.621793 l 28.330569,-0.0069 28.33057,0.0069 14.17125,24.531548 z"
         transform="matrix(0.14491489,-0.083,0.08366665,0.14376022,84.458048,74.834386)" />
      <path
         sodipodi:type="star"
         style="fill:none;fill-opacity:1;stroke:#008000;stroke-width:6.00004864;stroke-miterlimit:4;stroke-dasharray:none;stroke-dashoffset:0;stroke-opacity:1"
         id="path9314-2-0-91"
         sodipodi:sides="6"
         sodipodi:cx="106.74076"
         sodipodi:cy="71.69178"
         sodipodi:r1="56.66114"
         sodipodi:r2="49.076878"
         sodipodi:arg1="0"
         sodipodi:arg2="0.52359878"
         inkscape:flatsided="false"
         inkscape:rounded="0"
         inkscape:randomized="0"
         d="m 163.4019,71.69178 -14.15932,24.538439 -14.17125,24.531551 -28.33057,0.007 -28.330569,-0.007 L 64.238938,96.230219 50.07962,71.69178 64.238938,47.153341 78.410191,22.621793 l 28.330569,-0.0069 28.33057,0.0069 14.17125,24.531548 z"
         transform="matrix(0.14491489,-0.083,0.08366665,0.14376022,100.88014,74.834386)" />
      <path
         sodipodi:type="star"
         style="fill:none;fill-opacity:1;stroke:#008000;stroke-width:6.00004864;stroke-miterlimit:4;stroke-dasharray:none;stroke-dashoffset:0;stroke-opacity:1"
         id="path9314-2-8-6"
         sodipodi:sides="6"
         sodipodi:cx="106.74076"
         sodipodi:cy="71.69178"
         sodipodi:r1="56.66114"
         sodipodi:r2="49.076878"
         sodipodi:arg1="0"
         sodipodi:arg2="0.52359878"
         inkscape:flatsided="false"
         inkscape:rounded="0"
         inkscape:randomized="0"
         d="m 163.4019,71.69178 -14.15932,24.538439 -14.17125,24.531551 -28.33057,0.007 -28.330569,-0.007 L 64.238938,96.230219 50.07962,71.69178 64.238938,47.153341 78.410191,22.621793 l 28.330569,-0.0069 28.33057,0.0069 14.17125,24.531548 z"
         transform="matrix(0.14491489,-0.083,0.08366665,0.14376022,117.30223,74.834386)" />
      <path
         sodipodi:type="star"
         style="fill:#6bc471;fill-opacity:0.83417089;stroke:#008000;stroke-width:6.00004864;stroke-miterlimit:4;stroke-dasharray:none;stroke-dashoffset:0;stroke-opacity:1"
         id="path9314-2-7-0"
         sodipodi:sides="6"
         sodipodi:cx="106.74076"
         sodipodi:cy="71.69178"
         sodipodi:r1="56.66114"
         sodipodi:r2="49.076878"
         sodipodi:arg1="0"
         sodipodi:arg2="0.52359878"
         inkscape:flatsided="false"
         inkscape:rounded="0"
         inkscape:randomized="0"
         d="m 163.4019,71.69178 -14.15932,24.538439 -14.17125,24.531551 -28.33057,0.007 -28.330569,-0.007 L 64.238938,96.230219 50.07962,71.69178 64.238938,47.153341 78.410191,22.621793 l 28.330569,-0.0069 28.33057,0.0069 14.17125,24.531548 z"
         transform="matrix(0.14491489,-0.083,0.08366665,0.14376022,133.72432,74.834386)" />
      <path
         sodipodi:type="star"
         style="fill:none;fill-opacity:1;stroke:#008000;stroke-width:6.00004864;stroke-miterlimit:4;stroke-dasharray:none;stroke-dashoffset:0;stroke-opacity:1"
         id="path9314-2-46"
         sodipodi:sides="6"
         sodipodi:cx="106.74076"
         sodipodi:cy="71.69178"
         sodipodi:r1="56.66114"
         sodipodi:r2="49.076878"
         sodipodi:arg1="0"
         sodipodi:arg2="0.52359878"
         inkscape:flatsided="false"
         inkscape:rounded="0"
         inkscape:randomized="0"
         d="m 163.4019,71.69178 -14.15932,24.538439 -14.17125,24.531551 -28.33057,0.007 -28.330569,-0.007 L 64.238938,96.230219 50.07962,71.69178 64.238938,47.153341 78.410191,22.621793 l 28.330569,-0.0069 28.33057,0.0069 14.17125,24.531548 z"
         transform="matrix(0.14491489,-0.083,0.08366665,0.14376022,59.824928,88.94301)" />
      <path
         sodipodi:type="star"
         style="fill:#6bc471;fill-opacity:0.83417089;stroke:#008000;stroke-width:6.00004864;stroke-miterlimit:4;stroke-dasharray:none;stroke-dashoffset:0;stroke-opacity:1"
         id="path9314-2-1-8"
         sodipodi:sides="6"
         sodipodi:cx="106.74076"
         sodipodi:cy="71.69178"
         sodipodi:r1="56.66114"
         sodipodi:r2="49.076878"
         sodipodi:arg1="0"
         sodipodi:arg2="0.52359878"
         inkscape:flatsided="false"
         inkscape:rounded="0"
         inkscape:randomized="0"
         d="m 163.4019,71.69178 -14.15932,24.538439 -14.17125,24.531551 -28.33057,0.007 -28.330569,-0.007 L 64.238938,96.230219 50.07962,71.69178 64.238938,47.153341 78.410191,22.621793 l 28.330569,-0.0069 28.33057,0.0069 14.17125,24.531548 z"
         transform="matrix(0.14491489,-0.083,0.08366665,0.14376022,76.247014,88.94301)" />
      <path
         sodipodi:type="star"
         style="fill:#6bc471;fill-opacity:0.83417089;stroke:#008000;stroke-width:6.00004864;stroke-miterlimit:4;stroke-dasharray:none;stroke-dashoffset:0;stroke-opacity:1"
         id="path9314-2-4-1"
         sodipodi:sides="6"
         sodipodi:cx="106.74076"
         sodipodi:cy="71.69178"
         sodipodi:r1="56.66114"
         sodipodi:r2="49.076878"
         sodipodi:arg1="0"
         sodipodi:arg2="0.52359878"
         inkscape:flatsided="false"
         inkscape:rounded="0"
         inkscape:randomized="0"
         d="m 163.4019,71.69178 -14.15932,24.538439 -14.17125,24.531551 -28.33057,0.007 -28.330569,-0.007 L 64.238938,96.230219 50.07962,71.69178 64.238938,47.153341 78.410191,22.621793 l 28.330569,-0.0069 28.33057,0.0069 14.17125,24.531548 z"
         transform="matrix(0.14491489,-0.083,0.08366665,0.14376022,92.669099,88.94301)" />
      <path
         sodipodi:type="star"
         style="fill:#1e9a26;fill-opacity:1;stroke:#008000;stroke-width:6.00004864;stroke-miterlimit:4;stroke-dasharray:none;stroke-dashoffset:0;stroke-opacity:1"
         id="path9314-2-0-2"
         sodipodi:sides="6"
         sodipodi:cx="106.74076"
         sodipodi:cy="71.69178"
         sodipodi:r1="56.66114"
         sodipodi:r2="49.076878"
         sodipodi:arg1="0"
         sodipodi:arg2="0.52359878"
         inkscape:flatsided="false"
         inkscape:rounded="0"
         inkscape:randomized="0"
         d="m 163.4019,71.69178 -14.15932,24.538439 -14.17125,24.531551 -28.33057,0.007 -28.330569,-0.007 L 64.238938,96.230219 50.07962,71.69178 64.238938,47.153341 78.410191,22.621793 l 28.330569,-0.0069 28.33057,0.0069 14.17125,24.531548 z"
         transform="matrix(0.14491489,-0.083,0.08366665,0.14376022,109.09118,88.94301)" />
      <path
         sodipodi:type="star"
         style="fill:#1e9a26;fill-opacity:1;stroke:#008000;stroke-width:6.00004864;stroke-miterlimit:4;stroke-dasharray:none;stroke-dashoffset:0;stroke-opacity:1"
         id="path9314-2-8-67"
         sodipodi:sides="6"
         sodipodi:cx="106.74076"
         sodipodi:cy="71.69178"
         sodipodi:r1="56.66114"
         sodipodi:r2="49.076878"
         sodipodi:arg1="0"
         sodipodi:arg2="0.52359878"
         inkscape:flatsided="false"
         inkscape:rounded="0"
         inkscape:randomized="0"
         d="m 163.4019,71.69178 -14.15932,24.538439 -14.17125,24.531551 -28.33057,0.007 -28.330569,-0.007 L 64.238938,96.230219 50.07962,71.69178 64.238938,47.153341 78.410191,22.621793 l 28.330569,-0.0069 28.33057,0.0069 14.17125,24.531548 z"
         transform="matrix(0.14491489,-0.083,0.08366665,0.14376022,125.51327,88.94301)" />
      <path
         sodipodi:type="star"
         style="fill:#1e9a26;fill-opacity:1;stroke:#008000;stroke-width:6.00004864;stroke-miterlimit:4;stroke-dasharray:none;stroke-dashoffset:0;stroke-opacity:1"
         id="path9314-2-1-7"
         sodipodi:sides="6"
         sodipodi:cx="106.74076"
         sodipodi:cy="71.69178"
         sodipodi:r1="56.66114"
         sodipodi:r2="49.076878"
         sodipodi:arg1="0"
         sodipodi:arg2="0.52359878"
         inkscape:flatsided="false"
         inkscape:rounded="0"
         inkscape:randomized="0"
         d="m 163.4019,71.69178 -14.15932,24.538439 -14.17125,24.531551 -28.33057,0.007 -28.330569,-0.007 L 64.238938,96.230219 50.07962,71.69178 64.238938,47.153341 78.410191,22.621793 l 28.330569,-0.0069 28.33057,0.0069 14.17125,24.531548 z"
         transform="matrix(0.14491489,-0.083,0.08366665,0.14376022,68.035972,103.05163)" />
      <path
         sodipodi:type="star"
         style="fill:none;fill-opacity:1;stroke:#008000;stroke-width:6.00004864;stroke-miterlimit:4;stroke-dasharray:none;stroke-dashoffset:0;stroke-opacity:1"
         id="path9314-2-4-4"
         sodipodi:sides="6"
         sodipodi:cx="106.74076"
         sodipodi:cy="71.69178"
         sodipodi:r1="56.66114"
         sodipodi:r2="49.076878"
         sodipodi:arg1="0"
         sodipodi:arg2="0.52359878"
         inkscape:flatsided="false"
         inkscape:rounded="0"
         inkscape:randomized="0"
         d="m 163.4019,71.69178 -14.15932,24.538439 -14.17125,24.531551 -28.33057,0.007 -28.330569,-0.007 L 64.238938,96.230219 50.07962,71.69178 64.238938,47.153341 78.410191,22.621793 l 28.330569,-0.0069 28.33057,0.0069 14.17125,24.531548 z"
         transform="matrix(0.14491489,-0.083,0.08366665,0.14376022,84.458056,103.05163)" />
      <path
         sodipodi:type="star"
         style="fill:none;fill-opacity:1;stroke:#008000;stroke-width:6.00004864;stroke-miterlimit:4;stroke-dasharray:none;stroke-dashoffset:0;stroke-opacity:1"
         id="path9314-2-0-6"
         sodipodi:sides="6"
         sodipodi:cx="106.74076"
         sodipodi:cy="71.69178"
         sodipodi:r1="56.66114"
         sodipodi:r2="49.076878"
         sodipodi:arg1="0"
         sodipodi:arg2="0.52359878"
         inkscape:flatsided="false"
         inkscape:rounded="0"
         inkscape:randomized="0"
         d="m 163.4019,71.69178 -14.15932,24.538439 -14.17125,24.531551 -28.33057,0.007 -28.330569,-0.007 L 64.238938,96.230219 50.07962,71.69178 64.238938,47.153341 78.410191,22.621793 l 28.330569,-0.0069 28.33057,0.0069 14.17125,24.531548 z"
         transform="matrix(0.14491489,-0.083,0.08366665,0.14376022,100.88014,103.05163)" />
      <path
         sodipodi:type="star"
         style="fill:#1e9a26;fill-opacity:1;stroke:#008000;stroke-width:6.00004864;stroke-miterlimit:4;stroke-dasharray:none;stroke-dashoffset:0;stroke-opacity:1"
         id="path9314-2-8-3"
         sodipodi:sides="6"
         sodipodi:cx="106.74076"
         sodipodi:cy="71.69178"
         sodipodi:r1="56.66114"
         sodipodi:r2="49.076878"
         sodipodi:arg1="0"
         sodipodi:arg2="0.52359878"
         inkscape:flatsided="false"
         inkscape:rounded="0"
         inkscape:randomized="0"
         d="m 163.4019,71.69178 -14.15932,24.538439 -14.17125,24.531551 -28.33057,0.007 -28.330569,-0.007 L 64.238938,96.230219 50.07962,71.69178 64.238938,47.153341 78.410191,22.621793 l 28.330569,-0.0069 28.33057,0.0069 14.17125,24.531548 z"
         transform="matrix(0.14491489,-0.083,0.08366665,0.14376022,117.30223,103.05163)" />
      <path
         sodipodi:type="star"
         style="fill:none;fill-opacity:1;stroke:#008000;stroke-width:6.00004864;stroke-miterlimit:4;stroke-dasharray:none;stroke-dashoffset:0;stroke-opacity:1"
         id="path9314-2-1-7-5"
         sodipodi:sides="6"
         sodipodi:cx="106.74076"
         sodipodi:cy="71.69178"
         sodipodi:r1="56.66114"
         sodipodi:r2="49.076878"
         sodipodi:arg1="0"
         sodipodi:arg2="0.52359878"
         inkscape:flatsided="false"
         inkscape:rounded="0"
         inkscape:randomized="0"
         d="m 163.4019,71.69178 -14.15932,24.538439 -14.17125,24.531551 -28.33057,0.007 -28.330569,-0.007 L 64.238938,96.230219 50.07962,71.69178 64.238938,47.153341 78.410191,22.621793 l 28.330569,-0.0069 28.33057,0.0069 14.17125,24.531548 z"
         transform="matrix(0.14491489,-0.083,0.08366665,0.14376022,92.669105,117.16025)" />
      <path
         sodipodi:type="star"
         style="fill:#1e9a26;fill-opacity:1;stroke:#008000;stroke-width:6.00004864;stroke-miterlimit:4;stroke-dasharray:none;stroke-dashoffset:0;stroke-opacity:1"
         id="path9314-2-0-6-1"
         sodipodi:sides="6"
         sodipodi:cx="106.74076"
         sodipodi:cy="71.69178"
         sodipodi:r1="56.66114"
         sodipodi:r2="49.076878"
         sodipodi:arg1="0"
         sodipodi:arg2="0.52359878"
         inkscape:flatsided="false"
         inkscape:rounded="0"
         inkscape:randomized="0"
         d="m 163.4019,71.69178 -14.15932,24.538439 -14.17125,24.531551 -28.33057,0.007 -28.330569,-0.007 L 64.238938,96.230219 50.07962,71.69178 64.238938,47.153341 78.410191,22.621793 l 28.330569,-0.0069 28.33057,0.0069 14.17125,24.531548 z"
         transform="matrix(0.14491489,-0.083,0.08366665,0.14376022,92.669097,32.508514)" />
      <path
         sodipodi:type="star"
         style="fill:none;fill-opacity:1;stroke:#008000;stroke-width:6.00004864;stroke-miterlimit:4;stroke-dasharray:none;stroke-dashoffset:0;stroke-opacity:1"
         id="path9314-2-8-3-3"
         sodipodi:sides="6"
         sodipodi:cx="106.74076"
         sodipodi:cy="71.69178"
         sodipodi:r1="56.66114"
         sodipodi:r2="49.076878"
         sodipodi:arg1="0"
         sodipodi:arg2="0.52359878"
         inkscape:flatsided="false"
         inkscape:rounded="0"
         inkscape:randomized="0"
         d="m 163.4019,71.69178 -14.15932,24.538439 -14.17125,24.531551 -28.33057,0.007 -28.330569,-0.007 L 64.238938,96.230219 50.07962,71.69178 64.238938,47.153341 78.410191,22.621793 l 28.330569,-0.0069 28.33057,0.0069 14.17125,24.531548 z"
         transform="matrix(0.14491489,-0.083,0.08366665,0.14376022,109.09119,32.508514)" />
      <path
         style="fill:#1e9a26;fill-opacity:1;stroke:#008000;stroke-width:1;stroke-miterlimit:4;stroke-dasharray:none;stroke-dashoffset:0;stroke-opacity:1"
         d="m 130.55772,24.549709 -4.10494,2.352443 -4.10611,2.350431 -4.10609,-2.350447 -4.10495,-2.352428 -0.001,-4.702875 0.001,-4.702875 z"
         id="path9314-2-1-7-4"
         inkscape:connector-curvature="0"
         sodipodi:nodetypes="cccccccc" />
      <path
         sodipodi:type="star"
         style="fill:none;fill-opacity:1;stroke:#008000;stroke-width:6.00004864;stroke-miterlimit:4;stroke-dasharray:none;stroke-dashoffset:0;stroke-opacity:1"
         id="path9314-2-7-4-7"
         sodipodi:sides="6"
         sodipodi:cx="106.74076"
         sodipodi:cy="71.69178"
         sodipodi:r1="56.66114"
         sodipodi:r2="49.076878"
         sodipodi:arg1="0"
         sodipodi:arg2="0.52359878"
         inkscape:flatsided="false"
         inkscape:rounded="0"
         inkscape:randomized="0"
         d="m 163.4019,71.69178 -14.15932,24.538439 -14.17125,24.531551 -28.33057,0.007 -28.330569,-0.007 L 64.238938,96.230219 50.07962,71.69178 64.238938,47.153341 78.410191,22.621793 l 28.330569,-0.0069 28.33057,0.0069 14.17125,24.531548 z"
         transform="matrix(0.14491489,-0.083,0.08366665,0.14376022,76.247016,32.508514)" />
      <path
         style="fill:#1e9a26;fill-opacity:1;stroke:#008000;stroke-width:1;stroke-miterlimit:4;stroke-dasharray:none;stroke-dashoffset:0;stroke-opacity:1"
         d="m 97.713548,24.549708 4.104932,2.352443 4.10611,2.350431 4.1061,-2.350447 4.10494,-2.352428 10e-4,-4.702874 -10e-4,-4.702875 z"
         id="path9314-2-1-7-4-8"
         inkscape:connector-curvature="0"
         sodipodi:nodetypes="cccccccc" />
      <path
         style="fill:none;fill-opacity:1;stroke:#008000;stroke-width:1;stroke-miterlimit:4;stroke-dasharray:none;stroke-dashoffset:0;stroke-opacity:1"
         d="m 155.19085,38.658332 -4.10494,2.352443 -4.1061,2.350431 -4.1061,-2.350447 -4.10495,-2.352428 -10e-4,-4.702874 10e-4,-4.702875 z"
         id="path9314-2-1-7-4-3"
         inkscape:connector-curvature="0"
         sodipodi:nodetypes="cccccccc" />
      <path
         style="fill:#6bc471;fill-opacity:0.83417089;stroke:#008000;stroke-width:1;stroke-miterlimit:4;stroke-dasharray:none;stroke-dashoffset:0;stroke-opacity:1"
         d="m 73.080421,38.658332 4.104932,2.352443 4.10611,2.350431 4.1061,-2.350447 4.10494,-2.352428 10e-4,-4.702874 -10e-4,-4.702875 z"
         id="path9314-2-1-7-4-8-3"
         inkscape:connector-curvature="0"
         sodipodi:nodetypes="cccccccc" />
      <path
         style="fill:#6bc471;fill-opacity:0.83417089;stroke:#008000;stroke-width:1;stroke-miterlimit:4;stroke-dasharray:none;stroke-dashoffset:0;stroke-opacity:1"
         d="m 73.08042,57.46983 0.0012,4.702875 -0.0012,4.702875 -4.104935,2.352444 -4.106107,2.350431 V 52.766956 l 4.106097,2.350447 z"
         id="path9314-2-4-4-15-1"
         inkscape:connector-curvature="0"
         sodipodi:nodetypes="cccccccc" />
      <path
         style="fill:#1e9a26;fill-opacity:1;stroke:#008000;stroke-width:1;stroke-miterlimit:4;stroke-dasharray:none;stroke-dashoffset:0;stroke-opacity:1"
         d="m 73.080422,85.687079 0.0012,4.702875 -0.0012,4.702874 -4.104936,2.352444 -4.106107,2.350431 V 80.984204 l 4.106097,2.350447 z"
         id="path9314-2-4-4-15-6"
         inkscape:connector-curvature="0"
         sodipodi:nodetypes="cccccccc" />
      <path
         style="fill:#6bc471;fill-opacity:0.83417089;stroke:#008000;stroke-width:1;stroke-miterlimit:4;stroke-dasharray:none;stroke-dashoffset:0;stroke-opacity:1"
         d="m 155.19086,57.469831 -10e-4,4.702875 10e-4,4.702874 4.10493,2.352444 4.10611,2.350432 v -18.8115 l -4.1061,2.350447 z"
         id="path9314-2-4-4-15-4-8"
         inkscape:connector-curvature="0"
         sodipodi:nodetypes="cccccccc" />
      <path
         style="fill:#1e9a26;fill-opacity:1;stroke:#008000;stroke-width:1;stroke-miterlimit:4;stroke-dasharray:none;stroke-dashoffset:0;stroke-opacity:1"
         d="m 155.19086,85.687074 -10e-4,4.702875 10e-4,4.702874 4.10493,2.352444 4.10611,2.350432 v -18.8115 l -4.1061,2.350447 z"
         id="path9314-2-4-4-15-4-5"
         inkscape:connector-curvature="0"
         sodipodi:nodetypes="cccccccc" />
      <path
         style="fill:#1e9a26;fill-opacity:1;stroke:#008000;stroke-width:1;stroke-miterlimit:4;stroke-dasharray:none;stroke-dashoffset:0;stroke-opacity:1"
         d="m 163.4019,99.795698 -4.10494,-2.35244 -4.10611,-2.35043 -4.1061,2.35044 -4.10494,2.35243 -10e-4,4.702882 10e-4,4.70287 z"
         id="path9314-2-1-7-4-8-5-3"
         inkscape:connector-curvature="0"
         sodipodi:nodetypes="cccccccc" />
      <path
         style="fill:#1e9a26;fill-opacity:1;stroke:#008000;stroke-width:1;stroke-miterlimit:4;stroke-dasharray:none;stroke-dashoffset:0;stroke-opacity:1"
         d="m 138.76877,113.90432 -4.10494,-2.35244 -4.10611,-2.35043 -4.1061,2.35044 -4.10494,2.35243 -0.001,4.70288 0.001,4.70287 z"
         id="path9314-2-1-7-4-8-5-3-2"
         inkscape:connector-curvature="0"
         sodipodi:nodetypes="cccccccc" />
      <path
         style="fill:#1e9a26;fill-opacity:1;stroke:#008000;stroke-width:1;stroke-miterlimit:4;stroke-dasharray:none;stroke-dashoffset:0;stroke-opacity:1"
         d="m 64.869383,99.795698 4.104932,-2.35244 4.10611,-2.350431 4.106101,2.350447 4.10494,2.352424 0.001,4.702882 -0.001,4.70287 z"
         id="path9314-2-1-7-4-8-5-8"
         inkscape:connector-curvature="0"
         sodipodi:nodetypes="cccccccc" />
      <path
         style="fill:none;fill-opacity:1;stroke:#008000;stroke-width:1;stroke-miterlimit:4;stroke-dasharray:none;stroke-dashoffset:0;stroke-opacity:1"
         d="m 89.50251,113.90433 4.104932,-2.35245 4.10611,-2.35043 4.106098,2.35045 4.10494,2.35243 0.001,4.70287 -0.001,4.70288 z"
         id="path9314-2-1-7-4-8-5-88"
         inkscape:connector-curvature="0"
         sodipodi:nodetypes="cccccccc" />
      <path
         style="fill:#6bc471;fill-opacity:0.53266332;stroke:#008000;stroke-width:2;stroke-miterlimit:4;stroke-dasharray:none;stroke-dashoffset:0;stroke-opacity:1"
         d="m 114.13564,15.143863 -16.421733,9.405628 -4.106228,2.350244 -4.105169,2.352828 -16.421729,9.405628 -4.106209,2.350243 -4.105177,2.352829 -10e-4,4.702553 10e-4,4.703072 v 18.811256 l -10e-4,4.703071 10e-4,4.702556 v 18.811772 l 16.422248,9.405627 4.104666,2.35231 4.106201,2.35076 16.42226,9.40563 4.10517,2.35231 4.1057,2.35076 4.1062,-2.35076 4.10517,-2.35231 16.42176,-9.40563 4.1062,-2.35076 4.10517,-2.35231 16.42174,-9.405627 V 80.983771 l 0.002,-4.702556 -0.002,-4.703071 V 52.766888 l 0.002,-4.703072 -0.002,-4.702553 -4.10467,-2.352829 -4.1062,-2.350243 -16.42224,-9.405628 -4.10466,-2.352828 -4.10623,-2.350244 z"
         id="path9314-2-85"
         inkscape:connector-curvature="0" />
    </g>
    <text
       id="text13482-7"
       y="136.68402"
       x="71.318626"
       style="font-style:normal;font-weight:normal;font-size:20.99357224px;line-height:1.25;font-family:sans-serif;letter-spacing:0px;word-spacing:0px;fill:#000000;fill-opacity:1;stroke:none;stroke-width:0.52483928"
       xml:space="preserve"><tspan
         style="font-style:normal;font-variant:normal;font-weight:normal;font-stretch:normal;font-size:33.58971405px;font-family:'Berlin Sans FB Demi';-inkscape-font-specification:'Berlin Sans FB Demi';fill:#000000;stroke-width:0.52483928"
         y="136.68402"
         x="71.318626"
         id="tspan13480-4"
         sodipodi:role="line">IRDS</tspan></text>
    <path
       d="m 59.39898,125.43779 c 0.817459,-1.01342 2.600068,-1.83198 1.817766,-4.14216 -0.782284,-2.3102 -2.454874,-2.19104 -5.051394,-2.26544 -2.596508,-0.0744 -4.780316,0.0791 -8.713625,-0.84078 0.329174,-0.15277 1.526926,-0.56458 3.593264,-1.23541 3.312365,-1.07535 5.252235,-1.69379 5.81973,-1.85494 2.584704,-0.7358 4.604169,-0.93231 6.058387,-0.58948 1.929708,0.46393 3.518889,2.16053 4.037331,4.21594 0.518451,2.0554 -0.121492,3.34212 -0.89661,4.71584 3.694384,1.62163 3.918043,3.13779 4.344634,4.30854 0.426903,1.17065 0.464552,3.416 -0.321667,5.06009 -0.891685,1.88492 -3.045625,3.38191 -6.461828,4.49097 -0.79593,0.24541 -1.400717,0.43742 -2.232378,0.70741 -3.831543,1.2439 -6.136029,1.90596 -6.913449,1.98616 2.658553,-3.52863 5.388662,-4.30201 7.47263,-6.51063 2.083958,-2.2086 2.718371,-2.89399 1.862506,-5.33125 -0.855874,-2.43726 -3.28625,-2.32534 -4.415299,-2.71487 z"
       style="font-style:normal;font-variant:normal;font-weight:normal;font-stretch:normal;font-size:10.58333302px;line-height:125%;font-family:'Berlin Sans FB Demi';-inkscape-font-specification:'Berlin Sans FB Demi';letter-spacing:0px;word-spacing:0px;fill:#000000;fill-opacity:1;stroke:none;stroke-width:0.83843201px;stroke-linecap:butt;stroke-linejoin:miter;stroke-opacity:1"
       id="path4813-2-5"
       inkscape:connector-curvature="0"
       sodipodi:nodetypes="czzcscczczcccczzc" />
    <path
       d="m 68.074839,103.06964 c -0.191151,-0.97803 0.207196,-2.42555 -1.531566,-3.104958 -1.738752,-0.67944 -2.492679,0.359178 -3.815028,1.843778 -1.322348,1.48459 -2.307896,2.83965 -4.783969,4.69103 0.07261,-0.26809 0.421223,-1.17264 1.04585,-2.71363 1.001291,-2.47024 1.594322,-3.911338 1.779396,-4.323188 0.841852,-1.87669 1.721294,-3.15663 2.638337,-3.839782 1.222171,-0.902088 2.998818,-0.997585 4.458363,-0.289059 1.459548,0.708521 1.898237,1.717141 2.321331,2.847811 2.769522,-1.36582 3.767954,-0.75015 4.663966,-0.4235 0.896239,0.32603 2.23014,1.41018 2.806162,2.680498 0.66519,1.45072 0.481445,3.44992 -0.551228,5.99759 -0.24821,0.58718 -0.43357,1.03607 -0.684976,1.65629 -1.158226,2.85742 -1.90528,4.53362 -2.241163,5.02859 -0.75803,-3.2954 0.133418,-5.27579 -0.134224,-7.58445 -0.267638,-2.30867 -0.35675,-3.0179 -2.20619,-3.7168 -1.849428,-0.69893 -2.980808,0.78013 -3.765066,1.24977 z"
       style="font-style:normal;font-variant:normal;font-weight:normal;font-stretch:normal;font-size:10.58333302px;line-height:125%;font-family:'Berlin Sans FB Demi';-inkscape-font-specification:'Berlin Sans FB Demi';letter-spacing:0px;word-spacing:0px;fill:#000000;fill-opacity:1;stroke:none;stroke-width:0.64171451px;stroke-linecap:butt;stroke-linejoin:miter;stroke-opacity:1"
       id="path4813-2-2"
       inkscape:connector-curvature="0"
       sodipodi:nodetypes="czzcscczczcccczzc" />
    <path
       d="m 87.262878,91.710967 c -0.45505,-0.676984 -0.61466,-1.89548 -2.142178,-1.855308 -1.527521,0.04014 -1.766096,1.06322 -2.291688,2.603373 -0.525593,1.540144 -0.838304,2.875538 -2.117587,5.059067 -0.03044,-0.225303 -0.05498,-1.018419 -0.07362,-2.379347 -0.02986,-2.181582 -0.04058,-3.457114 -0.03189,-3.826603 0.03852,-1.683191 0.295072,-2.928194 0.769672,-3.734982 0.635174,-1.068918 1.944969,-1.705652 3.271125,-1.635112 1.326156,0.07053 1.977651,0.691914 2.656175,1.410315 1.654966,-1.910538 2.603784,-1.763477 3.383481,-1.801875 0.779673,-0.03894 2.130444,0.354876 2.96871,1.130007 0.962866,0.88287 1.459703,2.449295 1.490507,4.699259 -5.91e-4,0.521817 0.0023,0.919331 0.0098,1.467077 0.03456,2.523534 0.0039,4.025353 -0.09222,4.505486 -1.619226,-2.244837 -1.576254,-4.022012 -2.511933,-5.678387 -0.935685,-1.656395 -1.22833,-2.163052 -2.845529,-2.102405 -1.6172,0.06062 -2.000501,1.5359 -2.442803,2.139428 z"
       style="font-style:normal;font-variant:normal;font-weight:normal;font-stretch:normal;font-size:10.58333302px;line-height:125%;font-family:'Berlin Sans FB Demi';-inkscape-font-specification:'Berlin Sans FB Demi';letter-spacing:0px;word-spacing:0px;fill:#000000;fill-opacity:1;stroke:none;stroke-width:0.52527142px;stroke-linecap:butt;stroke-linejoin:miter;stroke-opacity:1"
       id="path4813-2-2-5"
       inkscape:connector-curvature="0"
       sodipodi:nodetypes="czzcscczczcccczzc" />
    <path
       d="m 105.94678,89.648836 c -0.30894,-0.459607 -0.4173,-1.286847 -1.45433,-1.259574 -1.03704,0.02725 -1.19901,0.721823 -1.55584,1.767437 -0.35682,1.045608 -0.56912,1.95221 -1.43763,3.434614 -0.0207,-0.152959 -0.0373,-0.691407 -0.05,-1.615345 -0.0203,-1.481082 -0.0276,-2.347044 -0.0216,-2.597891 0.0262,-1.142723 0.20032,-1.987959 0.52253,-2.535689 0.43122,-0.725691 1.32045,-1.157972 2.22078,-1.110082 0.90033,0.04788 1.34263,0.469742 1.80328,0.957467 1.12356,-1.29707 1.76772,-1.19723 2.29706,-1.223298 0.52932,-0.02644 1.44636,0.240926 2.01547,0.767165 0.65368,0.599382 0.99099,1.662832 1.0119,3.190339 -3.9e-4,0.354263 10e-4,0.624136 0.007,0.996002 0.0235,1.713234 0.003,2.732823 -0.0626,3.058787 -1.09929,-1.524026 -1.07012,-2.730555 -1.70535,-3.855072 -0.63524,-1.124531 -0.83392,-1.468502 -1.93184,-1.427328 -1.09792,0.04115 -1.35815,1.042726 -1.65843,1.452463 z"
       style="font-style:normal;font-variant:normal;font-weight:normal;font-stretch:normal;font-size:10.58333302px;line-height:125%;font-family:'Berlin Sans FB Demi';-inkscape-font-specification:'Berlin Sans FB Demi';letter-spacing:0px;word-spacing:0px;fill:#000000;fill-opacity:1;stroke:none;stroke-width:0.35660815px;stroke-linecap:butt;stroke-linejoin:miter;stroke-opacity:1"
       id="path4813-2-2-5-3"
       inkscape:connector-curvature="0"
       sodipodi:nodetypes="czzcscczczcccczzc" />
    <path
       d="m 97.735704,78.186047 c -0.30894,-0.459607 -0.4173,-1.286847 -1.45433,-1.259574 -1.03704,0.02725 -1.19901,0.721823 -1.55584,1.767437 -0.356823,1.045608 -0.569123,1.95221 -1.437633,3.434614 -0.0207,-0.152959 -0.0373,-0.691407 -0.05,-1.615345 -0.0203,-1.481082 -0.0276,-2.347044 -0.0216,-2.597891 0.0262,-1.142723 0.20032,-1.987959 0.52253,-2.535689 0.43122,-0.725691 1.320453,-1.157972 2.220783,-1.110082 0.90033,0.04788 1.34263,0.469742 1.80328,0.957467 1.12356,-1.29707 1.76772,-1.19723 2.297056,-1.223298 0.52932,-0.02644 1.44636,0.240926 2.01547,0.767165 0.65368,0.599382 0.99099,1.662832 1.0119,3.190339 -4e-4,0.354263 10e-4,0.624136 0.007,0.996002 0.0235,1.713234 0.003,2.732823 -0.0626,3.058787 -1.09929,-1.524026 -1.07012,-2.730555 -1.70535,-3.855072 -0.63524,-1.124531 -0.83392,-1.468502 -1.931836,-1.427328 -1.09792,0.04115 -1.35815,1.042726 -1.65843,1.452463 z"
       style="font-style:normal;font-variant:normal;font-weight:normal;font-stretch:normal;font-size:10.58333302px;line-height:125%;font-family:'Berlin Sans FB Demi';-inkscape-font-specification:'Berlin Sans FB Demi';letter-spacing:0px;word-spacing:0px;fill:#000000;fill-opacity:1;stroke:none;stroke-width:0.35660815px;stroke-linecap:butt;stroke-linejoin:miter;stroke-opacity:1"
       id="path4813-2-2-5-3-9"
       inkscape:connector-curvature="0"
       sodipodi:nodetypes="czzcscczczcccczzc" />
  </g>
</svg>
